<ttFont>
          <CharString index="0">
            -102 callgsubr
            -23 -15 -29 -2 -3 rcurveline
            11 callgsubr
            4 -23 3 -21 -20 vvcurveto
            -35 -8 -34 -17 -41 vhcurveto
            -1 -6 rlineto
            2 -17 1 -15 -13 vvcurveto
            -45 -11 -30 -25 -45 -93 callsubr
            -1 9 -30 35 -19 vhcurveto
            7 -66 61 -16 -4 1 4 -49 callsubr
            2 return
          </CharString>
          <CharString index="1">
            rmoveto
            -54 callsubr
            38 -62 hhcurveto
            -61 -27 -33 -84 callgsubr
            -4 -5 -103 callgsubr
            -31 -5 -31 -104 callsubr
            -2 20 -49 77 77 22 46 -41 callgsubr
            -81 callgsubr
            34 vvcurveto
            34 6 34 12 33 vhcurveto
            2 4 -100 callsubr
            rlineto
            return
          </CharString>
          <CharString index="2">
            24 508 395 rmoveto
            1 2 7 11 vvcurveto
            11 -2 15 -7 17 35 callgsubr
            15 13 29 -11 17 2 vvcurveto
            -4 5 -6 1 -68 4 -41 18 -52 45 rlinecurve
            -8 3 rlineto
            -60 -53 30 34 -38 hvcurveto
            31 callgsubr
            -5 hlineto
            -3 -1 -42 -4 -25 -39 -39 -8 -17 -22 -1 -1 -5 callgsubr
            -97 callgsubr
            -29 vvcurveto
            -36 -7 -35 -14 -36 -97 callsubr
            -33 6 -33 -35 vvcurveto
            -30 -5 -32 -104 callsubr
            -2 20 -49 77 -88 callgsubr
            vhcurveto
            2 5 -2 4 -81 callgsubr
            34 vvcurveto
            5 -1 5 1 5 vhcurveto
            20 26 26 26 27 20 12 -21 6 -23 5 -30 rrcurveto
            -4 vlineto
            3 -3 2 -1 2 -2 3 -3 rlinecurve
            34 -42 22 -37 6 -50 1 -5 rcurveline
            3 -2 rlineto
            -1 1 15 -12 27 hhcurveto
            15 20 4 13 23 hvcurveto
            59 34 -2 46 3 vvcurveto
            5 vlineto
            -4 2 -44 38 -25 45 -11 56 rlinecurve
            -3 5 -28 26 -17 22 -11 30 rlinecurve
            28 29 35 22 42 18 6 3 rcurveline
            -220 95 rmoveto
            26 -2 21 -4 21 -7 -31 -32 -38 -23 -43 -16 -7 -6 rcurveline
            -5 -9 -10 -11 -10 -10 2 26 5 26 8 28 -6 callgsubr
            24 -4 24 24 vvcurveto
            20 -10 21 -13 25 -14 rrcurveto
            return
          </CharString>
          <CharString index="3">
            -81 callsubr
            7 -29 -60 callgsubr
            -40 -87 callgsubr
            -4 -70 callsubr
            return
          </CharString>
          <CharString index="4">
            rmoveto
            16 -19 -28 10 -29 hhcurveto
            -30 -27 -10 -17 -18 12 callsubr
            3 31 callsubr
            -17 3 -17 -15 vvcurveto
            -12 -2 -12 -40 callgsubr
            5 -5 rlineto
            -18 16 26 -10 29 hhcurveto
            28 26 10 18 17 25 callsubr
            -3 10 -2 10 12 vvcurveto
            16 3 17 7 20 -46 callgsubr
            rlineto
            return
          </CharString>
          <CharString index="5">
            rmoveto
            -30 49 -17 51 -4 51 -1 8 rcurveline
            -8 11 callsubr
            -7 -6 0 -7 hhcurveto
            -44 -43 -26 -36 -12 hvcurveto
            1 callgsubr
            -4 35 -43 27 -47 20 -50 rlinecurve
            2 -5 5 12 callgsubr
            5 6 0 5 hhcurveto
            29 35 15 35 9 -46 callsubr
          </CharString>
          <CharString index="6">
            rmoveto
            25 -11 23 -20 15 -51 callgsubr
            -26 -27 -3 -27 hhcurveto
            -31 -32 4 6 -33 -47 callgsubr
            -24 -14 -15 -26 -27 vvcurveto
            -24 11 -20 18 -10 vhcurveto
            7 -2 rlineto
            4 26 26 2 25 hhcurveto
            36 36 -4 -8 36 hvcurveto
            4 7 callsubr
            20 11 12 21 2 24 rlinecurve
            endchar
          </CharString>
          <CharString index="7">
            -100 callgsubr
            34 6 34 21 callsubr
            3 6 return
          </CharString>
          <CharString index="8">
            -11 31 -5 32 33 vvcurveto
            32 5 34 10 36 -71 callsubr
            -8 26 return
          </CharString>
          <CharString index="9">
            3 -6 5 -10 7 -9 10 -8 rlinecurve
            1 -7 2 -7 3 -8 1 -3 rcurveline
            4 -2 39 -21 34 -29 32 -39 rlinecurve
            4 -4 rlineto
            6 hlineto
            36 4 39 40 42 3 -1 4 3 vvcurveto
            -1 6 -5 2 -34 16 -30 20 -25 23 rlinecurve
            return
          </CharString>
          <CharString index="10">
            -87 callsubr
            -45 callgsubr
            10 return
          </CharString>
          <CharString index="11">
            -2 512 109 rmoveto
            -4 59 -35 23 -1 -48 callgsubr
            -12 -34 -26 -6 -27 hhcurveto
            -25 -25 5 10 -31 hvcurveto
            -9 hlineto
            -8 -5 -14 -3 -12 -2 2 25 6 25 9 25 2 4 rcurveline
            -2 4 -4 10 -3 10 -2 10 rlinecurve
            3 19 19 2 17 6 5 -1 5 hhcurveto
            8 hlineto
            5 -65 callgsubr
            1 27 26 42 vvcurveto
            6 -1 7 -1 7 vhcurveto
            52 -12 -41 16 17 callsubr
            2 -7 -3 -13 -6 -13 -6 -15 -6 rlinecurve
            6 21 rlineto
            -52 callsubr
            4 -15 5 -16 2 -15 rlinecurve
            -1 -7 -7 1 -7 hhcurveto
            -13 -11 1 1 -10 hvcurveto
            -16 callgsubr
            rlineto
            -3 -1 -38 -21 -49 vvcurveto
            -87 74 -12 -1 vhcurveto
            10 2 7 3 5 2 3 3 rlinecurve
            6 -28 3 -26 -25 vvcurveto
            -39 -87 callgsubr
            -5 -72 callsubr
            -2 20 -50 77 38 25 11 12 15 vhcurveto
            18 -1 21 -3 19 -3 -38 callgsubr
            11 30 25 5 26 hhcurveto
            23 24 -4 -8 30 hvcurveto
            7 -2 -85 callsubr
            1 2 32 28 -61 callsubr
            endchar
          </CharString>
          <CharString index="12">
            13 509 294 rmoveto
            0 2 7 11 vvcurveto
            11 -2 15 -7 17 vhcurveto
            7 9 5 11 5 14 rrcurveto
            6 17 2 15 12 vvcurveto
            30 -11 17 -1 2 vhcurveto
            -3 5 rlineto
            -6 hlineto
            -69 4 -40 34 callgsubr
            -43 8 -33 10 -30 19 3 15 5 15 5 16 3 6 rcurveline
            -5 5 rlineto
            2 -1 -30 38 -62 hhcurveto
            -61 -27 -33 -2 -1 hvcurveto
            -4 -5 -103 callgsubr
            -30 -5 -32 -104 callsubr
            -2 20 -49 77 77 22 46 -41 callgsubr
            -3 6 -2 7 -2 6 rlinecurve
            36 44 52 36 45 23 6 5 rcurveline
            34 50 47 37 62 27 6 2 rcurveline
            -220 95 rmoveto
            25 -2 21 -4 21 -7 -31 -31 -37 -24 -43 -16 -4 -1 rcurveline
            -3 -4 -2 -5 -7 -8 -7 -7 rlinecurve
            -6 24 -3 26 26 vvcurveto
            22 2 25 5 24 vhcurveto
            20 -9 20 -13 23 -13 rrcurveto
            endchar
          </CharString>
          <CharString index="13">
            rmoveto
            -3 1 -11 104 -95 -13 -8 -3 -1 hhcurveto
            -5 -2 -3 -6 -24 -64 -29 -41 -46 -31 rlinecurve
            -4 -3 -1 -25 callgsubr
            -2 -5 -9 vvcurveto
            -12 20 -84 71 19 15 6 1 1 vhcurveto
            4 3 1 4 20 57 32 42 53 41 rlinecurve
            -85 callsubr
            return
          </CharString>
          <CharString index="14">
            vhcurveto
            -2 -4 11 callgsubr
            return
          </CharString>
          <CharString index="15">
            rmoveto
            1 8 14 21 vvcurveto
            12 -2 14 -8 16 vhcurveto
            7 13 5 14 18 vvcurveto
            23 -10 16 -1 1 vhcurveto
            -2 4 -5 1 -53 17 -86 55 -42 54 rlinecurve
            -3 5 rlineto
            -7 hlineto
            -6 -91 -17 -87 hvcurveto
            -14 3 -10 -1 vvcurveto
            2 -6 6 -3 42 -16 49 -32 37 -34 rlinecurve
            -35 -37 -48 -37 -42 -18 -6 -2 rcurveline
            -2 -6 rlineto
            -1 -2 -7 -12 vvcurveto
            -94 102 -10 1 vhcurveto
            7 hlineto
            3 6 40 54 76 58 56 21 rlinecurve
            4 2 return
          </CharString>
          <CharString index="16">
            2 -6 rlineto
            9 -29 4 return
          </CharString>
          <CharString index="17">
            -10 -34 -15 -32 -20 -29 -5 callgsubr
            -98 callsubr
            return
          </CharString>
          <CharString index="18">
            3 rcurveline
            -6 -2 rlineto
            return
          </CharString>
          <CharString index="19">
            -15 callgsubr
            1 1 9 9 7 15 rlinecurve
            56 37 -3 45 4 vvcurveto
            return
          </CharString>
          <CharString index="20">
            vhcurveto
            -2 -4 return
          </CharString>
          <CharString index="21">
            -49 callgsubr
            -7 -21 -4 return
          </CharString>
          <CharString index="22">
            5 4 rlineto
            return
          </CharString>
          <CharString index="23">
            22 46 2 1 return
          </CharString>
          <CharString index="24">
            14 -2 15 hhcurveto
            3 7 callsubr
            return
          </CharString>
          <CharString index="25">
            -62 callgsubr
            -55 callgsubr
            return
          </CharString>
          <CharString index="26">
            -8 -73 callsubr
            return
          </CharString>
          <CharString index="27">
            4 -66 callsubr
            return
          </CharString>
          <CharString index="28">
            21 callsubr
            3 6 rlineto
            return
          </CharString>
          <CharString index="29">
            vhcurveto
            -82 callsubr
            return
          </CharString>
          <CharString index="30">
            2 -60 callsubr
            return
          </CharString>
          <CharString index="31">
            -84 callsubr
            hvcurveto
            2 4 return
          </CharString>
          <CharString index="32">
            38 -42 callgsubr
            return
          </CharString>
          <CharString index="33">
            vhcurveto
            -3 -4 -45 callgsubr
            return
          </CharString>
          <CharString index="34">
            -32 -62 callsubr
            return
          </CharString>
          <CharString index="35">
            2 -4 rlineto
            return
          </CharString>
          <CharString index="36">
            vhcurveto
            7 vlineto
            return
          </CharString>
          <CharString index="37">
            2 -5 rlineto
            return
          </CharString>
          <CharString index="38">
            -2 4 rlineto
            return
          </CharString>
          <CharString index="39">
            hhcurveto
            15 10 4 -24 callsubr
            5 2 2 4 return
          </CharString>
          <CharString index="40">
            -80 callsubr
            -2 return
          </CharString>
          <CharString index="41">
            -1 5 rlineto
            return
          </CharString>
          <CharString index="42">
            232 663 rmoveto
            -54 callsubr
            38 -62 hhcurveto
            -61 -27 -33 -84 callgsubr
            -4 -5 -103 callgsubr
            -31 -5 -31 -104 callsubr
            return
          </CharString>
          <CharString index="43">
            hvcurveto
            -4 2 return
          </CharString>
          <CharString index="44">
            -75 callsubr
            6 return
          </CharString>
          <CharString index="45">
            vhcurveto
            -6 vlineto
            return
          </CharString>
          <CharString index="46">
            52 vvcurveto
            9 vlineto
            return
          </CharString>
          <CharString index="47">
            -4 -44 callsubr
            return
          </CharString>
          <CharString index="48">
            hvcurveto
            -4 -49 callgsubr
            return
          </CharString>
          <CharString index="49">
            -5 4 -6 return
          </CharString>
          <CharString index="50">
            1 rlineto
            10 30 return
          </CharString>
          <CharString index="51">
            hhcurveto
            6 1 return
          </CharString>
          <CharString index="52">
            2 4 27 return
          </CharString>
          <CharString index="53">
            2 -1 -30 return
          </CharString>
          <CharString index="54">
            6 -43 callsubr
            return
          </CharString>
          <CharString index="55">
            -82 callsubr
            33 6 -25 callsubr
            3 14 callgsubr
            -54 callsubr
            38 -62 hhcurveto
            -61 -27 -33 -84 callgsubr
            -4 -5 -91 callsubr
            -29 -28 -68 callgsubr
            2 callsubr
            vhcurveto
            -2 32 callgsubr
            return
          </CharString>
          <CharString index="56">
            1 -40 callsubr
            return
          </CharString>
          <CharString index="57">
            2 1 vhcurveto
            return
          </CharString>
          <CharString index="58">
            -1 rcurveline
            5 return
          </CharString>
          <CharString index="59">
            32 34 vvcurveto
            return
          </CharString>
          <CharString index="60">
            -2 6 rlineto
            return
          </CharString>
          <CharString index="61">
            hvcurveto
            0 callsubr
            endchar
          </CharString>
          <CharString index="62">
            -17 callgsubr
            34 6 return
          </CharString>
          <CharString index="63">
            -18 callgsubr
            -1 return
          </CharString>
          <CharString index="64">
            rlineto
            1 -1 return
          </CharString>
          <CharString index="65">
            vhcurveto
            1 -6 return
          </CharString>
          <CharString index="66">
            5 -47 callsubr
            return
          </CharString>
          <CharString index="67">
            1 vhcurveto
            3 return
          </CharString>
          <CharString index="68">
            -3 0 -1 return
          </CharString>
          <CharString index="69">
            -3 6 rlineto
            2 10 10 -29 callgsubr
            return
          </CharString>
          <CharString index="70">
            39 20 21 -50 callsubr
            4 3 rlineto
            return
          </CharString>
          <CharString index="71">
            rlinecurve
            3 3 rlineto
            endchar
          </CharString>
          <CharString index="72">
            hhcurveto
            -16 23 callgsubr
            return
          </CharString>
          <CharString index="73">
            2 -66 callgsubr
            return
          </CharString>
          <CharString index="74">
            -10 -10 -2 -4 return
          </CharString>
          <CharString index="75">
            -9 -33 -62 callsubr
            7 -29 3 return
          </CharString>
          <CharString index="76" raw="1">
            651f870b   
          </CharString>
          <CharString index="77">
            hhcurveto
            -21 -22 return
          </CharString>
          <CharString index="78">
            -27 -38 -84 callgsubr
            -4 -6 2 -7 rlineto
            9 -33 4 -32 -33 vvcurveto
            return
          </CharString>
          <CharString index="79">
            26 26 vvcurveto
            34 return
          </CharString>
          <CharString index="80">
            -23 5 11 -32 hvcurveto
            return
          </CharString>
          <CharString index="81">
            -5 5 rlineto
            return
          </CharString>
          <CharString index="82">
            35 21 callsubr
            return
          </CharString>
          <CharString index="83">
            1 1 hvcurveto
            return
          </CharString>
          <CharString index="84">
            7 rlineto
            endchar
          </CharString>
          <CharString index="85">
            hvcurveto
            4 -9 return
          </CharString>
          <CharString index="86">
            3 -5 rlineto
            -2 1 28 return
          </CharString>
          <CharString index="87">
            rlinecurve
            -2 4 -4 2 return
          </CharString>
          <CharString index="88">
            3 17 hhcurveto
            return
          </CharString>
          <CharString index="89">
            -2 3 rlineto
            return
          </CharString>
          <CharString index="90">
            27 10 17 18 hvcurveto
            5 5 -2 7 rlineto
            -7 18 -3 17 16 vvcurveto
            11 1 11 4 11 16 callsubr
            return
          </CharString>
          <CharString index="91" raw="1">
            8f0580aa 0b  
          </CharString>
          <CharString index="92">
            vvcurveto
            27 4 return
          </CharString>
          <CharString index="93">
            4 -33 callgsubr
            return
          </CharString>
          <CharString index="94">
            -3 -24 callgsubr
            return
          </CharString>
          <CharString index="95">
            26 callgsubr
            -4 -1 rlineto
            -5 -19 -21 -2 -23 hhcurveto
            -42 -44 7 11 -27 hvcurveto
            -7 hlineto
            return
          </CharString>
          <CharString index="96">
            rmoveto
            -8 24 -4 47 46 vvcurveto
            return
          </CharString>
          <CharString index="97">
            -6 vlineto
            5 -4 return
          </CharString>
          <CharString index="98">
            18 -4 18 return
          </CharString>
          <CharString index="99">
            14 -31 11 return
          </CharString>
          <CharString index="100">
            -3 18 -2 18 return
          </CharString>
          <CharString index="101">
            hvcurveto
            6 1 rlineto
            return
          </CharString>
          <CharString index="102">
            -4 -2 -2 return
          </CharString>
          <CharString index="103">
            rmoveto
            -9 1 -10 -10 vvcurveto
            -14 hlineto
            -11 hlineto
            7 9 8 10 9 10 rrcurveto
            endchar
          </CharString>
          <CharString index="104">
            4 1 rlineto
            return
          </CharString>
          <CharString index="105">
            2 rlineto
            -1 return
          </CharString>
          <CharString index="106">
            hvcurveto
            -8 hlineto
            return
          </CharString>
          <CharString index="107">
            1 4 rlineto
            return
          </CharString>
          <CharString index="108">
            -1 hvcurveto
            2 return
          </CharString>
          <CharString index="109">
            -36 -14 -35 return
          </CharString>
          <CharString index="110">
            26 callsubr
            5 return
          </CharString>
          <CharString index="111">
            -9 hlineto
            -2 -1 return
          </CharString>
          <CharString index="112">
            8 -28 4 return
          </CharString>
          <CharString index="113">
            8 -1 8 return
          </CharString>
          <CharString index="114">
            -1 4 2 return
          </CharString>
          <CharString index="115">
            -5 hlineto
            -3 -3 rlineto
            -2 -2 -20 -19 -37 vvcurveto
            -14 3 -16 8 -19 vhcurveto
            return
          </CharString>
          <CharString index="116">
            18 -3 16 -5 20 -4 rrcurveto
            return
          </CharString>
          <CharString index="117">
            -41 -87 callsubr
            1 return
          </CharString>
          <CharString index="118">
            2 rlineto
            1 return
          </CharString>
          <CharString index="119">
            hvcurveto
            -5 -5 return
          </CharString>
          <CharString index="120">
            6 rlineto
            -6 23 -3 25 24 vvcurveto
            47 9 47 13 30 callgsubr
            5 return
          </CharString>
          <CharString index="121">
            3 1 1 4 return
          </CharString>
          <CharString index="122">
            rlineto
            -5 vlineto
            return
          </CharString>
          <CharString index="123">
            vhcurveto
            2 6 return
          </CharString>
          <CharString index="124">
            -1 hhcurveto
            -6 return
          </CharString>
          <CharString index="125">
            5 rcurveline
            endchar
          </CharString>
          <CharString index="126">
            -4 -38 callgsubr
            return
          </CharString>
          <CharString index="127">
            -3 -3 rcurveline
            return
          </CharString>
          <CharString index="128">
            12 36 vhcurveto
            return
          </CharString>
          <CharString index="129" raw="1">
            af1e8d0b   
          </CharString>
          <CharString index="130">
            -21 8 -29 hhcurveto
            -61 -27 -33 -84 callgsubr
            -4 -5 2 -6 return
          </CharString>
          <CharString index="131">
            1 vhcurveto
            -58 callsubr
            -2 return
          </CharString>
          <CharString index="132">
            hvcurveto
            4 -41 callsubr
            return
          </CharString>
          <CharString index="133">
            2 -1 vhcurveto
            4 -2 return
          </CharString>
          <CharString index="134">
            21 callgsubr
            rlineto
            return
          </CharString>
          <CharString index="135">
            1 -1 vhcurveto
            return
          </CharString>
          <CharString index="136">
            7 1 rlineto
            return
          </CharString>
          <CharString index="137">
            3 -6 rlineto
            return
          </CharString>
          <CharString index="138">
            -7 rlineto
            7 return
          </CharString>
          <CharString index="139">
            7 35 12 return
          </CharString>
          <CharString index="140">
            -27 callgsubr
            -6 -2 rlineto
            -9 -28 -21 -5 -22 hhcurveto
            return
          </CharString>
          <CharString index="141">
            -28 hvcurveto
            -5 -77 callsubr
            -47 -19 return
          </CharString>
          <CharString index="142">
            hhcurveto
            26 26 -6 -11 29 hvcurveto
            return
          </CharString>
        <CharString name=".notdef">
          -308 endchar
        </CharString>
        <CharString name="A">
          0 522 255 rmoveto
          -13 57 -37 18 -1 1 -6 -3 callgsubr
          -3 -12 -7 -12 -6 -13 -5 rlinecurve
          -8 28 -2 31 34 vvcurveto
          13 vlineto
          -47 callsubr
          -27 48 -14 54 57 vvcurveto
          8 0 7 1 8 vhcurveto
          1 7 -6 -8 callgsubr
          -18 6 -28 hhcurveto
          -7 hlineto
          1 1 1 -51 callsubr
          6 -3 -53 callsubr
          -30 59 -81 hhcurveto
          -42 -22 -19 -1 -2 hvcurveto
          -4 -4 7 callgsubr
          1 -11 1 -11 -10 vvcurveto
          -56 -16 -51 -31 -48 vhcurveto
          -3 -4 11 callgsubr
          1 -13 1 -13 -13 vvcurveto
          -51 -12 -51 -25 -50 -39 callgsubr
          rlineto
          -17 vlineto
          -67 -16 -57 -33 -51 -74 callsubr
          0 12 -73 104 53 22 30 -51 callsubr
          -67 callsubr
          14 -1 14 14 vvcurveto
          15 vlineto
          14 42 44 4 41 hhcurveto
          7 11 callsubr
          1 1 -24 callsubr
          4 -22 2 -22 -23 -8 -1 -8 -8 vvcurveto
          -14 callgsubr
          -4 rlineto
          1 22 -13 34 -1 callgsubr
          2 3 12 hvcurveto
          53 12 23 27 1 1 6 7 rcurveline
          -5 8 -17 28 -14 30 -9 32 rlinecurve
          9 9 0 -12 callgsubr
          -15 callgsubr
          rlineto
          1 2 19 25 40 vvcurveto
          9 -1 10 -2 11 vhcurveto
          -263 125 rmoveto
          -8 callsubr
          -29 7 -28 rrcurveto
          -9 callgsubr
          1 -4 hvcurveto
          -8 -2 -13 -7 -13 -5 -14 -5 rlinecurve
          13 vlineto
          37 7 39 15 39 vhcurveto
          endchar
        </CharString>
        <CharString name="AE">
          290 703 345 rmoveto
          58 -33 26 -2 -86 callgsubr
          -9 -29 -24 -4 -24 hhcurveto
          -18 -16 2 5 -19 hvcurveto
          2 12 2 11 4 12 -35 callgsubr
          -6 18 -7 callsubr
          rrcurveto
          25 25 -3 -5 27 hvcurveto
          6 -57 callsubr
          21 5 22 -58 callgsubr
          -7 31 hvcurveto
          7 -2 -85 callsubr
          1 1 32 29 -61 callsubr
          -4 58 -35 24 -1 -48 callgsubr
          -12 -34 -22 -6 -23 -30 callsubr
          5 10 -32 hvcurveto
          -4 -63 callgsubr
          1 -3 rlineto
          7 -16 -16 4 -22 -22 -14 -7 17 callsubr
          33 callgsubr
          -10 -68 -30 -55 -50 -47 rlinecurve
          -4 -7 -8 -65 -28 -59 -46 -53 rlinecurve
          -2 -6 -16 -72 -31 -57 -49 -44 rlinecurve
          -4 -24 callgsubr
          -3 -4 -52 70 -33 vhcurveto
          -11 23 20 -4 17 hhcurveto
          32 17 14 -24 callsubr
          4 3 1 5 4 39 11 36 17 33 rlinecurve
          2 -1 25 callgsubr
          3 36 hhcurveto
          21 21 -1 -2 20 hvcurveto
          -2 -33 -7 -30 -12 -30 -2 -54 callgsubr
          -2 20 -50 77 50 27 19 15 12 vhcurveto
          9 callsubr
          6 hlineto
          6 24 18 -19 callsubr
          24 23 -6 -14 -75 callsubr
          5 3 2 2 39 28 1 58 rlinecurve
          59 -30 25 -2 -76 callgsubr
          -7 -27 -21 -4 -18 hhcurveto
          -27 -23 8 15 -37 -64 callsubr
          -4 -1 rlineto
          0 -35 -3 -22 -5 vhcurveto
          -71 callgsubr
          rrcurveto
          8 vlineto
          -38 callsubr
          26 27 -6 -12 36 -42 callgsubr
          6 4 rlineto
          -23 callgsubr
          -30 callgsubr
          -340 10 rmoveto
          -21 -2 -20 -4 -21 vhcurveto
          -11 hlineto
          -26 -26 2 4 -24 hvcurveto
          14 35 21 34 30 33 3 6 rcurveline
          2 15 4 15 4 14 rrcurveto
          10 -31 5 -33 -32 vvcurveto
          endchar
        </CharString>
        <CharString name="AEacute">
          290 703 345 rmoveto
          58 -33 26 -2 -86 callgsubr
          -9 -29 -24 -4 -24 hhcurveto
          -18 -16 2 5 -19 hvcurveto
          2 12 2 11 4 12 -35 callgsubr
          -6 18 -7 callsubr
          rrcurveto
          25 25 -3 -5 27 hvcurveto
          6 -57 callsubr
          21 5 22 -58 callgsubr
          -7 31 hvcurveto
          7 -2 -85 callsubr
          1 1 32 29 -61 callsubr
          -4 58 -35 24 -1 -48 callgsubr
          -12 -34 -22 -6 -23 -30 callsubr
          5 10 -32 hvcurveto
          -4 -63 callgsubr
          1 -3 rlineto
          7 -16 -16 4 -22 -22 -14 -7 17 callsubr
          33 callgsubr
          -10 -68 -30 -55 -50 -47 rlinecurve
          -4 -7 -8 -65 -28 -59 -46 -53 rlinecurve
          -2 -6 -16 -72 -31 -57 -49 -44 rlinecurve
          -4 -24 callgsubr
          -3 -4 -52 70 -33 vhcurveto
          -11 23 20 -4 17 hhcurveto
          32 17 14 -24 callsubr
          4 3 1 5 4 39 11 36 17 33 rlinecurve
          2 -1 25 callgsubr
          3 36 hhcurveto
          21 21 -1 -2 20 hvcurveto
          -2 -33 -7 -30 -12 -30 -2 -54 callgsubr
          -2 20 -50 77 50 27 19 15 12 vhcurveto
          9 callsubr
          6 hlineto
          6 24 18 -19 callsubr
          24 23 -6 -14 -75 callsubr
          5 3 2 2 39 28 1 58 rlinecurve
          59 -30 25 -2 -76 callgsubr
          -7 -27 -21 -4 -18 hhcurveto
          -27 -23 8 15 -37 -64 callsubr
          -4 -1 rlineto
          0 -35 -3 -22 -5 vhcurveto
          -71 callgsubr
          rrcurveto
          8 vlineto
          -38 callsubr
          26 27 -6 -12 36 -42 callgsubr
          6 4 rlineto
          -23 callgsubr
          -30 callgsubr
          -340 10 rmoveto
          -21 -2 -20 -4 -21 vhcurveto
          -11 hlineto
          -26 -26 2 4 -24 hvcurveto
          14 35 21 34 30 33 3 6 rcurveline
          2 15 4 15 4 14 rrcurveto
          10 -31 5 -33 -32 vvcurveto
          207 519 -106 callgsubr
          endchar
        </CharString>
        <CharString name="Aacute">
          0 522 255 rmoveto
          -13 57 -37 18 -1 1 -6 -3 callgsubr
          -3 -12 -7 -12 -6 -13 -5 rlinecurve
          -8 28 -2 31 34 vvcurveto
          13 vlineto
          -47 callsubr
          -27 48 -14 54 57 vvcurveto
          8 0 7 1 8 vhcurveto
          1 7 -6 -8 callgsubr
          -18 6 -28 hhcurveto
          -7 hlineto
          1 1 1 -51 callsubr
          6 -3 -53 callsubr
          -30 59 -81 hhcurveto
          -42 -22 -19 -1 -2 hvcurveto
          -4 -4 7 callgsubr
          1 -11 1 -11 -10 vvcurveto
          -56 -16 -51 -31 -48 vhcurveto
          -3 -4 11 callgsubr
          1 -13 1 -13 -13 vvcurveto
          -51 -12 -51 -25 -50 -39 callgsubr
          rlineto
          -17 vlineto
          -67 -16 -57 -33 -51 -74 callsubr
          0 12 -73 104 53 22 30 -51 callsubr
          -67 callsubr
          14 -1 14 14 vvcurveto
          15 vlineto
          14 42 44 4 41 hhcurveto
          7 11 callsubr
          1 1 -24 callsubr
          4 -22 2 -22 -23 -8 -1 -8 -8 vvcurveto
          -14 callgsubr
          -4 rlineto
          1 22 -13 34 -1 callgsubr
          2 3 12 hvcurveto
          53 12 23 27 1 1 6 7 rcurveline
          -5 8 -17 28 -14 30 -9 32 rlinecurve
          9 9 0 -12 callgsubr
          -15 callgsubr
          rlineto
          1 2 19 25 40 vvcurveto
          9 -1 10 -2 11 vhcurveto
          -263 125 rmoveto
          -8 callsubr
          -29 7 -28 rrcurveto
          -9 callgsubr
          1 -4 hvcurveto
          -8 -2 -13 -7 -13 -5 -14 -5 rlinecurve
          13 vlineto
          37 7 39 15 39 vhcurveto
          180 464 -106 callgsubr
          endchar
        </CharString>
        <CharString name="Abreve">
          0 522 255 rmoveto
          -13 57 -37 18 -1 1 -6 -3 callgsubr
          -3 -12 -7 -12 -6 -13 -5 rlinecurve
          -8 28 -2 31 34 vvcurveto
          13 vlineto
          -47 callsubr
          -27 48 -14 54 57 vvcurveto
          8 0 7 1 8 vhcurveto
          1 7 -6 -8 callgsubr
          -18 6 -28 hhcurveto
          -7 hlineto
          1 1 1 -51 callsubr
          6 -3 -53 callsubr
          -30 59 -81 hhcurveto
          -42 -22 -19 -1 -2 hvcurveto
          -4 -4 7 callgsubr
          1 -11 1 -11 -10 vvcurveto
          -56 -16 -51 -31 -48 vhcurveto
          -3 -4 11 callgsubr
          1 -13 1 -13 -13 vvcurveto
          -51 -12 -51 -25 -50 -39 callgsubr
          rlineto
          -17 vlineto
          -67 -16 -57 -33 -51 -74 callsubr
          0 12 -73 104 53 22 30 -51 callsubr
          -67 callsubr
          14 -1 14 14 vvcurveto
          15 vlineto
          14 42 44 4 41 hhcurveto
          7 11 callsubr
          1 1 -24 callsubr
          4 -22 2 -22 -23 -8 -1 -8 -8 vvcurveto
          -14 callgsubr
          -4 rlineto
          1 22 -13 34 -1 callgsubr
          2 3 12 hvcurveto
          53 12 23 27 1 1 6 7 rcurveline
          -5 8 -17 28 -14 30 -9 32 rlinecurve
          9 9 0 -12 callgsubr
          -15 callgsubr
          rlineto
          1 2 19 25 40 vvcurveto
          9 -1 10 -2 11 vhcurveto
          -263 125 rmoveto
          -8 callsubr
          -29 7 -28 rrcurveto
          -9 callgsubr
          1 -4 hvcurveto
          -8 -2 -13 -7 -13 -5 -14 -5 rlinecurve
          13 vlineto
          37 7 39 15 39 vhcurveto
          166 509 rmoveto
          24 -12 -33 19 -34 hhcurveto
          -13 -13 -3 -7 -11 hvcurveto
          -5 33 callgsubr
          -1 -34 -6 -33 -11 -30 rlinecurve
          -1 -8 -9 0 -9 hhcurveto
          -11 -10 0 1 -10 hvcurveto
          -5 25 -2 26 28 vvcurveto
          23 vlineto
          31 callgsubr
          9 -12 -16 5 -19 hhcurveto
          -24 -32 -9 -26 -17 hvcurveto
          -3 -5 2 -6 rlineto
          22 -49 8 -48 -49 vvcurveto
          -1 -6 6 -4 10 -6 12 -4 13 -1 rlinecurve
          5 -6 6 -5 8 -4 7 -2 rcurveline
          2 15 16 2 15 hhcurveto
          30 30 -4 -8 32 hvcurveto
          5 -1 5 3 8 7 6 9 4 11 rlinecurve
          8 4 7 5 6 6 3 3 rcurveline
          3 vlineto
          5 45 14 43 24 44 3 18 callsubr
        </CharString>
        <CharString name="Acircumflex">
          0 522 255 rmoveto
          -13 57 -37 18 -1 1 -6 -3 callgsubr
          -3 -12 -7 -12 -6 -13 -5 rlinecurve
          -8 28 -2 31 34 vvcurveto
          13 vlineto
          -47 callsubr
          -27 48 -14 54 57 vvcurveto
          8 0 7 1 8 vhcurveto
          1 7 -6 -8 callgsubr
          -18 6 -28 hhcurveto
          -7 hlineto
          1 1 1 -51 callsubr
          6 -3 -53 callsubr
          -30 59 -81 hhcurveto
          -42 -22 -19 -1 -2 hvcurveto
          -4 -4 7 callgsubr
          1 -11 1 -11 -10 vvcurveto
          -56 -16 -51 -31 -48 vhcurveto
          -3 -4 11 callgsubr
          1 -13 1 -13 -13 vvcurveto
          -51 -12 -51 -25 -50 -39 callgsubr
          rlineto
          -17 vlineto
          -67 -16 -57 -33 -51 -74 callsubr
          0 12 -73 104 53 22 30 -51 callsubr
          -67 callsubr
          14 -1 14 14 vvcurveto
          15 vlineto
          14 42 44 4 41 hhcurveto
          7 11 callsubr
          1 1 -24 callsubr
          4 -22 2 -22 -23 -8 -1 -8 -8 vvcurveto
          -14 callgsubr
          -4 rlineto
          1 22 -13 34 -1 callgsubr
          2 3 12 hvcurveto
          53 12 23 27 1 1 6 7 rcurveline
          -5 8 -17 28 -14 30 -9 32 rlinecurve
          9 9 0 -12 callgsubr
          -15 callgsubr
          rlineto
          1 2 19 25 40 vvcurveto
          9 -1 10 -2 11 vhcurveto
          -263 125 rmoveto
          -8 callsubr
          -29 7 -28 rrcurveto
          -9 callgsubr
          1 -4 hvcurveto
          -8 -2 -13 -7 -13 -5 -14 -5 rlinecurve
          13 vlineto
          37 7 39 15 39 vhcurveto
          159 404 -105 callgsubr
        </CharString>
        <CharString name="Adieresis">
          0 522 255 rmoveto
          -13 57 -37 18 -1 1 -6 -3 callgsubr
          -3 -12 -7 -12 -6 -13 -5 rlinecurve
          -8 28 -2 31 34 vvcurveto
          13 vlineto
          -47 callsubr
          -27 48 -14 54 57 vvcurveto
          8 0 7 1 8 vhcurveto
          1 7 -6 -8 callgsubr
          -18 6 -28 hhcurveto
          -7 hlineto
          1 1 1 -51 callsubr
          6 -3 -53 callsubr
          -30 59 -81 hhcurveto
          -42 -22 -19 -1 -2 hvcurveto
          -4 -4 7 callgsubr
          1 -11 1 -11 -10 vvcurveto
          -56 -16 -51 -31 -48 vhcurveto
          -3 -4 11 callgsubr
          1 -13 1 -13 -13 vvcurveto
          -51 -12 -51 -25 -50 -39 callgsubr
          rlineto
          -17 vlineto
          -67 -16 -57 -33 -51 -74 callsubr
          0 12 -73 104 53 22 30 -51 callsubr
          -67 callsubr
          14 -1 14 14 vvcurveto
          15 vlineto
          14 42 44 4 41 hhcurveto
          7 11 callsubr
          1 1 -24 callsubr
          4 -22 2 -22 -23 -8 -1 -8 -8 vvcurveto
          -14 callgsubr
          -4 rlineto
          1 22 -13 34 -1 callgsubr
          2 3 12 hvcurveto
          53 12 23 27 1 1 6 7 rcurveline
          -5 8 -17 28 -14 30 -9 32 rlinecurve
          9 9 0 -12 callgsubr
          -15 callgsubr
          rlineto
          1 2 19 25 40 vvcurveto
          9 -1 10 -2 11 vhcurveto
          -263 125 rmoveto
          -8 callsubr
          -29 7 -28 rrcurveto
          -9 callgsubr
          1 -4 hvcurveto
          -8 -2 -13 -7 -13 -5 -14 -5 rlinecurve
          13 vlineto
          37 7 39 15 39 vhcurveto
          178 462 rmoveto
          17 -21 -27 10 -29 hhcurveto
          -25 -26 -8 -15 -19 hvcurveto
          -6 -4 1 -7 rlineto
          5 -20 2 -21 -20 vvcurveto
          16 callgsubr
          -1 -9 vhcurveto
          -1 -6 5 -4 rlineto
          -14 19 24 -8 24 hhcurveto
          19 18 5 9 15 hvcurveto
          -44 callgsubr
          3 0 3 3 vvcurveto
          25 7 26 14 28 vhcurveto
          3 8 rlineto
          -190 14 rmoveto
          13 -13 -25 7 -29 hhcurveto
          -35 -33 -11 -18 -20 hvcurveto
          -6 -6 4 -7 rlineto
          14 -24 6 -24 -24 vvcurveto
          -6 0 -5 -1 -6 -26 callgsubr
          6 -3 rlineto
          -9 13 20 -5 21 hhcurveto
          28 25 9 15 15 hvcurveto
          4 -67 callsubr
          8 0 8 9 vvcurveto
          21 4 22 9 23 vhcurveto
          3 -23 callsubr
        </CharString>
        <CharString name="Agrave">
          0 522 255 rmoveto
          -13 57 -37 18 -1 1 -6 -3 callgsubr
          -3 -12 -7 -12 -6 -13 -5 rlinecurve
          -8 28 -2 31 34 vvcurveto
          13 vlineto
          -47 callsubr
          -27 48 -14 54 57 vvcurveto
          8 0 7 1 8 vhcurveto
          1 7 -6 -8 callgsubr
          -18 6 -28 hhcurveto
          -7 hlineto
          1 1 1 -51 callsubr
          6 -3 -53 callsubr
          -30 59 -81 hhcurveto
          -42 -22 -19 -1 -2 hvcurveto
          -4 -4 7 callgsubr
          1 -11 1 -11 -10 vvcurveto
          -56 -16 -51 -31 -48 vhcurveto
          -3 -4 11 callgsubr
          1 -13 1 -13 -13 vvcurveto
          -51 -12 -51 -25 -50 -39 callgsubr
          rlineto
          -17 vlineto
          -67 -16 -57 -33 -51 -74 callsubr
          0 12 -73 104 53 22 30 -51 callsubr
          -67 callsubr
          14 -1 14 14 vvcurveto
          15 vlineto
          14 42 44 4 41 hhcurveto
          7 11 callsubr
          1 1 -24 callsubr
          4 -22 2 -22 -23 -8 -1 -8 -8 vvcurveto
          -14 callgsubr
          -4 rlineto
          1 22 -13 34 -1 callgsubr
          2 3 12 hvcurveto
          53 12 23 27 1 1 6 7 rcurveline
          -5 8 -17 28 -14 30 -9 32 rlinecurve
          9 9 0 -12 callgsubr
          -15 callgsubr
          rlineto
          1 2 19 25 40 vvcurveto
          9 -1 10 -2 11 vhcurveto
          -263 125 rmoveto
          -8 callsubr
          -29 7 -28 rrcurveto
          -9 callgsubr
          1 -4 hvcurveto
          -8 -2 -13 -7 -13 -5 -14 -5 rlinecurve
          13 vlineto
          37 7 39 15 39 vhcurveto
          52 383 -102 callsubr
        </CharString>
        <CharString name="Amacron">
          0 522 255 rmoveto
          -13 57 -37 18 -1 1 -6 -3 callgsubr
          -3 -12 -7 -12 -6 -13 -5 rlinecurve
          -8 28 -2 31 34 vvcurveto
          13 vlineto
          -47 callsubr
          -27 48 -14 54 57 vvcurveto
          8 0 7 1 8 vhcurveto
          1 7 -6 -8 callgsubr
          -18 6 -28 hhcurveto
          -7 hlineto
          1 1 1 -51 callsubr
          6 -3 -53 callsubr
          -30 59 -81 hhcurveto
          -42 -22 -19 -1 -2 hvcurveto
          -4 -4 7 callgsubr
          1 -11 1 -11 -10 vvcurveto
          -56 -16 -51 -31 -48 vhcurveto
          -3 -4 11 callgsubr
          1 -13 1 -13 -13 vvcurveto
          -51 -12 -51 -25 -50 -39 callgsubr
          rlineto
          -17 vlineto
          -67 -16 -57 -33 -51 -74 callsubr
          0 12 -73 104 53 22 30 -51 callsubr
          -67 callsubr
          14 -1 14 14 vvcurveto
          15 vlineto
          14 42 44 4 41 hhcurveto
          7 11 callsubr
          1 1 -24 callsubr
          4 -22 2 -22 -23 -8 -1 -8 -8 vvcurveto
          -14 callgsubr
          -4 rlineto
          1 22 -13 34 -1 callgsubr
          2 3 12 hvcurveto
          53 12 23 27 1 1 6 7 rcurveline
          -5 8 -17 28 -14 30 -9 32 rlinecurve
          9 9 0 -12 callgsubr
          -15 callgsubr
          rlineto
          1 2 19 25 40 vvcurveto
          9 -1 10 -2 11 vhcurveto
          -263 125 rmoveto
          -8 callsubr
          -29 7 -28 rrcurveto
          -9 callgsubr
          1 -4 hvcurveto
          -8 -2 -13 -7 -13 -5 -14 -5 rlinecurve
          13 vlineto
          37 7 39 15 39 vhcurveto
          133 381 -101 callsubr
        </CharString>
        <CharString name="Aogonek">
          0 522 255 rmoveto
          -13 57 -37 18 -1 1 -6 -3 callgsubr
          -3 -12 -7 -12 -6 -13 -5 rlinecurve
          -8 28 -2 31 34 vvcurveto
          13 vlineto
          -47 callsubr
          -27 48 -14 54 57 vvcurveto
          8 0 7 1 8 vhcurveto
          1 7 -6 -8 callgsubr
          -18 6 -28 hhcurveto
          -7 hlineto
          1 1 1 -51 callsubr
          6 -3 -53 callsubr
          -30 59 -81 hhcurveto
          -42 -22 -19 -1 -2 hvcurveto
          -4 -4 7 callgsubr
          1 -11 1 -11 -10 vvcurveto
          -56 -16 -51 -31 -48 vhcurveto
          -3 -4 11 callgsubr
          1 -13 1 -13 -13 vvcurveto
          -51 -12 -51 -25 -50 -39 callgsubr
          rlineto
          -17 vlineto
          -67 -16 -57 -33 -51 -74 callsubr
          0 12 -73 104 53 22 30 -51 callsubr
          -67 callsubr
          14 -1 14 14 vvcurveto
          15 vlineto
          14 42 44 4 41 hhcurveto
          7 11 callsubr
          1 1 -24 callsubr
          4 -22 2 -22 -23 -8 -1 -8 -8 vvcurveto
          -14 callgsubr
          -4 rlineto
          0 5 -3 8 -3 vhcurveto
          -10 -23 -12 -23 -14 -20 -53 callgsubr
          27 13 26 18 26 17 10 8 9 1 1 6 7 rcurveline
          -5 8 -17 28 -14 30 -9 32 rlinecurve
          9 9 0 -12 callgsubr
          -15 callgsubr
          rlineto
          1 2 19 25 40 vvcurveto
          9 -1 10 -2 11 vhcurveto
          -263 125 rmoveto
          -8 callsubr
          -29 7 -28 rrcurveto
          -9 callgsubr
          1 -4 hvcurveto
          -8 -2 -13 -7 -13 -5 -14 -5 rlinecurve
          13 vlineto
          37 7 39 15 39 vhcurveto
          endchar
        </CharString>
        <CharString name="Aring">
          0 522 255 rmoveto
          -13 57 -37 18 -1 1 -6 -3 callgsubr
          -3 -12 -7 -12 -6 -13 -5 rlinecurve
          -8 28 -2 31 34 vvcurveto
          13 vlineto
          -47 callsubr
          -27 48 -14 54 57 vvcurveto
          8 0 7 1 8 vhcurveto
          1 7 -6 -8 callgsubr
          -18 6 -28 hhcurveto
          -7 hlineto
          1 1 1 -51 callsubr
          6 -3 -53 callsubr
          -30 59 -81 hhcurveto
          -42 -22 -19 -1 -2 hvcurveto
          -4 -4 7 callgsubr
          1 -11 1 -11 -10 vvcurveto
          -56 -16 -51 -31 -48 vhcurveto
          -3 -4 11 callgsubr
          1 -13 1 -13 -13 vvcurveto
          -51 -12 -51 -25 -50 -39 callgsubr
          rlineto
          -17 vlineto
          -67 -16 -57 -33 -51 -74 callsubr
          0 12 -73 104 53 22 30 -51 callsubr
          -67 callsubr
          14 -1 14 14 vvcurveto
          15 vlineto
          14 42 44 4 41 hhcurveto
          7 11 callsubr
          1 1 -24 callsubr
          4 -22 2 -22 -23 -8 -1 -8 -8 vvcurveto
          -14 callgsubr
          -4 rlineto
          1 22 -13 34 -1 callgsubr
          2 3 12 hvcurveto
          53 12 23 27 1 1 6 7 rcurveline
          -5 8 -17 28 -14 30 -9 32 rlinecurve
          9 9 0 -12 callgsubr
          -15 callgsubr
          rlineto
          1 2 19 25 40 vvcurveto
          9 -1 10 -2 11 vhcurveto
          -263 125 rmoveto
          -8 callsubr
          -29 7 -28 rrcurveto
          -9 callgsubr
          1 -4 hvcurveto
          -8 -2 -13 -7 -13 -5 -14 -5 rlinecurve
          13 vlineto
          37 7 39 15 39 vhcurveto
          141 375 rmoveto
          8 0 8 -2 7 vhcurveto
          15 13 9 18 23 vvcurveto
          3 vlineto
          -2 3 -28 35 -21 40 -15 48 rlinecurve
          -2 5 -5 2 rlineto
          2 -6 -7 1 -6 -7 callgsubr
          -6 -11 -15 hvcurveto
          12 -16 -20 8 -19 hhcurveto
          -4 -4 -82 callgsubr
          -6 -1 -3 -6 -20 -48 -28 -42 -36 -32 rlinecurve
          -5 -5 1 -6 4 -16 10 -18 15 -12 rlinecurve
          -4 -10 -2 -9 -10 vvcurveto
          -26 9 -21 20 -11 vhcurveto
          -14 callsubr
          5 29 30 3 29 hhcurveto
          33 32 -3 -7 32 hvcurveto
          4 7 callsubr
          19 11 13 22 1 24 rlinecurve
          -125 108 rmoveto
          11 -15 10 -16 8 -16 rrcurveto
          -1 -12 -13 0 -12 hhcurveto
          -29 hlineto
          11 17 12 16 14 15 rrcurveto
          endchar
        </CharString>
        <CharString name="Atilde">
          0 522 255 rmoveto
          -13 57 -37 18 -1 1 -6 -3 callgsubr
          -3 -12 -7 -12 -6 -13 -5 rlinecurve
          -8 28 -2 31 34 vvcurveto
          13 vlineto
          -47 callsubr
          -27 48 -14 54 57 vvcurveto
          8 0 7 1 8 vhcurveto
          1 7 -6 -8 callgsubr
          -18 6 -28 hhcurveto
          -7 hlineto
          1 1 1 -51 callsubr
          6 -3 -53 callsubr
          -30 59 -81 hhcurveto
          -42 -22 -19 -1 -2 hvcurveto
          -4 -4 7 callgsubr
          1 -11 1 -11 -10 vvcurveto
          -56 -16 -51 -31 -48 vhcurveto
          -3 -4 11 callgsubr
          1 -13 1 -13 -13 vvcurveto
          -51 -12 -51 -25 -50 -39 callgsubr
          rlineto
          -17 vlineto
          -67 -16 -57 -33 -51 -74 callsubr
          0 12 -73 104 53 22 30 -51 callsubr
          -67 callsubr
          14 -1 14 14 vvcurveto
          15 vlineto
          14 42 44 4 41 hhcurveto
          7 11 callsubr
          1 1 -24 callsubr
          4 -22 2 -22 -23 -8 -1 -8 -8 vvcurveto
          -14 callgsubr
          -4 rlineto
          1 22 -13 34 -1 callgsubr
          2 3 12 hvcurveto
          53 12 23 27 1 1 6 7 rcurveline
          -5 8 -17 28 -14 30 -9 32 rlinecurve
          9 9 0 -12 callgsubr
          -15 callgsubr
          rlineto
          1 2 19 25 40 vvcurveto
          9 -1 10 -2 11 vhcurveto
          -263 125 rmoveto
          -8 callsubr
          -29 7 -28 rrcurveto
          -9 callgsubr
          1 -4 hvcurveto
          -8 -2 -13 -7 -13 -5 -14 -5 rlinecurve
          13 vlineto
          37 7 39 15 39 vhcurveto
          223 502 rmoveto
          36 -2 -35 32 -40 hhcurveto
          -12 -12 -3 -5 -9 hvcurveto
          -5 -2 -1 -5 -9 -33 -14 -31 -17 -30 rlinecurve
          -16 26 -13 29 -11 31 -5 6 rcurveline
          6 -12 -12 3 -12 hhcurveto
          -4 -3 -82 callgsubr
          4 -9 -10 2 -10 hhcurveto
          -10 -9 -2 -2 -9 hvcurveto
          -5 callsubr
          -5 -21 -53 -31 -49 -45 -46 rlinecurve
          -3 -3 rlineto
          -4 vlineto
          -40 28 -40 44 7 10 2 4 8 vhcurveto
          5 6 14 31 16 30 20 28 rlinecurve
          17 -29 -8 callsubr
          -32 1 -4 rcurveline
          4 -2 rlineto
          -5 9 10 -3 11 hhcurveto
          10 10 2 4 10 hvcurveto
          -2 6 -2 callgsubr
          hhcurveto
          12 10 2 6 9 hvcurveto
          5 6 19 59 31 55 41 47 -36 callsubr
        </CharString>
        <CharString name="B">
          25 502 412 rmoveto
          1 5 12 18 vvcurveto
          9 -2 11 -3 12 35 callgsubr
          14 13 29 -11 18 1 vvcurveto
          -4 6 rlineto
          -6 hlineto
          -68 4 -41 19 -52 44 -4 3 rcurveline
          -4 hlineto
          -3 -4 0 1 -3 hvcurveto
          -60 11 -39 15 -42 38 -4 3 rcurveline
          -5 hlineto
          1 -45 -3 -42 -26 hvcurveto
          -39 -8 -17 -22 -1 -1 -5 callgsubr
          -103 callgsubr
          -31 -5 -31 -104 callsubr
          -2 13 -34 47 -11 vhcurveto
          -43 31 39 0 2 hhcurveto
          9 4 47 46 44 14 65 13 rlinecurve
          6 3 46 41 55 24 67 8 rlinecurve
          7 1 3 -65 callgsubr
          1 8 18 26 vvcurveto
          15 -4 24 -11 20 vhcurveto
          3 10 2 10 13 15 -3 10 1 vvcurveto
          -3 6 -6 2 -45 12 -37 20 -33 29 rlinecurve
          31 24 37 18 43 12 6 2 rcurveline
          -212 95 rmoveto
          20 -2 18 -3 17 -4 -31 -22 -34 -14 -38 -9 -4 -1 rcurveline
          -3 -4 -14 -14 2 11 3 11 3 12 rlinecurve
          7 vlineto
          -7 23 -4 24 24 vvcurveto
          20 -9 21 -13 25 -14 rrcurveto
          -57 -256 rmoveto
          3 2 2 2 3 1 8 -8 rcurveline
          6 -3 24 -8 22 -10 22 -12 rlinecurve
          -21 -6 -21 -4 -21 -1 -5 -1 rcurveline
          -3 -3 -7 -6 -9 -7 -9 -5 -9 -5 rlinecurve
          2 25 5 24 8 25 rrcurveto
          endchar
        </CharString>
        <CharString name="C">
          7 250 450 rmoveto
          -3 17 -2 15 14 -59 callgsubr
          9 1 10 vhcurveto
          16 -4 15 -5 19 -3 7 -49 callsubr
          21 18 3 18 hhcurveto
          30 29 -8 -16 -63 callsubr
          4 -23 callgsubr
          27 3 59 rlinecurve
          8 vlineto
          54 -27 25 -2 1 -75 callgsubr
          -6 -23 -20 -3 -20 hhcurveto
          -33 -30 9 17 -38 -64 callsubr
          -107 callsubr
          rlineto
          23 44 47 11 48 14 -83 callsubr
          rlineto
          18 38 31 9 38 hhcurveto
          17 18 -2 -3 20 -42 callgsubr
          5 -65 callgsubr
          2 25 27 46 20 callgsubr
          7 -1 7 vhcurveto
          -9 58 -37 21 -2 1 -5 3 rcurveline
          -6 -3 rlineto
          -20 -42 -33 -9 -37 -7 callgsubr
          2 5 -22 hvcurveto
          -4 -78 callgsubr
          -3 -2 -3 -1 -3 -1 rlinecurve
          -27 -9 -14 -7 -26 -4 2 31 10 27 19 37 2 4 rcurveline
          -1 4 rlineto
          -5 23 -3 20 21 vvcurveto
          35 8 35 19 44 vhcurveto
          1 3 rlineto
          endchar
        </CharString>
        <CharString name="Cacute">
          7 250 450 rmoveto
          -3 17 -2 15 14 -59 callgsubr
          9 1 10 vhcurveto
          16 -4 15 -5 19 -3 7 -49 callsubr
          21 18 3 18 hhcurveto
          30 29 -8 -16 -63 callsubr
          4 -23 callgsubr
          27 3 59 rlinecurve
          8 vlineto
          54 -27 25 -2 1 -75 callgsubr
          -6 -23 -20 -3 -20 hhcurveto
          -33 -30 9 17 -38 -64 callsubr
          -107 callsubr
          rlineto
          23 44 47 11 48 14 -83 callsubr
          rlineto
          18 38 31 9 38 hhcurveto
          17 18 -2 -3 20 -42 callgsubr
          5 -65 callgsubr
          2 25 27 46 20 callgsubr
          7 -1 7 vhcurveto
          -9 58 -37 21 -2 1 -5 3 rcurveline
          -6 -3 rlineto
          -20 -42 -33 -9 -37 -7 callgsubr
          2 5 -22 hvcurveto
          -4 -78 callgsubr
          -3 -2 -3 -1 -3 -1 rlinecurve
          -27 -9 -14 -7 -26 -4 2 31 10 27 19 37 2 4 rcurveline
          -1 4 rlineto
          -5 23 -3 20 21 vvcurveto
          35 8 35 19 44 vhcurveto
          1 3 rlineto
          200 423 -106 callgsubr
          endchar
        </CharString>
        <CharString name="Ccaron">
          7 250 450 rmoveto
          -3 17 -2 15 14 -59 callgsubr
          9 1 10 vhcurveto
          16 -4 15 -5 19 -3 7 -49 callsubr
          21 18 3 18 hhcurveto
          30 29 -8 -16 -63 callsubr
          4 -23 callgsubr
          27 3 59 rlinecurve
          8 vlineto
          54 -27 25 -2 1 -75 callgsubr
          -6 -23 -20 -3 -20 hhcurveto
          -33 -30 9 17 -38 -64 callsubr
          -107 callsubr
          rlineto
          23 44 47 11 48 14 -83 callsubr
          rlineto
          18 38 31 9 38 hhcurveto
          17 18 -2 -3 20 -42 callgsubr
          5 -65 callgsubr
          2 25 27 46 20 callgsubr
          7 -1 7 vhcurveto
          -9 58 -37 21 -2 1 -5 3 rcurveline
          -6 -3 rlineto
          -20 -42 -33 -9 -37 -7 callgsubr
          2 5 -22 hvcurveto
          -4 -78 callgsubr
          -3 -2 -3 -1 -3 -1 rlinecurve
          -27 -9 -14 -7 -26 -4 2 31 10 27 19 37 2 4 rcurveline
          -1 4 rlineto
          -5 23 -3 20 21 vvcurveto
          35 8 35 19 44 vhcurveto
          1 3 rlineto
          216 459 rmoveto
          38 -36 34 -41 -33 callsubr
          -10 vhcurveto
          -5 -2 -1 -5 -11 -33 -15 -30 -19 -29 rlinecurve
          -15 26 -11 29 -10 32 -1 5 rcurveline
          -52 callgsubr
          7 -12 -14 4 -14 hhcurveto
          -38 -32 -27 -34 1 callsubr
          -7 39 -49 28 -56 17 -60 rlinecurve
          1 -4 4 -3 rlineto
          -6 10 12 -3 12 6 callgsubr
          1 3 9 hvcurveto
          -3 8 6 callsubr
          hhcurveto
          10 9 2 5 9 hvcurveto
          3 2 1 4 23 58 33 53 44 45 -36 callsubr
        </CharString>
        <CharString name="Ccedilla">
          7 250 450 rmoveto
          -3 17 -2 15 14 -59 callgsubr
          9 1 10 vhcurveto
          16 -4 15 -5 19 -3 7 -49 callsubr
          21 18 3 18 hhcurveto
          30 29 -8 -16 -63 callsubr
          4 -23 callgsubr
          27 3 59 rlinecurve
          8 vlineto
          54 -27 25 -2 1 -75 callgsubr
          -6 -23 -20 -3 -20 hhcurveto
          -33 -30 9 17 -38 -64 callsubr
          -107 callsubr
          42 22 45 11 47 1 rlinecurve
          -10 1 -9 -10 vvcurveto
          -90 callgsubr
          -66 callsubr
          -7 28 -4 29 27 vvcurveto
          16 0 14 3 16 vhcurveto
          4 16 17 2 18 hhcurveto
          17 18 -2 -3 20 -42 callgsubr
          5 -65 callgsubr
          2 25 27 46 20 callgsubr
          7 -1 7 vhcurveto
          -9 58 -37 21 -2 1 -5 3 rcurveline
          -6 -3 rlineto
          -20 -42 -33 -9 -37 -7 callgsubr
          2 5 -22 hvcurveto
          -4 -78 callgsubr
          -3 -2 -3 -1 -3 -1 rlinecurve
          -27 -9 -14 -7 -26 -4 2 31 10 27 19 37 2 4 rcurveline
          -1 4 rlineto
          -5 23 -3 20 21 vvcurveto
          35 8 35 19 44 vhcurveto
          1 3 rlineto
          endchar
        </CharString>
        <CharString name="Ccircumflex">
          7 250 450 rmoveto
          -3 17 -2 15 14 -59 callgsubr
          9 1 10 vhcurveto
          16 -4 15 -5 19 -3 7 -49 callsubr
          21 18 3 18 hhcurveto
          30 29 -8 -16 -63 callsubr
          4 -23 callgsubr
          27 3 59 rlinecurve
          8 vlineto
          54 -27 25 -2 1 -75 callgsubr
          -6 -23 -20 -3 -20 hhcurveto
          -33 -30 9 17 -38 -64 callsubr
          -107 callsubr
          rlineto
          23 44 47 11 48 14 -83 callsubr
          rlineto
          18 38 31 9 38 hhcurveto
          17 18 -2 -3 20 -42 callgsubr
          5 -65 callgsubr
          2 25 27 46 20 callgsubr
          7 -1 7 vhcurveto
          -9 58 -37 21 -2 1 -5 3 rcurveline
          -6 -3 rlineto
          -20 -42 -33 -9 -37 -7 callgsubr
          2 5 -22 hvcurveto
          -4 -78 callgsubr
          -3 -2 -3 -1 -3 -1 rlinecurve
          -27 -9 -14 -7 -26 -4 2 31 10 27 19 37 2 4 rcurveline
          -1 4 rlineto
          -5 23 -3 20 21 vvcurveto
          35 8 35 19 44 vhcurveto
          1 3 rlineto
          216 357 -105 callgsubr
        </CharString>
        <CharString name="Cdotaccent">
          7 250 450 rmoveto
          -3 17 -2 15 14 -59 callgsubr
          9 1 10 vhcurveto
          16 -4 15 -5 19 -3 7 -49 callsubr
          21 18 3 18 hhcurveto
          30 29 -8 -16 -63 callsubr
          4 -23 callgsubr
          27 3 59 rlinecurve
          8 vlineto
          54 -27 25 -2 1 -75 callgsubr
          -6 -23 -20 -3 -20 hhcurveto
          -33 -30 9 17 -38 -64 callsubr
          -107 callsubr
          rlineto
          23 44 47 11 48 14 -83 callsubr
          rlineto
          18 38 31 9 38 hhcurveto
          17 18 -2 -3 20 -42 callgsubr
          5 -65 callgsubr
          2 25 27 46 20 callgsubr
          7 -1 7 vhcurveto
          -9 58 -37 21 -2 1 -5 3 rcurveline
          -6 -3 rlineto
          -20 -42 -33 -9 -37 -7 callgsubr
          2 5 -22 hvcurveto
          -4 -78 callgsubr
          -3 -2 -3 -1 -3 -1 rlinecurve
          -27 -9 -14 -7 -26 -4 2 31 10 27 19 37 2 4 rcurveline
          -1 4 rlineto
          -5 23 -3 20 21 vvcurveto
          35 8 35 19 44 vhcurveto
          1 3 rlineto
          132 420 rmoveto
          13 -13 -25 7 -29 hhcurveto
          -35 -33 -11 -18 -20 hvcurveto
          -6 -6 4 -7 rlineto
          14 -24 6 -24 -24 vvcurveto
          -6 0 -5 -1 -6 -26 callgsubr
          6 -3 rlineto
          -9 13 20 -5 21 hhcurveto
          28 25 9 15 15 hvcurveto
          4 -67 callsubr
          8 0 8 9 vvcurveto
          21 4 22 9 23 vhcurveto
          3 -23 callsubr
        </CharString>
        <CharString name="D">
          12 530 -96 callgsubr
          rlineto
          10 -32 6 -34 5 callgsubr
          -31 -81 callsubr
          7 -30 -60 callgsubr
          -39 -87 callgsubr
          -5 -72 callsubr
          -2 20 -50 77 12 11 2 2 10 vhcurveto
          -15 22 21 -5 15 -68 callsubr
          27 60 60 60 52 31 rlinecurve
          14 callsubr
          28 54 42 43 59 32 rlinecurve
          6 3 1 7 rlineto
          -302 -23 rmoveto
          -11 31 -5 32 33 vvcurveto
          32 5 34 10 36 -71 callsubr
          -2 7 -2 6 -1 7 14 -16 13 -17 12 -16 5 -5 rcurveline
          38 -20 33 -27 27 -35 -28 -36 -35 -29 -42 -21 -34 callgsubr
          -7 -10 -16 -18 -14 -19 rlinecurve
          3 14 4 14 5 14 2 4 rcurveline
          endchar
        </CharString>
        <CharString name="Dcaron">
          12 530 -96 callgsubr
          rlineto
          10 -32 6 -34 5 callgsubr
          -31 -81 callsubr
          7 -30 -60 callgsubr
          -39 -87 callgsubr
          -5 -72 callsubr
          -2 20 -50 77 12 11 2 2 10 vhcurveto
          -15 22 21 -5 15 -68 callsubr
          27 60 60 60 52 31 rlinecurve
          14 callsubr
          28 54 42 43 59 32 rlinecurve
          6 3 1 7 rlineto
          -302 -23 rmoveto
          -11 31 -5 32 33 vvcurveto
          32 5 34 10 36 -71 callsubr
          -2 7 -2 6 -1 7 14 -16 13 -17 12 -16 5 -5 rcurveline
          38 -20 33 -27 27 -35 -28 -36 -35 -29 -42 -21 -34 callgsubr
          -7 -10 -16 -18 -14 -19 rlinecurve
          3 14 4 14 5 14 2 4 rcurveline
          185 677 rmoveto
          38 -36 34 -41 -33 callsubr
          -10 vhcurveto
          -5 -2 -1 -5 -11 -33 -15 -30 -19 -29 rlinecurve
          -15 26 -11 29 -10 32 -1 5 rcurveline
          -52 callgsubr
          7 -12 -14 4 -14 hhcurveto
          -38 -32 -27 -34 1 callsubr
          -7 39 -49 28 -56 17 -60 rlinecurve
          1 -4 4 -3 rlineto
          -6 10 12 -3 12 6 callgsubr
          1 3 9 hvcurveto
          -3 8 6 callsubr
          hhcurveto
          10 9 2 5 9 hvcurveto
          3 2 1 4 23 58 33 53 44 45 -36 callsubr
        </CharString>
        <CharString name="Dcroat">
          162 680 -96 callgsubr
          4 -12 4 -12 2 -12 rlinecurve
          -12 hlineto
          -53 -55 9 13 -34 -64 callsubr
          -5 12 callgsubr
          -1 -50 -17 -68 vvcurveto
          -67 -21 callgsubr
          1 rlineto
          8 27 35 4 37 hhcurveto
          18 19 -1 -2 19 hvcurveto
          -4 -16 7 callgsubr
          7 -30 -60 callgsubr
          -39 -87 callgsubr
          -5 -72 callsubr
          -2 20 -50 77 12 11 2 2 10 vhcurveto
          -15 22 21 -5 15 -68 callsubr
          27 60 60 60 52 31 rlinecurve
          14 callsubr
          28 54 42 43 59 32 rlinecurve
          6 3 1 7 rlineto
          -302 -23 rmoveto
          -11 31 -5 32 33 vvcurveto
          32 5 34 10 36 -71 callsubr
          -2 7 -2 6 -1 7 14 -16 13 -17 12 -16 5 -5 rcurveline
          38 -20 33 -27 27 -35 -28 -36 -35 -29 -42 -21 -34 callgsubr
          -7 -10 -16 -18 -14 -19 rlinecurve
          3 14 4 14 5 14 2 4 rcurveline
          endchar
        </CharString>
        <CharString name="E">
          -18 395 345 rmoveto
          58 -33 26 -2 -86 callgsubr
          -9 -29 -24 -4 -24 hhcurveto
          -18 -16 2 5 -19 hvcurveto
          2 12 2 11 4 12 -35 callgsubr
          -6 18 -7 callsubr
          rrcurveto
          25 25 -3 -5 27 hvcurveto
          7 -57 callsubr
          20 5 22 -58 callgsubr
          -7 31 hvcurveto
          7 -2 -85 callsubr
          1 1 32 29 -61 callsubr
          -4 58 -34 24 -2 -48 callgsubr
          -12 -33 -23 -6 -23 -30 callsubr
          5 10 -31 hvcurveto
          -5 -63 callgsubr
          -91 callsubr
          -29 -28 -68 callgsubr
          2 callsubr
          -93 callsubr
          10 -32 6 -34 5 callgsubr
          -31 -81 callsubr
          7 -30 -60 callgsubr
          -39 -87 callgsubr
          -5 -72 callsubr
          -2 20 -50 77 49 27 19 15 13 vhcurveto
          -9 callsubr
          -5 18 -3 -38 callgsubr
          6 24 17 -19 callsubr
          24 23 -6 -14 -63 callsubr
          3 1 2 39 28 1 58 rlinecurve
          59 -30 25 -2 -76 callgsubr
          -7 -27 -21 -4 -18 hhcurveto
          -27 -23 8 15 -37 -64 callsubr
          -4 -1 rlineto
          -1 -35 -3 -5 -21 hvcurveto
          -71 callgsubr
          2 4 rcurveline
          -2 4 -38 callsubr
          27 26 -6 -12 36 hvcurveto
          7 -2 -85 callsubr
          -23 callgsubr
          -30 callgsubr
          endchar
        </CharString>
        <CharString name="Eacute">
          -18 395 345 rmoveto
          58 -33 26 -2 -86 callgsubr
          -9 -29 -24 -4 -24 hhcurveto
          -18 -16 2 5 -19 hvcurveto
          2 12 2 11 4 12 -35 callgsubr
          -6 18 -7 callsubr
          rrcurveto
          25 25 -3 -5 27 hvcurveto
          7 -57 callsubr
          20 5 22 -58 callgsubr
          -7 31 hvcurveto
          7 -2 -85 callsubr
          1 1 32 29 -61 callsubr
          -4 58 -34 24 -2 -48 callgsubr
          -12 -33 -23 -6 -23 -30 callsubr
          5 10 -31 hvcurveto
          -5 -63 callgsubr
          -91 callsubr
          -29 -28 -68 callgsubr
          2 callsubr
          -93 callsubr
          10 -32 6 -34 5 callgsubr
          -31 -81 callsubr
          7 -30 -60 callgsubr
          -39 -87 callgsubr
          -5 -72 callsubr
          -2 20 -50 77 49 27 19 15 13 vhcurveto
          -9 callsubr
          -5 18 -3 -38 callgsubr
          6 24 17 -19 callsubr
          24 23 -6 -14 -63 callsubr
          3 1 2 39 28 1 58 rlinecurve
          59 -30 25 -2 -76 callgsubr
          -7 -27 -21 -4 -18 hhcurveto
          -27 -23 8 15 -37 -64 callsubr
          -4 -1 rlineto
          -1 -35 -3 -5 -21 hvcurveto
          -71 callgsubr
          2 4 rcurveline
          -2 4 -38 callsubr
          27 26 -6 -12 36 hvcurveto
          7 -2 -85 callsubr
          -23 callgsubr
          -30 callgsubr
          5 531 -106 callgsubr
          endchar
        </CharString>
        <CharString name="Ebreve">
          -18 395 345 rmoveto
          58 -33 26 -2 -86 callgsubr
          -9 -29 -24 -4 -24 hhcurveto
          -18 -16 2 5 -19 hvcurveto
          2 12 2 11 4 12 -35 callgsubr
          -6 18 -7 callsubr
          rrcurveto
          25 25 -3 -5 27 hvcurveto
          7 -57 callsubr
          20 5 22 -58 callgsubr
          -7 31 hvcurveto
          7 -2 -85 callsubr
          1 1 32 29 -61 callsubr
          -4 58 -34 24 -2 -48 callgsubr
          -12 -33 -23 -6 -23 -30 callsubr
          5 10 -31 hvcurveto
          -5 -63 callgsubr
          -91 callsubr
          -29 -28 -68 callgsubr
          2 callsubr
          -93 callsubr
          10 -32 6 -34 5 callgsubr
          -31 -81 callsubr
          7 -30 -60 callgsubr
          -39 -87 callgsubr
          -5 -72 callsubr
          -2 20 -50 77 49 27 19 15 13 vhcurveto
          -9 callsubr
          -5 18 -3 -38 callgsubr
          6 24 17 -19 callsubr
          24 23 -6 -14 -63 callsubr
          3 1 2 39 28 1 58 rlinecurve
          59 -30 25 -2 -76 callgsubr
          -7 -27 -21 -4 -18 hhcurveto
          -27 -23 8 15 -37 -64 callsubr
          -4 -1 rlineto
          -1 -35 -3 -5 -21 hvcurveto
          -71 callgsubr
          2 4 rcurveline
          -2 4 -38 callsubr
          27 26 -6 -12 36 hvcurveto
          7 -2 -85 callsubr
          -23 callgsubr
          -30 callgsubr
          37 576 rmoveto
          24 -12 -33 19 -34 hhcurveto
          -13 -13 -3 -7 -11 hvcurveto
          -5 33 callgsubr
          -1 -34 -6 -33 -11 -30 rlinecurve
          -1 -8 -9 0 -9 hhcurveto
          -11 -10 0 1 -10 hvcurveto
          -5 25 -2 26 28 vvcurveto
          23 vlineto
          31 callgsubr
          9 -12 -16 5 -19 hhcurveto
          -24 -32 -9 -26 -17 hvcurveto
          -3 -5 2 -6 rlineto
          22 -49 8 -48 -49 vvcurveto
          -1 -6 6 -4 10 -6 12 -4 13 -1 rlinecurve
          5 -6 6 -5 8 -4 7 -2 rcurveline
          2 15 16 2 15 hhcurveto
          30 30 -4 -8 32 hvcurveto
          5 -1 5 3 8 7 6 9 4 11 rlinecurve
          8 4 7 5 6 6 3 3 rcurveline
          3 vlineto
          5 45 14 43 24 44 3 18 callsubr
        </CharString>
        <CharString name="Ecaron">
          -18 395 345 rmoveto
          58 -33 26 -2 -86 callgsubr
          -9 -29 -24 -4 -24 hhcurveto
          -18 -16 2 5 -19 hvcurveto
          2 12 2 11 4 12 -35 callgsubr
          -6 18 -7 callsubr
          rrcurveto
          25 25 -3 -5 27 hvcurveto
          7 -57 callsubr
          20 5 22 -58 callgsubr
          -7 31 hvcurveto
          7 -2 -85 callsubr
          1 1 32 29 -61 callsubr
          -4 58 -34 24 -2 -48 callgsubr
          -12 -33 -23 -6 -23 -30 callsubr
          5 10 -31 hvcurveto
          -5 -63 callgsubr
          -91 callsubr
          -29 -28 -68 callgsubr
          2 callsubr
          -93 callsubr
          10 -32 6 -34 5 callgsubr
          -31 -81 callsubr
          7 -30 -60 callgsubr
          -39 -87 callgsubr
          -5 -72 callsubr
          -2 20 -50 77 49 27 19 15 13 vhcurveto
          -9 callsubr
          -5 18 -3 -38 callgsubr
          6 24 17 -19 callsubr
          24 23 -6 -14 -63 callsubr
          3 1 2 39 28 1 58 rlinecurve
          59 -30 25 -2 -76 callgsubr
          -7 -27 -21 -4 -18 hhcurveto
          -27 -23 8 15 -37 -64 callsubr
          -4 -1 rlineto
          -1 -35 -3 -5 -21 hvcurveto
          -71 callgsubr
          2 4 rcurveline
          -2 4 -38 callsubr
          27 26 -6 -12 36 hvcurveto
          7 -2 -85 callsubr
          -23 callgsubr
          -30 callgsubr
          31 558 rmoveto
          38 -36 34 -41 -33 callsubr
          -10 vhcurveto
          -5 -2 -1 -5 -11 -33 -15 -30 -19 -29 rlinecurve
          -15 26 -11 29 -10 32 -1 5 rcurveline
          -52 callgsubr
          7 -12 -14 4 -14 hhcurveto
          -38 -32 -27 -34 1 callsubr
          -7 39 -49 28 -56 17 -60 rlinecurve
          1 -4 4 -3 rlineto
          -6 10 12 -3 12 6 callgsubr
          1 3 9 hvcurveto
          -3 8 6 callsubr
          hhcurveto
          10 9 2 5 9 hvcurveto
          3 2 1 4 23 58 33 53 44 45 -36 callsubr
        </CharString>
        <CharString name="Ecircumflex">
          -18 395 345 rmoveto
          58 -33 26 -2 -86 callgsubr
          -9 -29 -24 -4 -24 hhcurveto
          -18 -16 2 5 -19 hvcurveto
          2 12 2 11 4 12 -35 callgsubr
          -6 18 -7 callsubr
          rrcurveto
          25 25 -3 -5 27 hvcurveto
          7 -57 callsubr
          20 5 22 -58 callgsubr
          -7 31 hvcurveto
          7 -2 -85 callsubr
          1 1 32 29 -61 callsubr
          -4 58 -34 24 -2 -48 callgsubr
          -12 -33 -23 -6 -23 -30 callsubr
          5 10 -31 hvcurveto
          -5 -63 callgsubr
          -91 callsubr
          -29 -28 -68 callgsubr
          2 callsubr
          -93 callsubr
          10 -32 6 -34 5 callgsubr
          -31 -81 callsubr
          7 -30 -60 callgsubr
          -39 -87 callgsubr
          -5 -72 callsubr
          -2 20 -50 77 49 27 19 15 13 vhcurveto
          -9 callsubr
          -5 18 -3 -38 callgsubr
          6 24 17 -19 callsubr
          24 23 -6 -14 -63 callsubr
          3 1 2 39 28 1 58 rlinecurve
          59 -30 25 -2 -76 callgsubr
          -7 -27 -21 -4 -18 hhcurveto
          -27 -23 8 15 -37 -64 callsubr
          -4 -1 rlineto
          -1 -35 -3 -5 -21 hvcurveto
          -71 callgsubr
          2 4 rcurveline
          -2 4 -38 callsubr
          27 26 -6 -12 36 hvcurveto
          7 -2 -85 callsubr
          -23 callgsubr
          -30 callgsubr
          14 469 -105 callgsubr
        </CharString>
        <CharString name="Edieresis">
          -18 395 345 rmoveto
          58 -33 26 -2 -86 callgsubr
          -9 -29 -24 -4 -24 hhcurveto
          -18 -16 2 5 -19 hvcurveto
          2 12 2 11 4 12 -35 callgsubr
          -6 18 -7 callsubr
          rrcurveto
          25 25 -3 -5 27 hvcurveto
          7 -57 callsubr
          20 5 22 -58 callgsubr
          -7 31 hvcurveto
          7 -2 -85 callsubr
          1 1 32 29 -61 callsubr
          -4 58 -34 24 -2 -48 callgsubr
          -12 -33 -23 -6 -23 -30 callsubr
          5 10 -31 hvcurveto
          -5 -63 callgsubr
          -91 callsubr
          -29 -28 -68 callgsubr
          2 callsubr
          -93 callsubr
          10 -32 6 -34 5 callgsubr
          -31 -81 callsubr
          7 -30 -60 callgsubr
          -39 -87 callgsubr
          -5 -72 callsubr
          -2 20 -50 77 49 27 19 15 13 vhcurveto
          -9 callsubr
          -5 18 -3 -38 callgsubr
          6 24 17 -19 callsubr
          24 23 -6 -14 -63 callsubr
          3 1 2 39 28 1 58 rlinecurve
          59 -30 25 -2 -76 callgsubr
          -7 -27 -21 -4 -18 hhcurveto
          -27 -23 8 15 -37 -64 callsubr
          -4 -1 rlineto
          -1 -35 -3 -5 -21 hvcurveto
          -71 callgsubr
          2 4 rcurveline
          -2 4 -38 callsubr
          27 26 -6 -12 36 hvcurveto
          7 -2 -85 callsubr
          -23 callgsubr
          -30 callgsubr
          32 532 rmoveto
          17 -21 -27 10 -29 hhcurveto
          -25 -26 -8 -15 -19 hvcurveto
          -6 -4 1 -7 rlineto
          5 -20 2 -21 -20 vvcurveto
          16 callgsubr
          -1 -9 vhcurveto
          -1 -6 5 -4 rlineto
          -14 19 24 -8 24 hhcurveto
          19 18 5 9 15 hvcurveto
          -44 callgsubr
          3 0 3 3 vvcurveto
          25 7 26 14 28 vhcurveto
          3 8 rlineto
          -190 14 rmoveto
          13 -13 -25 7 -29 hhcurveto
          -35 -33 -11 -18 -20 hvcurveto
          -6 -6 4 -7 rlineto
          14 -24 6 -24 -24 vvcurveto
          -6 0 -5 -1 -6 -26 callgsubr
          6 -3 rlineto
          -9 13 20 -5 21 hhcurveto
          28 25 9 15 15 hvcurveto
          4 -67 callsubr
          8 0 8 9 vvcurveto
          21 4 22 9 23 vhcurveto
          3 -23 callsubr
        </CharString>
        <CharString name="Edotaccent">
          -18 395 345 rmoveto
          58 -33 26 -2 -86 callgsubr
          -9 -29 -24 -4 -24 hhcurveto
          -18 -16 2 5 -19 hvcurveto
          2 12 2 11 4 12 -35 callgsubr
          -6 18 -7 callsubr
          rrcurveto
          25 25 -3 -5 27 hvcurveto
          7 -57 callsubr
          20 5 22 -58 callgsubr
          -7 31 hvcurveto
          7 -2 -85 callsubr
          1 1 32 29 -61 callsubr
          -4 58 -34 24 -2 -48 callgsubr
          -12 -33 -23 -6 -23 -30 callsubr
          5 10 -31 hvcurveto
          -5 -63 callgsubr
          -91 callsubr
          -29 -28 -68 callgsubr
          2 callsubr
          -93 callsubr
          10 -32 6 -34 5 callgsubr
          -31 -81 callsubr
          7 -30 -60 callgsubr
          -39 -87 callgsubr
          -5 -72 callsubr
          -2 20 -50 77 49 27 19 15 13 vhcurveto
          -9 callsubr
          -5 18 -3 -38 callgsubr
          6 24 17 -19 callsubr
          24 23 -6 -14 -63 callsubr
          3 1 2 39 28 1 58 rlinecurve
          59 -30 25 -2 -76 callgsubr
          -7 -27 -21 -4 -18 hhcurveto
          -27 -23 8 15 -37 -64 callsubr
          -4 -1 rlineto
          -1 -35 -3 -5 -21 hvcurveto
          -71 callgsubr
          2 4 rcurveline
          -2 4 -38 callsubr
          27 26 -6 -12 36 hvcurveto
          7 -2 -85 callsubr
          -23 callgsubr
          -30 callgsubr
          -73 540 rmoveto
          13 -13 -25 7 -29 hhcurveto
          -35 -33 -11 -18 -20 hvcurveto
          -6 -6 4 -7 rlineto
          14 -24 6 -24 -24 vvcurveto
          -6 0 -5 -1 -6 -26 callgsubr
          6 -3 rlineto
          -9 13 20 -5 21 hhcurveto
          28 25 9 15 15 hvcurveto
          4 -67 callsubr
          8 0 8 9 vvcurveto
          21 4 22 9 23 vhcurveto
          3 -23 callsubr
        </CharString>
        <CharString name="Egrave">
          -18 395 345 rmoveto
          58 -33 26 -2 -86 callgsubr
          -9 -29 -24 -4 -24 hhcurveto
          -18 -16 2 5 -19 hvcurveto
          2 12 2 11 4 12 -35 callgsubr
          -6 18 -7 callsubr
          rrcurveto
          25 25 -3 -5 27 hvcurveto
          7 -57 callsubr
          20 5 22 -58 callgsubr
          -7 31 hvcurveto
          7 -2 -85 callsubr
          1 1 32 29 -61 callsubr
          -4 58 -34 24 -2 -48 callgsubr
          -12 -33 -23 -6 -23 -30 callsubr
          5 10 -31 hvcurveto
          -5 -63 callgsubr
          -91 callsubr
          -29 -28 -68 callgsubr
          2 callsubr
          -93 callsubr
          10 -32 6 -34 5 callgsubr
          -31 -81 callsubr
          7 -30 -60 callgsubr
          -39 -87 callgsubr
          -5 -72 callsubr
          -2 20 -50 77 49 27 19 15 13 vhcurveto
          -9 callsubr
          -5 18 -3 -38 callgsubr
          6 24 17 -19 callsubr
          24 23 -6 -14 -63 callsubr
          3 1 2 39 28 1 58 rlinecurve
          59 -30 25 -2 -76 callgsubr
          -7 -27 -21 -4 -18 hhcurveto
          -27 -23 8 15 -37 -64 callsubr
          -4 -1 rlineto
          -1 -35 -3 -5 -21 hvcurveto
          -71 callgsubr
          2 4 rcurveline
          -2 4 -38 callsubr
          27 26 -6 -12 36 hvcurveto
          7 -2 -85 callsubr
          -23 callgsubr
          -30 callgsubr
          -78 455 -102 callsubr
        </CharString>
        <CharString name="Emacron">
          -18 395 345 rmoveto
          58 -33 26 -2 -86 callgsubr
          -9 -29 -24 -4 -24 hhcurveto
          -18 -16 2 5 -19 hvcurveto
          2 12 2 11 4 12 -35 callgsubr
          -6 18 -7 callsubr
          rrcurveto
          25 25 -3 -5 27 hvcurveto
          7 -57 callsubr
          20 5 22 -58 callgsubr
          -7 31 hvcurveto
          7 -2 -85 callsubr
          1 1 32 29 -61 callsubr
          -4 58 -34 24 -2 -48 callgsubr
          -12 -33 -23 -6 -23 -30 callsubr
          5 10 -31 hvcurveto
          -5 -63 callgsubr
          -91 callsubr
          -29 -28 -68 callgsubr
          2 callsubr
          -93 callsubr
          10 -32 6 -34 5 callgsubr
          -31 -81 callsubr
          7 -30 -60 callgsubr
          -39 -87 callgsubr
          -5 -72 callsubr
          -2 20 -50 77 49 27 19 15 13 vhcurveto
          -9 callsubr
          -5 18 -3 -38 callgsubr
          6 24 17 -19 callsubr
          24 23 -6 -14 -63 callsubr
          3 1 2 39 28 1 58 rlinecurve
          59 -30 25 -2 -76 callgsubr
          -7 -27 -21 -4 -18 hhcurveto
          -27 -23 8 15 -37 -64 callsubr
          -4 -1 rlineto
          -1 -35 -3 -5 -21 hvcurveto
          -71 callgsubr
          2 4 rcurveline
          -2 4 -38 callsubr
          27 26 -6 -12 36 hvcurveto
          7 -2 -85 callsubr
          -23 callgsubr
          -30 callgsubr
          -15 456 -101 callsubr
        </CharString>
        <CharString name="Eng">
          87 564 637 rmoveto
          2 -1 -31 44 -61 hhcurveto
          -61 -27 -38 -84 callgsubr
          -4 -6 2 -7 19 -75 -2 -72 -26 -74 rlinecurve
          -1 22 callgsubr
          7 -31 -20 35 -13 40 -7 46 rlinecurve
          3 vlineto
          -3 3 -40 46 -23 55 -7 68 rlinecurve
          -1 6 -6 3 -1 1 -21 10 -31 -1 rlinecurve
          9 -16 23 callsubr
          20 -65 -3 -63 -25 -64 rlinecurve
          -2 -4 1 -4 20 -62 1 -65 -18 -68 rlinecurve
          -1 -3 1 -3 17 -72 -4 -65 -25 -61 rlinecurve
          -2 -4 -70 callsubr
          -2 20 -49 77 77 22 46 -41 callgsubr
          -23 67 0 68 24 66 rlinecurve
          8 callgsubr
          1 -3 rcurveline
          1 -2 46 -59 24 -60 3 -66 rlinecurve
          -5 vlineto
          4 -3 rlineto
          -2 17 -14 29 -3 vhcurveto
          -2 -17 -4 -17 -5 -16 -20 -5 -24 -1 -32 3 -4 18 callgsubr
          -3 -8 -5 -47 -22 -37 -12 -56 5 rlinecurve
          -16 callgsubr
          -1 -2 -43 -31 21 -72 rlinecurve
          20 -71 50 -7 2 -1 rrcurveto
          5 hlineto
          4 2 50 34 31 9 58 2 rlinecurve
          5 5 1 5 hhcurveto
          4 hlineto
          3 2 52 32 15 3 68 -3 rlinecurve
          6 hlineto
          4 5 rlineto
          2 16 22 2 33 vhcurveto
          36 15 12 28 1 2 2 5 rcurveline
          -1 5 -24 78 1 77 24 77 rlinecurve
          1 4 -1 5 -21 70 -1 75 21 83 rlinecurve
          1 21 callgsubr
          -18 67 3 69 22 74 rlinecurve
          2 -23 callsubr
        </CharString>
        <CharString name="Eogonek">
          -18 395 345 rmoveto
          58 -33 26 -2 -86 callgsubr
          -9 -29 -24 -4 -24 hhcurveto
          -18 -16 2 5 -19 hvcurveto
          2 12 2 11 4 12 -35 callgsubr
          -6 18 -7 callsubr
          rrcurveto
          25 25 -3 -5 27 hvcurveto
          7 -57 callsubr
          20 5 22 -58 callgsubr
          -7 31 hvcurveto
          7 -2 -85 callsubr
          1 1 32 29 -61 callsubr
          -4 58 -34 24 -2 -48 callgsubr
          -12 -33 -23 -6 -23 -30 callsubr
          5 10 -31 hvcurveto
          -5 -63 callgsubr
          -91 callsubr
          -29 -28 -68 callgsubr
          2 callsubr
          -93 callsubr
          10 -32 6 -34 5 callgsubr
          -31 -81 callsubr
          7 -30 -60 callgsubr
          -39 -87 callgsubr
          -5 -72 callsubr
          -2 20 -50 77 49 27 19 15 13 vhcurveto
          -9 callsubr
          -5 18 -3 -38 callgsubr
          15 3 -10 -26 -13 -24 -15 -23 rlinecurve
          -4 -5 -98 callsubr
          7 20 9 20 12 18 4 -1 3 -2 5 -1 6 -2 rcurveline
          6 3 1 2 39 28 1 58 rlinecurve
          59 -30 25 -2 -76 callgsubr
          -7 -27 -21 -4 -18 hhcurveto
          -27 -23 8 15 -37 -64 callsubr
          -4 -1 rlineto
          -1 -35 -3 -5 -21 hvcurveto
          -71 callgsubr
          2 4 rcurveline
          -5 10 rlineto
          2 10 10 -29 callgsubr
          27 26 -6 -12 36 hvcurveto
          7 -2 -85 callsubr
          -23 callgsubr
          -30 callgsubr
          endchar
        </CharString>
        <CharString name="Eth">
          162 680 -96 callgsubr
          4 -12 4 -12 2 -12 rlinecurve
          -12 hlineto
          -53 -55 9 13 -34 -64 callsubr
          -5 12 callgsubr
          -1 -50 -17 -68 vvcurveto
          -67 -21 callgsubr
          1 rlineto
          8 27 35 4 37 hhcurveto
          18 19 -1 -2 19 hvcurveto
          -4 -16 7 callgsubr
          7 -30 -60 callgsubr
          -39 -87 callgsubr
          -5 -72 callsubr
          -2 20 -50 77 12 11 2 2 10 vhcurveto
          -15 22 21 -5 15 -68 callsubr
          27 60 60 60 52 31 rlinecurve
          14 callsubr
          28 54 42 43 59 32 rlinecurve
          6 3 1 7 rlineto
          -302 -23 rmoveto
          -11 31 -5 32 33 vvcurveto
          32 5 34 10 36 -71 callsubr
          -2 7 -2 6 -1 7 14 -16 13 -17 12 -16 5 -5 rcurveline
          38 -20 33 -27 27 -35 -28 -36 -35 -29 -42 -21 -34 callgsubr
          -7 -10 -16 -18 -14 -19 rlinecurve
          3 14 4 14 5 14 2 4 rcurveline
          endchar
        </CharString>
        <CharString name="Euro">
          183 392 450 rmoveto
          -3 17 -2 15 14 -59 callgsubr
          9 1 10 vhcurveto
          16 -4 15 -5 19 -3 6 -49 callsubr
          21 19 -19 callsubr
          31 29 -8 -16 -63 callsubr
          4 -23 callgsubr
          27 3 59 rlinecurve
          8 vlineto
          54 -27 25 -2 1 -75 callgsubr
          -6 -23 -20 -3 -20 hhcurveto
          -33 -30 9 17 -38 -64 callsubr
          -4 -50 callgsubr
          -17 -23 1 -16 hhcurveto
          -38 -34 7 17 -34 -64 callsubr
          -5 -18 callgsubr
          -52 -17 -84 -31 8 -22 10 -13 hvcurveto
          -3 -14 -5 -14 -6 -15 -28 4 -26 6 -19 7 -4 -3 callgsubr
          -18 callgsubr
          -50 -17 -68 -67 46 -20 2 hvcurveto
          -66 callgsubr
          1 18 5 22 4 23 1 rlinecurve
          -2 -11 -2 -11 -4 -12 -45 2 -45 8 -29 11 -4 -3 callgsubr
          12 callgsubr
          -1 -50 -17 -68 vvcurveto
          -67 -21 callgsubr
          1 rlineto
          8 26 34 4 35 hhcurveto
          10 hlineto
          -5 -21 -10 -21 -14 -25 -2 -4 rcurveline
          11 callgsubr
          -2 8 -30 38 -19 vhcurveto
          13 -67 46 -12 2 -1 5 -49 callsubr
          2 rlineto
          23 44 47 11 48 14 -83 callsubr
          rlineto
          18 38 31 9 38 hhcurveto
          17 18 -2 -3 20 -42 callgsubr
          5 -65 callgsubr
          2 25 27 46 20 callgsubr
          7 -1 7 vhcurveto
          -9 58 -37 21 -2 1 -5 3 rcurveline
          -6 -3 rlineto
          -20 -42 -33 -9 -37 -7 callgsubr
          2 5 -22 hvcurveto
          -4 -78 callgsubr
          -3 -2 -3 -1 -3 -1 rlinecurve
          -27 -9 -14 -7 -26 -4 2 31 10 27 19 37 1 8 rcurveline
          -5 23 -3 20 21 vvcurveto
          35 8 35 19 44 vhcurveto
          1 3 rlineto
          endchar
        </CharString>
        <CharString name="F">
          -33 -101 callgsubr
          endchar
        </CharString>
        <CharString name="G">
          49 250 450 rmoveto
          -3 17 -2 15 14 -59 callgsubr
          9 1 10 vhcurveto
          16 -4 15 -5 19 -3 7 -49 callsubr
          21 18 3 18 hhcurveto
          30 29 -8 -16 -63 callsubr
          4 -23 callgsubr
          27 3 59 rlinecurve
          8 vlineto
          54 -27 25 -2 1 -75 callgsubr
          -6 -23 -20 -3 -20 hhcurveto
          -33 -30 9 17 -38 -64 callsubr
          -107 callsubr
          rlineto
          23 44 47 11 48 14 -83 callsubr
          18 8 17 7 17 5 rlinecurve
          -12 11 22 -17 42 hhcurveto
          86 20 54 -24 callsubr
          1 5 -69 callsubr
          -15 34 -6 27 29 vvcurveto
          19 2 22 5 25 -71 callsubr
          -12 30 -6 22 24 vvcurveto
          20 4 22 7 28 16 callsubr
          -4 4 rlineto
          2 -2 -28 28 -51 hhcurveto
          -67 -28 -40 -1 hvcurveto
          -3 -5 2 -6 rlineto
          13 -33 6 -24 -25 vvcurveto
          -22 -4 -22 -9 -28 2 callgsubr
          2 -7 2 -6 1 -6 rrcurveto
          -19 hlineto
          -18 -19 2 5 -21 hvcurveto
          -4 -78 callgsubr
          -3 -2 -3 -1 -3 -1 rlinecurve
          -27 -9 -14 -7 -26 -4 2 31 10 27 19 37 2 4 rcurveline
          -1 4 rlineto
          -5 23 -3 20 21 vvcurveto
          35 8 35 19 44 vhcurveto
          1 3 rlineto
          endchar
        </CharString>
        <CharString name="Gbreve">
          49 250 450 rmoveto
          -3 17 -2 15 14 -59 callgsubr
          9 1 10 vhcurveto
          16 -4 15 -5 19 -3 7 -49 callsubr
          21 18 3 18 hhcurveto
          30 29 -8 -16 -63 callsubr
          4 -23 callgsubr
          27 3 59 rlinecurve
          8 vlineto
          54 -27 25 -2 1 -75 callgsubr
          -6 -23 -20 -3 -20 hhcurveto
          -33 -30 9 17 -38 -64 callsubr
          -107 callsubr
          rlineto
          23 44 47 11 48 14 -83 callsubr
          18 8 17 7 17 5 rlinecurve
          -12 11 22 -17 42 hhcurveto
          86 20 54 -24 callsubr
          1 5 -69 callsubr
          -15 34 -6 27 29 vvcurveto
          19 2 22 5 25 -71 callsubr
          -12 30 -6 22 24 vvcurveto
          20 4 22 7 28 16 callsubr
          -4 4 rlineto
          2 -2 -28 28 -51 hhcurveto
          -67 -28 -40 -1 hvcurveto
          -3 -5 2 -6 rlineto
          13 -33 6 -24 -25 vvcurveto
          -22 -4 -22 -9 -28 2 callgsubr
          2 -7 2 -6 1 -6 rrcurveto
          -19 hlineto
          -18 -19 2 5 -21 hvcurveto
          -4 -78 callgsubr
          -3 -2 -3 -1 -3 -1 rlinecurve
          -27 -9 -14 -7 -26 -4 2 31 10 27 19 37 2 4 rcurveline
          -1 4 rlineto
          -5 23 -3 20 21 vvcurveto
          35 8 35 19 44 vhcurveto
          1 3 rlineto
          213 470 rmoveto
          24 -12 -33 19 -34 hhcurveto
          -13 -13 -3 -7 -11 hvcurveto
          -5 33 callgsubr
          -1 -34 -6 -33 -11 -30 rlinecurve
          -1 -8 -9 0 -9 hhcurveto
          -11 -10 0 1 -10 hvcurveto
          -5 25 -2 26 28 vvcurveto
          23 vlineto
          31 callgsubr
          9 -12 -16 5 -19 hhcurveto
          -24 -32 -9 -26 -17 hvcurveto
          -3 -5 2 -6 rlineto
          22 -49 8 -48 -49 vvcurveto
          -1 -6 6 -4 10 -6 12 -4 13 -1 rlinecurve
          5 -6 6 -5 8 -4 7 -2 rcurveline
          2 15 16 2 15 hhcurveto
          30 30 -4 -8 32 hvcurveto
          5 -1 5 3 8 7 6 9 4 11 rlinecurve
          8 4 7 5 6 6 3 3 rcurveline
          3 vlineto
          5 45 14 43 24 44 3 18 callsubr
        </CharString>
        <CharString name="Gcircumflex">
          49 250 450 rmoveto
          -3 17 -2 15 14 -59 callgsubr
          9 1 10 vhcurveto
          16 -4 15 -5 19 -3 7 -49 callsubr
          21 18 3 18 hhcurveto
          30 29 -8 -16 -63 callsubr
          4 -23 callgsubr
          27 3 59 rlinecurve
          8 vlineto
          54 -27 25 -2 1 -75 callgsubr
          -6 -23 -20 -3 -20 hhcurveto
          -33 -30 9 17 -38 -64 callsubr
          -107 callsubr
          rlineto
          23 44 47 11 48 14 -83 callsubr
          18 8 17 7 17 5 rlinecurve
          -12 11 22 -17 42 hhcurveto
          86 20 54 -24 callsubr
          1 5 -69 callsubr
          -15 34 -6 27 29 vvcurveto
          19 2 22 5 25 -71 callsubr
          -12 30 -6 22 24 vvcurveto
          20 4 22 7 28 16 callsubr
          -4 4 rlineto
          2 -2 -28 28 -51 hhcurveto
          -67 -28 -40 -1 hvcurveto
          -3 -5 2 -6 rlineto
          13 -33 6 -24 -25 vvcurveto
          -22 -4 -22 -9 -28 2 callgsubr
          2 -7 2 -6 1 -6 rrcurveto
          -19 hlineto
          -18 -19 2 5 -21 hvcurveto
          -4 -78 callgsubr
          -3 -2 -3 -1 -3 -1 rlinecurve
          -27 -9 -14 -7 -26 -4 2 31 10 27 19 37 2 4 rcurveline
          -1 4 rlineto
          -5 23 -3 20 21 vvcurveto
          35 8 35 19 44 vhcurveto
          1 3 rlineto
          205 354 -105 callgsubr
        </CharString>
        <CharString name="Gcommaaccent">
          49 250 450 rmoveto
          -3 17 -2 15 14 -59 callgsubr
          9 1 10 vhcurveto
          16 -4 15 -5 19 -3 7 -49 callsubr
          21 18 3 18 hhcurveto
          30 29 -8 -16 -63 callsubr
          4 -23 callgsubr
          27 3 59 rlinecurve
          8 vlineto
          54 -27 25 -2 1 -75 callgsubr
          -6 -23 -20 -3 -20 hhcurveto
          -33 -30 9 17 -38 -64 callsubr
          -107 callsubr
          rlineto
          23 44 47 11 48 14 -83 callsubr
          18 8 17 7 17 5 rlinecurve
          -12 11 22 -17 42 hhcurveto
          86 20 54 -24 callsubr
          1 5 -69 callsubr
          -15 34 -6 27 29 vvcurveto
          19 2 22 5 25 -71 callsubr
          -12 30 -6 22 24 vvcurveto
          20 4 22 7 28 16 callsubr
          -4 4 rlineto
          2 -2 -28 28 -51 hhcurveto
          -67 -28 -40 -1 hvcurveto
          -3 -5 2 -6 rlineto
          13 -33 6 -24 -25 vvcurveto
          -22 -4 -22 -9 -28 2 callgsubr
          2 -7 2 -6 1 -6 rrcurveto
          -19 hlineto
          -18 -19 2 5 -21 hvcurveto
          -4 -78 callgsubr
          -3 -2 -3 -1 -3 -1 rlinecurve
          -27 -9 -14 -7 -26 -4 2 31 10 27 19 37 2 4 rcurveline
          -1 4 rlineto
          -5 23 -3 20 21 vvcurveto
          35 8 35 19 44 vhcurveto
          1 3 rlineto
          102 -554 -106 callgsubr
          endchar
        </CharString>
        <CharString name="Gdotaccent">
          49 250 450 rmoveto
          -3 17 -2 15 14 -59 callgsubr
          9 1 10 vhcurveto
          16 -4 15 -5 19 -3 7 -49 callsubr
          21 18 3 18 hhcurveto
          30 29 -8 -16 -63 callsubr
          4 -23 callgsubr
          27 3 59 rlinecurve
          8 vlineto
          54 -27 25 -2 1 -75 callgsubr
          -6 -23 -20 -3 -20 hhcurveto
          -33 -30 9 17 -38 -64 callsubr
          -107 callsubr
          rlineto
          23 44 47 11 48 14 -83 callsubr
          18 8 17 7 17 5 rlinecurve
          -12 11 22 -17 42 hhcurveto
          86 20 54 -24 callsubr
          1 5 -69 callsubr
          -15 34 -6 27 29 vvcurveto
          19 2 22 5 25 -71 callsubr
          -12 30 -6 22 24 vvcurveto
          20 4 22 7 28 16 callsubr
          -4 4 rlineto
          2 -2 -28 28 -51 hhcurveto
          -67 -28 -40 -1 hvcurveto
          -3 -5 2 -6 rlineto
          13 -33 6 -24 -25 vvcurveto
          -22 -4 -22 -9 -28 2 callgsubr
          2 -7 2 -6 1 -6 rrcurveto
          -19 hlineto
          -18 -19 2 5 -21 hvcurveto
          -4 -78 callgsubr
          -3 -2 -3 -1 -3 -1 rlinecurve
          -27 -9 -14 -7 -26 -4 2 31 10 27 19 37 2 4 rcurveline
          -1 4 rlineto
          -5 23 -3 20 21 vvcurveto
          35 8 35 19 44 vhcurveto
          1 3 rlineto
          135 423 rmoveto
          13 -13 -25 7 -29 hhcurveto
          -35 -33 -11 -18 -20 hvcurveto
          -6 -6 4 -7 rlineto
          14 -24 6 -24 -24 vvcurveto
          -6 0 -5 -1 -6 -26 callgsubr
          6 -3 rlineto
          -9 13 20 -5 21 hhcurveto
          28 25 9 15 15 hvcurveto
          4 -67 callsubr
          8 0 8 9 vvcurveto
          21 4 22 9 23 vhcurveto
          3 -23 callsubr
        </CharString>
        <CharString name="H">
          104 608 311 rmoveto
          -10 57 -44 14 -2 1 -5 2 rcurveline
          -4 -4 -4 -3 -4 -3 1 31 7 25 8 23 -6 callgsubr
          25 -3 26 26 vvcurveto
          37 6 38 14 39 16 callsubr
          -5 -53 callsubr
          -37 43 -66 hhcurveto
          -67 -26 -44 -84 callgsubr
          -3 -5 30 callsubr
          13 -33 6 -33 -34 vvcurveto
          -29 -5 -30 -10 -30 2 callgsubr
          8 -29 6 -35 -36 vvcurveto
          -12 -1 -13 -1 -12 vhcurveto
          -22 -42 -38 -5 -24 hhcurveto
          -16 -9 2 0 hvcurveto
          -7 -1 -16 -9 rlineto
          -7 34 -3 29 28 vvcurveto
          30 4 28 9 31 -78 callsubr
          34 6 34 21 callsubr
          3 14 callgsubr
          -54 callsubr
          38 -62 hhcurveto
          -61 -27 -33 -84 callgsubr
          -4 -5 -103 callgsubr
          -31 -5 -31 -104 callsubr
          -2 20 -49 77 77 22 46 -41 callgsubr
          -5 11 -6 26 -3 33 rlinecurve
          18 21 1 13 hhcurveto
          6 2 23 13 40 18 39 8 rlinecurve
          -2 -36 -8 -43 -12 -32 -2 -5 rcurveline
          -21 callsubr
          -44 71 hhcurveto
          71 26 49 3 1 hvcurveto
          10 callgsubr
          -8 31 -6 38 37 vvcurveto
          13 0 14 2 13 vhcurveto
          1 5 5 0 5 hhcurveto
          13 11 -1 -1 10 hvcurveto
          4 7 rlineto
          1 2 17 35 39 vvcurveto
          -2 callgsubr
          -1 8 vhcurveto
          endchar
        </CharString>
        <CharString name="Hbar">
          198 420 651 rmoveto
          10 -27 6 -26 2 -26 rrcurveto
          -5 -21 -22 -1 -22 hhcurveto
          -30 -31 4 8 -31 hvcurveto
          -4 hlineto
          3 24 5 24 9 26 -11 callgsubr
          5 callsubr
          -26 1 -26 rlinecurve
          -12 3 -12 4 -11 5 rrcurveto
          4 callsubr
          -47 -17 -71 vvcurveto
          -70 44 -20 2 -1 vhcurveto
          9 hlineto
          9 3 8 1 9 2 rrcurveto
          4 -19 2 -20 -20 vvcurveto
          -31 -5 -31 -104 callsubr
          -2 20 -49 77 77 22 46 -41 callgsubr
          -5 11 -6 26 -3 33 rlinecurve
          18 21 1 13 hhcurveto
          6 2 23 13 40 18 39 8 rlinecurve
          -2 -36 -8 -43 -12 -32 -2 -5 rcurveline
          -21 callsubr
          -44 71 hhcurveto
          71 26 49 3 1 hvcurveto
          10 callgsubr
          -8 31 -6 38 37 vvcurveto
          13 0 14 2 13 vhcurveto
          1 5 5 0 5 hhcurveto
          13 11 -1 -1 10 hvcurveto
          4 7 rlineto
          1 2 17 35 39 vvcurveto
          -2 callgsubr
          -1 8 vhcurveto
          -10 57 -44 14 -2 1 -5 2 rcurveline
          -4 -4 -4 -3 -4 -3 rrcurveto
          15 2 13 3 13 vhcurveto
          18 -3 18 -5 19 -6 6 -2 rcurveline
          -85 callsubr
          2 1 36 28 56 vvcurveto
          56 -32 24 -1 24 callsubr
          -20 -6 -19 -4 -20 -1 rlinecurve
          2 29 6 31 12 31 2 6 rcurveline
          -5 -53 callsubr
          -37 43 -66 hhcurveto
          -67 -26 -44 -84 callgsubr
          -3 -5 30 callsubr
          endchar
        </CharString>
        <CharString name="Hcircumflex">
          104 608 311 rmoveto
          -10 57 -44 14 -2 1 -5 2 rcurveline
          -4 -4 -4 -3 -4 -3 1 31 7 25 8 23 -6 callgsubr
          25 -3 26 26 vvcurveto
          37 6 38 14 39 16 callsubr
          -5 -53 callsubr
          -37 43 -66 hhcurveto
          -67 -26 -44 -84 callgsubr
          -3 -5 30 callsubr
          13 -33 6 -33 -34 vvcurveto
          -29 -5 -30 -10 -30 2 callgsubr
          8 -29 6 -35 -36 vvcurveto
          -12 -1 -13 -1 -12 vhcurveto
          -22 -42 -38 -5 -24 hhcurveto
          -16 -9 2 0 hvcurveto
          -7 -1 -16 -9 rlineto
          -7 34 -3 29 28 vvcurveto
          30 4 28 9 31 -78 callsubr
          34 6 34 21 callsubr
          3 14 callgsubr
          -54 callsubr
          38 -62 hhcurveto
          -61 -27 -33 -84 callgsubr
          -4 -5 -103 callgsubr
          -31 -5 -31 -104 callsubr
          -2 20 -49 77 77 22 46 -41 callgsubr
          -5 11 -6 26 -3 33 rlinecurve
          18 21 1 13 hhcurveto
          6 2 23 13 40 18 39 8 rlinecurve
          -2 -36 -8 -43 -12 -32 -2 -5 rcurveline
          -21 callsubr
          -44 71 hhcurveto
          71 26 49 3 1 hvcurveto
          10 callgsubr
          -8 31 -6 38 37 vvcurveto
          13 0 14 2 13 vhcurveto
          1 5 5 0 5 hhcurveto
          13 11 -1 -1 10 hvcurveto
          4 7 rlineto
          1 2 17 35 39 vvcurveto
          -2 callgsubr
          -1 8 vhcurveto
          -151 497 -105 callgsubr
        </CharString>
        <CharString name="I">
          232 663 -106 callsubr
          endchar
        </CharString>
        <CharString name="IJ">
          243 232 663 -106 callsubr
          482 4 rmoveto
          -54 callsubr
          38 -62 hhcurveto
          -61 -27 -33 -84 callgsubr
          -4 -5 -91 callsubr
          -29 -28 -68 callgsubr
          2 callsubr
          -93 callsubr
          10 -32 6 -34 5 callgsubr
          -31 -81 callsubr
          6 -30 3 -29 -27 vvcurveto
          -3 vlineto
          -13 18 -11 20 -15 26 -4 5 rcurveline
          -52 33 -24 26 -27 62 -2 6 rcurveline
          -7 -2 callsubr
          -5 1 -8 hhcurveto
          -17 -32 -5 -27 -30 hvcurveto
          -43 -39 2 -40 -4 vvcurveto
          1 -7 5 -3 58 -36 25 -29 25 -64 rlinecurve
          1 -4 4 -2 54 -36 24 -38 19 -53 rlinecurve
          2 -5 4 -2 rlineto
          -1 1 12 -6 18 hhcurveto
          20 25 7 25 28 hvcurveto
          1 2 2 1 1 1 rrcurveto
          -2 10 12 -2 13 hhcurveto
          28 callgsubr
          hvcurveto
          2 4 -1 5 rlineto
          -12 33 -5 -45 callsubr
          34 -31 callgsubr
          -100 callgsubr
          33 6 35 -79 callsubr
          endchar
        </CharString>
        <CharString name="Iacute">
          232 663 -106 callsubr
          63 225 -106 callgsubr
          endchar
        </CharString>
        <CharString name="Ibreve">
          232 663 -106 callsubr
          74 265 rmoveto
          24 -12 -33 19 -34 hhcurveto
          -13 -13 -3 -7 -11 hvcurveto
          -5 33 callgsubr
          -1 -34 -6 -33 -11 -30 rlinecurve
          -1 -8 -9 0 -9 hhcurveto
          -11 -10 0 1 -10 hvcurveto
          -5 25 -2 26 28 vvcurveto
          23 vlineto
          31 callgsubr
          9 -12 -16 5 -19 hhcurveto
          -24 -32 -9 -26 -17 hvcurveto
          -3 -5 2 -6 rlineto
          22 -49 8 -48 -49 vvcurveto
          -1 -6 6 -4 10 -6 12 -4 13 -1 rlinecurve
          5 -6 6 -5 8 -4 7 -2 rcurveline
          2 15 16 2 15 hhcurveto
          30 30 -4 -8 32 hvcurveto
          5 -1 5 3 8 7 6 9 4 11 rlinecurve
          8 4 7 5 6 6 3 3 rcurveline
          3 vlineto
          5 45 14 43 24 44 3 18 callsubr
        </CharString>
        <CharString name="Icircumflex">
          232 663 -106 callsubr
          63 158 -105 callgsubr
        </CharString>
        <CharString name="Idieresis">
          232 663 -106 callsubr
          72 207 rmoveto
          17 -21 -27 10 -29 hhcurveto
          -25 -26 -8 -15 -19 hvcurveto
          -6 -4 1 -7 rlineto
          5 -20 2 -21 -20 vvcurveto
          16 callgsubr
          -1 -9 vhcurveto
          -1 -6 5 -4 rlineto
          -14 19 24 -8 24 hhcurveto
          19 18 5 9 15 hvcurveto
          -44 callgsubr
          3 0 3 3 vvcurveto
          25 7 26 14 28 vhcurveto
          3 8 rlineto
          -190 14 rmoveto
          13 -13 -25 7 -29 hhcurveto
          -35 -33 -11 -18 -20 hvcurveto
          -6 -6 4 -7 rlineto
          14 -24 6 -24 -24 vvcurveto
          -6 0 -5 -1 -6 -26 callgsubr
          6 -3 rlineto
          -9 13 20 -5 21 hhcurveto
          28 25 9 15 15 hvcurveto
          4 -67 callsubr
          8 0 8 9 vvcurveto
          21 4 22 9 23 vhcurveto
          3 -23 callsubr
        </CharString>
        <CharString name="Idotaccent">
          232 663 -106 callsubr
          -27 227 rmoveto
          13 -13 -25 7 -29 hhcurveto
          -35 -33 -11 -18 -20 hvcurveto
          -6 -6 4 -7 rlineto
          14 -24 6 -24 -24 vvcurveto
          -6 0 -5 -1 -6 -26 callgsubr
          6 -3 rlineto
          -9 13 20 -5 21 hhcurveto
          28 25 9 15 15 hvcurveto
          4 -67 callsubr
          8 0 8 9 vvcurveto
          21 4 22 9 23 vhcurveto
          3 -23 callsubr
        </CharString>
        <CharString name="Igrave">
          232 663 -106 callsubr
          -61 138 -102 callsubr
        </CharString>
        <CharString name="Imacron">
          232 663 -106 callsubr
          34 134 -101 callsubr
        </CharString>
        <CharString name="Iogonek">
          -92 callgsubr
        </CharString>
        <CharString name="Itilde">
          232 663 -106 callsubr
          122 254 rmoveto
          36 -2 -35 32 -40 hhcurveto
          -12 -12 -3 -5 -9 hvcurveto
          -5 -2 -1 -5 -9 -33 -14 -31 -17 -30 rlinecurve
          -16 26 -13 29 -11 31 -5 6 rcurveline
          6 -12 -12 3 -12 hhcurveto
          -4 -3 -82 callgsubr
          4 -9 -10 2 -10 hhcurveto
          -10 -9 -2 -2 -9 hvcurveto
          -5 callsubr
          -5 -21 -53 -31 -49 -45 -46 rlinecurve
          -3 -3 rlineto
          -4 vlineto
          -40 28 -40 44 7 10 2 4 8 vhcurveto
          5 6 14 31 16 30 20 28 rlinecurve
          17 -29 -8 callsubr
          -32 1 -4 rcurveline
          4 -2 rlineto
          -5 9 10 -3 11 hhcurveto
          10 10 2 4 10 hvcurveto
          -2 6 -2 callgsubr
          hhcurveto
          12 10 2 6 9 hvcurveto
          5 6 19 59 31 55 41 47 -36 callsubr
        </CharString>
        <CharString name="J">
          -23 453 662 rmoveto
          -54 callsubr
          38 -62 hhcurveto
          -61 -27 -33 -84 callgsubr
          -4 -5 -91 callsubr
          -29 -28 -68 callgsubr
          2 callsubr
          -93 callsubr
          10 -32 6 -34 5 callgsubr
          -31 -81 callsubr
          6 -30 3 -29 -27 vvcurveto
          -3 vlineto
          -13 18 -11 20 -15 26 -4 5 rcurveline
          -52 33 -24 26 -27 62 -2 6 rcurveline
          -7 -2 callsubr
          -5 1 -8 hhcurveto
          -17 -32 -5 -27 -30 hvcurveto
          -43 -39 2 -40 -4 vvcurveto
          1 -7 5 -3 58 -36 25 -29 25 -64 rlinecurve
          1 -4 4 -2 54 -36 24 -38 19 -53 rlinecurve
          2 -5 4 -2 rlineto
          -1 1 12 -6 18 hhcurveto
          20 25 7 25 28 hvcurveto
          1 2 2 1 1 1 rrcurveto
          -2 10 12 -2 13 hhcurveto
          28 callgsubr
          hvcurveto
          2 4 -1 5 rlineto
          -12 33 -5 -45 callsubr
          34 -31 callgsubr
          -100 callgsubr
          33 6 35 -79 callsubr
          endchar
        </CharString>
        <CharString name="Jcircumflex">
          -23 453 662 rmoveto
          -54 callsubr
          38 -62 hhcurveto
          -61 -27 -33 -84 callgsubr
          -4 -5 -91 callsubr
          -29 -28 -68 callgsubr
          2 callsubr
          -93 callsubr
          10 -32 6 -34 5 callgsubr
          -31 -81 callsubr
          6 -30 3 -29 -27 vvcurveto
          -3 vlineto
          -13 18 -11 20 -15 26 -4 5 rcurveline
          -52 33 -24 26 -27 62 -2 6 rcurveline
          -7 -2 callsubr
          -5 1 -8 hhcurveto
          -17 -32 -5 -27 -30 hvcurveto
          -43 -39 2 -40 -4 vvcurveto
          1 -7 5 -3 58 -36 25 -29 25 -64 rlinecurve
          1 -4 4 -2 54 -36 24 -38 19 -53 rlinecurve
          2 -5 4 -2 rlineto
          -1 1 12 -6 18 hhcurveto
          20 25 7 25 28 hvcurveto
          1 2 2 1 1 1 rrcurveto
          -2 10 12 -2 13 hhcurveto
          28 callgsubr
          hvcurveto
          2 4 -1 5 rlineto
          -12 33 -5 -45 callsubr
          34 -31 callgsubr
          -100 callgsubr
          33 6 35 -79 callsubr
          50 145 -105 callgsubr
        </CharString>
        <CharString name="K">
          34 521 93 rmoveto
          -4 4 -44 48 -11 37 -13 67 rlinecurve
          -2 6 -30 35 -20 39 -11 46 rlinecurve
          12 11 13 11 14 10 5 5 rcurveline
          23 57 39 45 57 36 6 4 rcurveline
          7 vlineto
          2 0 48 -48 39 vhcurveto
          25 -31 -29 5 -17 -8 -5 -2 17 callsubr
          -1 -3 -6 -25 -64 -42 -47 -59 -34 27 callgsubr
          -14 -36 -18 -32 -25 -29 rlinecurve
          3 12 2 13 4 13 rrcurveto
          -52 callsubr
          rlineto
          10 -32 6 -34 5 callgsubr
          -31 -81 callsubr
          7 -30 -60 callgsubr
          -39 -87 callgsubr
          -5 -72 callsubr
          -2 20 -50 77 77 22 47 -41 callgsubr
          -81 callgsubr
          33 vvcurveto
          11 vlineto
          18 25 22 22 26 19 4 -17 2 -18 1 -17 rrcurveto
          -5 vlineto
          10 -10 33 -52 14 -33 2 -56 rlinecurve
          1 -5 3 -3 rlineto
          -2 1 19 -19 36 hhcurveto
          15 16 3 9 20 hvcurveto
          67 30 1 51 2 vvcurveto
          endchar
        </CharString>
        <CharString name="Kcommaaccent">
          34 521 93 rmoveto
          -4 4 -44 48 -11 37 -13 67 rlinecurve
          -2 6 -30 35 -20 39 -11 46 rlinecurve
          12 11 13 11 14 10 5 5 rcurveline
          23 57 39 45 57 36 6 4 rcurveline
          7 vlineto
          2 0 48 -48 39 vhcurveto
          25 -31 -29 5 -17 -8 -5 -2 17 callsubr
          -1 -3 -6 -25 -64 -42 -47 -59 -34 27 callgsubr
          -14 -36 -18 -32 -25 -29 rlinecurve
          3 12 2 13 4 13 rrcurveto
          -52 callsubr
          rlineto
          10 -32 6 -34 5 callgsubr
          -31 -81 callsubr
          7 -30 -60 callgsubr
          -39 -87 callgsubr
          -5 -72 callsubr
          -2 20 -50 77 77 22 47 -41 callgsubr
          -81 callgsubr
          33 vvcurveto
          11 vlineto
          18 25 22 22 26 19 4 -17 2 -18 1 -17 rrcurveto
          -5 vlineto
          10 -10 33 -52 14 -33 2 -56 rlinecurve
          1 -5 3 -3 rlineto
          -2 1 19 -19 36 hhcurveto
          15 16 3 9 20 hvcurveto
          67 30 1 51 2 vvcurveto
          -183 -199 -106 callgsubr
          endchar
        </CharString>
        <CharString name="L">
          -40 488 95 rmoveto
          -1 59 -33 26 -1 -27 callgsubr
          -7 -10 callgsubr
          -29 -4 -28 hhcurveto
          -36 -35 7 13 -35 -64 callsubr
          -4 -2 rlineto
          0 -17 -2 -13 -3 vhcurveto
          3 24 5 24 9 23 2 4 rcurveline
          -100 callsubr
          -5 5 rlineto
          -54 callsubr
          38 -62 hhcurveto
          -61 -27 -33 -84 callgsubr
          -4 -5 -103 callgsubr
          -31 -5 -31 -104 callsubr
          -2 20 -49 77 36 23 10 11 16 vhcurveto
          16 -3 16 -3 13 19 callsubr
          8 27 27 4 27 hhcurveto
          33 34 -6 -12 35 -61 callgsubr
          2 38 29 59 vvcurveto
          endchar
        </CharString>
        <CharString name="Lacute">
          -40 488 95 rmoveto
          -1 59 -33 26 -1 -27 callgsubr
          -7 -10 callgsubr
          -29 -4 -28 hhcurveto
          -36 -35 7 13 -35 -64 callsubr
          -4 -2 rlineto
          0 -17 -2 -13 -3 vhcurveto
          3 24 5 24 9 23 2 4 rcurveline
          -100 callsubr
          -5 5 rlineto
          -54 callsubr
          38 -62 hhcurveto
          -61 -27 -33 -84 callgsubr
          -4 -5 -103 callgsubr
          -31 -5 -31 -104 callsubr
          -2 20 -49 77 36 23 10 11 16 vhcurveto
          16 -3 16 -3 13 19 callsubr
          8 27 27 4 27 hhcurveto
          33 34 -6 -12 35 -61 callgsubr
          2 38 29 59 vvcurveto
          -161 772 -106 callgsubr
          endchar
        </CharString>
        <CharString name="Lcaron">
          -40 488 95 rmoveto
          -1 59 -33 26 -1 -27 callgsubr
          -7 -10 callgsubr
          -29 -4 -28 hhcurveto
          -36 -35 7 13 -35 -64 callsubr
          -4 -2 rlineto
          0 -17 -2 -13 -3 vhcurveto
          3 24 5 24 9 23 2 4 rcurveline
          -100 callsubr
          -5 5 rlineto
          -54 callsubr
          38 -62 hhcurveto
          -61 -27 -33 -84 callgsubr
          -4 -5 -103 callgsubr
          -31 -5 -31 -104 callsubr
          -2 20 -49 77 36 23 10 11 16 vhcurveto
          16 -3 16 -3 13 19 callsubr
          8 27 27 4 27 hhcurveto
          33 34 -6 -12 35 -61 callgsubr
          2 38 29 59 vvcurveto
          -35 600 -106 callgsubr
          endchar
        </CharString>
        <CharString name="Lcommaaccent">
          -40 488 95 rmoveto
          -1 59 -33 26 -1 -27 callgsubr
          -7 -10 callgsubr
          -29 -4 -28 hhcurveto
          -36 -35 7 13 -35 -64 callsubr
          -4 -2 rlineto
          0 -17 -2 -13 -3 vhcurveto
          3 24 5 24 9 23 2 4 rcurveline
          -100 callsubr
          -5 5 rlineto
          -54 callsubr
          38 -62 hhcurveto
          -61 -27 -33 -84 callgsubr
          -4 -5 -103 callgsubr
          -31 -5 -31 -104 callsubr
          -2 20 -49 77 36 23 10 11 16 vhcurveto
          16 -3 16 -3 13 19 callsubr
          8 27 27 4 27 hhcurveto
          33 34 -6 -12 35 -61 callgsubr
          2 38 29 59 vvcurveto
          -187 -206 -106 callgsubr
          endchar
        </CharString>
        <CharString name="Ldot">
          104 488 95 rmoveto
          -1 59 -33 26 -1 -27 callgsubr
          -7 -10 callgsubr
          -29 -4 -28 hhcurveto
          -36 -35 7 13 -35 -64 callsubr
          -4 -2 rlineto
          0 -17 -2 -13 -3 vhcurveto
          3 24 5 24 9 23 2 4 rcurveline
          -100 callsubr
          -5 5 rlineto
          -54 callsubr
          38 -62 hhcurveto
          -61 -27 -33 -84 callgsubr
          -4 -5 -103 callgsubr
          -31 -5 -31 -104 callsubr
          -2 20 -49 77 36 23 10 11 16 vhcurveto
          16 -3 16 -3 13 19 callsubr
          8 27 27 4 27 hhcurveto
          33 34 -6 -12 35 -61 callgsubr
          2 38 29 59 vvcurveto
          91 326 -103 callsubr
          endchar
        </CharString>
        <CharString name="Lslash">
          -96 callsubr
        </CharString>
        <CharString name="M">
          226 481 72 rmoveto
          -2 2 -2 2 -1 3 rrcurveto
          58 16 54 33 50 vhcurveto
          2 8 rlineto
          -1 11 -1 10 11 vvcurveto
          17 1 17 3 17 vhcurveto
          10 -36 5 -35 -34 vvcurveto
          -9 0 -10 -1 -9 vhcurveto
          -5 vlineto
          14 -41 7 -39 -38 vvcurveto
          -17 -1 -17 -3 -17 -26 callgsubr
          6 -25 callgsubr
          1 26 -17 40 hhcurveto
          68 39 39 -32 callgsubr
          6 6 -4 8 rlineto
          -26 48 -14 51 54 6 1 5 6 vvcurveto
          4 vlineto
          -2 2 rlineto
          -21 43 -10 46 51 vvcurveto
          14 0 14 2 14 vhcurveto
          -1 7 rlineto
          -20 43 -11 46 47 vvcurveto
          16 2 16 2 16 vhcurveto
          1 7 -6 5 rlineto
          -1 -7 5 5 -13 hvcurveto
          5 7 4 6 -3 -53 callsubr
          -30 63 -85 hhcurveto
          -38 -22 -17 -32 callgsubr
          -5 -4 1 -6 rlineto
          -19 vlineto
          -61 -17 -54 -35 -51 -74 callsubr
          1 16 callgsubr
          -8 vvcurveto
          -33 -5 -33 -10 -32 vhcurveto
          -4 20 -2 20 22 vvcurveto
          -47 callsubr
          -34 55 -16 58 66 vvcurveto
          7 vlineto
          -6 -8 callgsubr
          -9 4 3 -13 hvcurveto
          6 10 3 6 -4 6 rlineto
          2 -1 -31 53 -77 hhcurveto
          -45 -24 -21 -32 callgsubr
          -5 -4 1 -7 rlineto
          2 -15 1 -14 -14 vvcurveto
          -51 -14 -48 -27 -46 -87 callsubr
          -45 callgsubr
          2 -16 2 -17 -16 vvcurveto
          -48 -11 -48 -21 -48 vhcurveto
          -1 -6 rlineto
          1 -10 0 -10 -10 vvcurveto
          -61 -14 -54 -30 -49 -87 callsubr
          -45 callgsubr
          0 15 -69 99 57 22 33 2 -40 callsubr
          -80 callsubr
          -4 19 -1 19 18 vvcurveto
          49 12 48 25 45 vhcurveto
          10 callgsubr
          -3 17 -1 16 17 vvcurveto
          18 1 17 3 18 vhcurveto
          26 -53 14 -51 2 -51 1 -5 rcurveline
          27 -56 11 -53 -57 vvcurveto
          -14 callgsubr
          -3 rlineto
          -1 2 19 -9 30 hhcurveto
          79 41 53 -2 -2 hvcurveto
          6 8 rlineto
          endchar
        </CharString>
        <CharString name="N">
          90 566 661 rmoveto
          2 -1 -31 38 -61 hhcurveto
          -61 -27 -33 -84 callgsubr
          -4 -5 2 -6 rlineto
          5 callsubr
          -79 callgsubr
          -37 -7 -36 -14 -36 2 callgsubr
          10 -34 5 -33 -35 vvcurveto
          -1 vlineto
          -25 39 -17 46 -8 53 rrcurveto
          3 vlineto
          -3 3 -40 46 -23 55 -7 68 rlinecurve
          -1 6 -6 3 -43 callsubr
          -18 9 -27 hhcurveto
          -8 hlineto
          9 -15 -21 8 -29 hhcurveto
          -61 -27 -33 -2 -1 hvcurveto
          -4 -5 -103 callgsubr
          -30 -5 -32 -104 callsubr
          -2 20 -49 77 77 22 46 -41 callgsubr
          -81 callgsubr
          34 vvcurveto
          34 6 34 12 33 vhcurveto
          8 callgsubr
          2 -5 rcurveline
          46 -59 24 -60 3 -66 rrcurveto
          -5 vlineto
          4 -3 rlineto
          -2 1 19 -17 35 hhcurveto
          5 hlineto
          -10 15 22 -7 31 hhcurveto
          76 -76 callsubr
          -2 5 rlineto
          -11 32 -6 -45 callsubr
          35 13 34 0 callgsubr
          -11 31 -5 -48 callsubr
          32 5 34 10 35 -89 callgsubr
          endchar
        </CharString>
        <CharString name="Nacute">
          90 566 661 rmoveto
          2 -1 -31 38 -61 hhcurveto
          -61 -27 -33 -84 callgsubr
          -4 -5 2 -6 rlineto
          5 callsubr
          -79 callgsubr
          -37 -7 -36 -14 -36 2 callgsubr
          10 -34 5 -33 -35 vvcurveto
          -1 vlineto
          -25 39 -17 46 -8 53 rrcurveto
          3 vlineto
          -3 3 -40 46 -23 55 -7 68 rlinecurve
          -1 6 -6 3 -43 callsubr
          -18 9 -27 hhcurveto
          -8 hlineto
          9 -15 -21 8 -29 hhcurveto
          -61 -27 -33 -2 -1 hvcurveto
          -4 -5 -103 callgsubr
          -30 -5 -32 -104 callsubr
          -2 20 -49 77 77 22 46 -41 callgsubr
          -81 callgsubr
          34 vvcurveto
          34 6 34 12 33 vhcurveto
          8 callgsubr
          2 -5 rcurveline
          46 -59 24 -60 3 -66 rrcurveto
          -5 vlineto
          4 -3 rlineto
          -2 1 19 -17 35 hhcurveto
          5 hlineto
          -10 15 22 -7 31 hhcurveto
          76 -76 callsubr
          -2 5 rlineto
          -11 32 -6 -45 callsubr
          35 13 34 0 callgsubr
          -11 31 -5 -48 callsubr
          32 5 34 10 35 -89 callgsubr
          -110 196 -106 callgsubr
          endchar
        </CharString>
        <CharString name="Ncaron">
          90 566 661 rmoveto
          2 -1 -31 38 -61 hhcurveto
          -61 -27 -33 -84 callgsubr
          -4 -5 2 -6 rlineto
          5 callsubr
          -79 callgsubr
          -37 -7 -36 -14 -36 2 callgsubr
          10 -34 5 -33 -35 vvcurveto
          -1 vlineto
          -25 39 -17 46 -8 53 rrcurveto
          3 vlineto
          -3 3 -40 46 -23 55 -7 68 rlinecurve
          -1 6 -6 3 -43 callsubr
          -18 9 -27 hhcurveto
          -8 hlineto
          9 -15 -21 8 -29 hhcurveto
          -61 -27 -33 -2 -1 hvcurveto
          -4 -5 -103 callgsubr
          -30 -5 -32 -104 callsubr
          -2 20 -49 77 77 22 46 -41 callgsubr
          -81 callgsubr
          34 vvcurveto
          34 6 34 12 33 vhcurveto
          8 callgsubr
          2 -5 rcurveline
          46 -59 24 -60 3 -66 rrcurveto
          -5 vlineto
          4 -3 rlineto
          -2 1 19 -17 35 hhcurveto
          5 hlineto
          -10 15 22 -7 31 hhcurveto
          76 -76 callsubr
          -2 5 rlineto
          -11 32 -6 -45 callsubr
          35 13 34 0 callgsubr
          -11 31 -5 -48 callsubr
          32 5 34 10 35 -89 callgsubr
          -102 245 rmoveto
          38 -36 34 -41 -33 callsubr
          -10 vhcurveto
          -5 -2 -1 -5 -11 -33 -15 -30 -19 -29 rlinecurve
          -15 26 -11 29 -10 32 -1 5 rcurveline
          -52 callgsubr
          7 -12 -14 4 -14 hhcurveto
          -38 -32 -27 -34 1 callsubr
          -7 39 -49 28 -56 17 -60 rlinecurve
          1 -4 4 -3 rlineto
          -6 10 12 -3 12 6 callgsubr
          1 3 9 hvcurveto
          -3 8 6 callsubr
          hhcurveto
          10 9 2 5 9 hvcurveto
          3 2 1 4 23 58 33 53 44 45 -36 callsubr
        </CharString>
        <CharString name="Ncommaaccent">
          90 566 661 rmoveto
          2 -1 -31 38 -61 hhcurveto
          -61 -27 -33 -84 callgsubr
          -4 -5 2 -6 rlineto
          5 callsubr
          -79 callgsubr
          -37 -7 -36 -14 -36 2 callgsubr
          10 -34 5 -33 -35 vvcurveto
          -1 vlineto
          -25 39 -17 46 -8 53 rrcurveto
          3 vlineto
          -3 3 -40 46 -23 55 -7 68 rlinecurve
          -1 6 -6 3 -43 callsubr
          -18 9 -27 hhcurveto
          -8 hlineto
          9 -15 -21 8 -29 hhcurveto
          -61 -27 -33 -2 -1 hvcurveto
          -4 -5 -103 callgsubr
          -30 -5 -32 -104 callsubr
          -2 20 -49 77 77 22 46 -41 callgsubr
          -81 callgsubr
          34 vvcurveto
          34 6 34 12 33 vhcurveto
          8 callgsubr
          2 -5 rcurveline
          46 -59 24 -60 3 -66 rrcurveto
          -5 vlineto
          4 -3 rlineto
          -2 1 19 -17 35 hhcurveto
          5 hlineto
          -10 15 22 -7 31 hhcurveto
          76 -76 callsubr
          -2 5 rlineto
          -11 32 -6 -45 callsubr
          35 13 34 0 callgsubr
          -11 31 -5 -48 callsubr
          32 5 34 10 35 -89 callgsubr
          -204 -767 -106 callgsubr
          endchar
        </CharString>
        <CharString name="Ntilde">
          90 566 661 rmoveto
          2 -1 -31 38 -61 hhcurveto
          -61 -27 -33 -84 callgsubr
          -4 -5 2 -6 rlineto
          5 callsubr
          -79 callgsubr
          -37 -7 -36 -14 -36 2 callgsubr
          10 -34 5 -33 -35 vvcurveto
          -1 vlineto
          -25 39 -17 46 -8 53 rrcurveto
          3 vlineto
          -3 3 -40 46 -23 55 -7 68 rlinecurve
          -1 6 -6 3 -43 callsubr
          -18 9 -27 hhcurveto
          -8 hlineto
          9 -15 -21 8 -29 hhcurveto
          -61 -27 -33 -2 -1 hvcurveto
          -4 -5 -103 callgsubr
          -30 -5 -32 -104 callsubr
          -2 20 -49 77 77 22 46 -41 callgsubr
          -81 callgsubr
          34 vvcurveto
          34 6 34 12 33 vhcurveto
          8 callgsubr
          2 -5 rcurveline
          46 -59 24 -60 3 -66 rrcurveto
          -5 vlineto
          4 -3 rlineto
          -2 1 19 -17 35 hhcurveto
          5 hlineto
          -10 15 22 -7 31 hhcurveto
          76 -76 callsubr
          -2 5 rlineto
          -11 32 -6 -45 callsubr
          35 13 34 0 callgsubr
          -11 31 -5 -48 callsubr
          32 5 34 10 35 -89 callgsubr
          -31 263 rmoveto
          36 -2 -35 32 -40 hhcurveto
          -12 -12 -3 -5 -9 hvcurveto
          -5 -2 -1 -5 -9 -33 -14 -31 -17 -30 rlinecurve
          -16 26 -13 29 -11 31 -5 6 rcurveline
          6 -12 -12 3 -12 hhcurveto
          -4 -3 -82 callgsubr
          4 -9 -10 2 -10 hhcurveto
          -10 -9 -2 -2 -9 hvcurveto
          -5 callsubr
          -5 -21 -53 -31 -49 -45 -46 rlinecurve
          -3 -3 rlineto
          -4 vlineto
          -40 28 -40 44 7 10 2 4 8 vhcurveto
          5 6 14 31 16 30 20 28 rlinecurve
          17 -29 -8 callsubr
          -32 1 -4 rcurveline
          4 -2 rlineto
          -5 9 10 -3 11 hhcurveto
          10 10 2 4 10 hvcurveto
          -2 6 -2 callgsubr
          hhcurveto
          12 10 2 6 9 hvcurveto
          5 6 19 59 31 55 41 47 -36 callsubr
        </CharString>
        <CharString name="O">
          105 595 84 rmoveto
          -18 38 -8 -48 callsubr
          23 4 24 7 28 vhcurveto
          2 5 -18 callsubr
          -18 39 -9 38 42 vvcurveto
          22 3 22 4 25 vhcurveto
          1 4 -18 callsubr
          -13 32 -7 30 32 vvcurveto
          24 4 26 7 28 vhcurveto
          2 14 callgsubr
          1 -2 -29 30 -52 hhcurveto
          -26 -20 -7 -7 -16 hvcurveto
          -30 1 -29 9 -35 16 -4 2 rcurveline
          -107 callsubr
          rlineto
          23 44 60 11 52 -72 callgsubr
          rlineto
          -347 370 rmoveto
          -3 17 -2 15 14 -59 callgsubr
          9 1 10 vhcurveto
          16 -4 15 -5 19 -3 7 -49 callsubr
          21 18 3 18 6 callgsubr
          -1 -12 callgsubr
          -1 -24 -5 -24 -7 -25 -1 -54 callgsubr
          17 -40 9 -38 -42 vvcurveto
          -20 -2 -22 -4 -22 -42 callsubr
          7 -23 5 -43 callgsubr
          -2 -14 -15 -1 -14 -30 callsubr
          2 5 -22 -59 callsubr
          -14 -43 -6 -32 -4 rlinecurve
          2 31 10 26 19 38 2 4 rcurveline
          -1 4 rlineto
          -5 23 -3 20 21 vvcurveto
          35 8 35 19 44 vhcurveto
          1 3 rlineto
          endchar
        </CharString>
        <CharString name="OE">
          323 736 345 rmoveto
          58 -34 26 -1 -86 callgsubr
          -9 -29 -24 -4 -24 hhcurveto
          -17 23 callgsubr
          -18 hvcurveto
          2 12 2 11 4 12 -35 callgsubr
          -6 -9 callsubr
          -1 18 rrcurveto
          25 25 -3 -5 26 hvcurveto
          7 -57 callsubr
          21 5 22 -58 callgsubr
          -7 31 24 callgsubr
          32 29 -61 callsubr
          -4 58 -35 24 -1 1 -6 -89 callsubr
          -12 -33 -23 -6 -23 -30 callsubr
          5 10 -31 hvcurveto
          -4 -86 callsubr
          -20 -56 callgsubr
          -24 -36 callgsubr
          -27 2 -25 9 -31 14 -4 2 rcurveline
          -107 callsubr
          rlineto
          23 44 50 11 49 15 -83 callsubr
          23 11 18 8 19 4 rlinecurve
          -15 12 26 -21 50 hhcurveto
          49 26 19 15 13 hvcurveto
          9 callsubr
          7 hlineto
          6 24 18 -19 callsubr
          24 23 -6 -14 -75 callsubr
          5 3 2 2 38 28 2 58 rlinecurve
          58 -30 26 -3 2 vhcurveto
          -4 4 -7 -2 rlineto
          -7 -27 -20 -4 -19 hhcurveto
          -26 -23 8 15 -37 hvcurveto
          -5 2 -4 -1 rlineto
          -1 -35 -4 -4 -21 hvcurveto
          3 22 6 22 8 22 rrcurveto
          8 vlineto
          -38 callsubr
          26 27 -6 -12 36 24 callgsubr
          38 -30 callgsubr
          -486 105 rmoveto
          -3 17 -2 15 14 -59 callgsubr
          9 1 10 vhcurveto
          16 -4 15 -5 19 -3 7 -49 callsubr
          21 18 3 18 -1 callgsubr
          -2 -2 12 hvcurveto
          -4 -17 -6 -18 -6 -16 rrcurveto
          -9 vlineto
          10 -32 6 -33 5 callgsubr
          -32 -9 -73 callsubr
          6 -23 3 -23 1 -22 rrcurveto
          -5 -17 -15 -2 -17 -35 callsubr
          -22 -59 callsubr
          -14 -32 -6 -28 -4 rlinecurve
          2 31 10 26 19 38 2 4 rcurveline
          -1 4 rlineto
          -5 23 -3 20 21 vvcurveto
          35 8 35 19 44 vhcurveto
          1 3 rlineto
          endchar
        </CharString>
        <CharString name="Oacute">
          105 595 84 rmoveto
          -18 38 -8 -48 callsubr
          23 4 24 7 28 vhcurveto
          2 5 -18 callsubr
          -18 39 -9 38 42 vvcurveto
          22 3 22 4 25 vhcurveto
          1 4 -18 callsubr
          -13 32 -7 30 32 vvcurveto
          24 4 26 7 28 vhcurveto
          2 14 callgsubr
          1 -2 -29 30 -52 hhcurveto
          -26 -20 -7 -7 -16 hvcurveto
          -30 1 -29 9 -35 16 -4 2 rcurveline
          -107 callsubr
          rlineto
          23 44 60 11 52 -72 callgsubr
          rlineto
          -347 370 rmoveto
          -3 17 -2 15 14 -59 callgsubr
          9 1 10 vhcurveto
          16 -4 15 -5 19 -3 7 -49 callsubr
          21 18 3 18 6 callgsubr
          -1 -12 callgsubr
          -1 -24 -5 -24 -7 -25 -1 -54 callgsubr
          17 -40 9 -38 -42 vvcurveto
          -20 -2 -22 -4 -22 -42 callsubr
          7 -23 5 -43 callgsubr
          -2 -14 -15 -1 -14 -30 callsubr
          2 5 -22 -59 callsubr
          -14 -43 -6 -32 -4 rlinecurve
          2 31 10 26 19 38 2 4 rcurveline
          -1 4 rlineto
          -5 23 -3 20 21 vvcurveto
          35 8 35 19 44 vhcurveto
          1 3 rlineto
          229 428 -106 callgsubr
          endchar
        </CharString>
        <CharString name="Obreve">
          105 595 84 rmoveto
          -18 38 -8 -48 callsubr
          23 4 24 7 28 vhcurveto
          2 5 -18 callsubr
          -18 39 -9 38 42 vvcurveto
          22 3 22 4 25 vhcurveto
          1 4 -18 callsubr
          -13 32 -7 30 32 vvcurveto
          24 4 26 7 28 vhcurveto
          2 14 callgsubr
          1 -2 -29 30 -52 hhcurveto
          -26 -20 -7 -7 -16 hvcurveto
          -30 1 -29 9 -35 16 -4 2 rcurveline
          -107 callsubr
          rlineto
          23 44 60 11 52 -72 callgsubr
          rlineto
          -347 370 rmoveto
          -3 17 -2 15 14 -59 callgsubr
          9 1 10 vhcurveto
          16 -4 15 -5 19 -3 7 -49 callsubr
          21 18 3 18 6 callgsubr
          -1 -12 callgsubr
          -1 -24 -5 -24 -7 -25 -1 -54 callgsubr
          17 -40 9 -38 -42 vvcurveto
          -20 -2 -22 -4 -22 -42 callsubr
          7 -23 5 -43 callgsubr
          -2 -14 -15 -1 -14 -30 callsubr
          2 5 -22 -59 callsubr
          -14 -43 -6 -32 -4 rlinecurve
          2 31 10 26 19 38 2 4 rcurveline
          -1 4 rlineto
          -5 23 -3 20 21 vvcurveto
          35 8 35 19 44 vhcurveto
          1 3 rlineto
          232 468 rmoveto
          24 -12 -33 19 -34 hhcurveto
          -13 -13 -3 -7 -11 hvcurveto
          -5 33 callgsubr
          -1 -34 -6 -33 -11 -30 rlinecurve
          -1 -8 -9 0 -9 hhcurveto
          -11 -10 0 1 -10 hvcurveto
          -5 25 -2 26 28 vvcurveto
          23 vlineto
          31 callgsubr
          9 -12 -16 5 -19 hhcurveto
          -24 -32 -9 -26 -17 hvcurveto
          -3 -5 2 -6 rlineto
          22 -49 8 -48 -49 vvcurveto
          -1 -6 6 -4 10 -6 12 -4 13 -1 rlinecurve
          5 -6 6 -5 8 -4 7 -2 rcurveline
          2 15 16 2 15 hhcurveto
          30 30 -4 -8 32 hvcurveto
          5 -1 5 3 8 7 6 9 4 11 rlinecurve
          8 4 7 5 6 6 3 3 rcurveline
          3 vlineto
          5 45 14 43 24 44 3 18 callsubr
        </CharString>
        <CharString name="Ocircumflex">
          105 595 84 rmoveto
          -18 38 -8 -48 callsubr
          23 4 24 7 28 vhcurveto
          2 5 -18 callsubr
          -18 39 -9 38 42 vvcurveto
          22 3 22 4 25 vhcurveto
          1 4 -18 callsubr
          -13 32 -7 30 32 vvcurveto
          24 4 26 7 28 vhcurveto
          2 14 callgsubr
          1 -2 -29 30 -52 hhcurveto
          -26 -20 -7 -7 -16 hvcurveto
          -30 1 -29 9 -35 16 -4 2 rcurveline
          -107 callsubr
          rlineto
          23 44 60 11 52 -72 callgsubr
          rlineto
          -347 370 rmoveto
          -3 17 -2 15 14 -59 callgsubr
          9 1 10 vhcurveto
          16 -4 15 -5 19 -3 7 -49 callsubr
          21 18 3 18 6 callgsubr
          -1 -12 callgsubr
          -1 -24 -5 -24 -7 -25 -1 -54 callgsubr
          17 -40 9 -38 -42 vvcurveto
          -20 -2 -22 -4 -22 -42 callsubr
          7 -23 5 -43 callgsubr
          -2 -14 -15 -1 -14 -30 callsubr
          2 5 -22 -59 callsubr
          -14 -43 -6 -32 -4 rlinecurve
          2 31 10 26 19 38 2 4 rcurveline
          -1 4 rlineto
          -5 23 -3 20 21 vvcurveto
          35 8 35 19 44 vhcurveto
          1 3 rlineto
          224 361 -105 callgsubr
        </CharString>
        <CharString name="Odieresis">
          105 595 84 rmoveto
          -18 38 -8 -48 callsubr
          23 4 24 7 28 vhcurveto
          2 5 -18 callsubr
          -18 39 -9 38 42 vvcurveto
          22 3 22 4 25 vhcurveto
          1 4 -18 callsubr
          -13 32 -7 30 32 vvcurveto
          24 4 26 7 28 vhcurveto
          2 14 callgsubr
          1 -2 -29 30 -52 hhcurveto
          -26 -20 -7 -7 -16 hvcurveto
          -30 1 -29 9 -35 16 -4 2 rcurveline
          -107 callsubr
          rlineto
          23 44 60 11 52 -72 callgsubr
          rlineto
          -347 370 rmoveto
          -3 17 -2 15 14 -59 callgsubr
          9 1 10 vhcurveto
          16 -4 15 -5 19 -3 7 -49 callsubr
          21 18 3 18 6 callgsubr
          -1 -12 callgsubr
          -1 -24 -5 -24 -7 -25 -1 -54 callgsubr
          17 -40 9 -38 -42 vvcurveto
          -20 -2 -22 -4 -22 -42 callsubr
          7 -23 5 -43 callgsubr
          -2 -14 -15 -1 -14 -30 callsubr
          2 5 -22 -59 callsubr
          -14 -43 -6 -32 -4 rlinecurve
          2 31 10 26 19 38 2 4 rcurveline
          -1 4 rlineto
          -5 23 -3 20 21 vvcurveto
          35 8 35 19 44 vhcurveto
          1 3 rlineto
          222 431 rmoveto
          17 -21 -27 10 -29 hhcurveto
          -25 -26 -8 -15 -19 hvcurveto
          -6 -4 1 -7 rlineto
          5 -20 2 -21 -20 vvcurveto
          16 callgsubr
          -1 -9 vhcurveto
          -1 -6 5 -4 rlineto
          -14 19 24 -8 24 hhcurveto
          19 18 5 9 15 hvcurveto
          -44 callgsubr
          3 0 3 3 vvcurveto
          25 7 26 14 28 vhcurveto
          3 8 rlineto
          -190 14 rmoveto
          13 -13 -25 7 -29 hhcurveto
          -35 -33 -11 -18 -20 hvcurveto
          -6 -6 4 -7 rlineto
          14 -24 6 -24 -24 vvcurveto
          -6 0 -5 -1 -6 -26 callgsubr
          6 -3 rlineto
          -9 13 20 -5 21 hhcurveto
          28 25 9 15 15 hvcurveto
          4 -67 callsubr
          8 0 8 9 vvcurveto
          21 4 22 9 23 vhcurveto
          3 -23 callsubr
        </CharString>
        <CharString name="Ograve">
          105 595 84 rmoveto
          -18 38 -8 -48 callsubr
          23 4 24 7 28 vhcurveto
          2 5 -18 callsubr
          -18 39 -9 38 42 vvcurveto
          22 3 22 4 25 vhcurveto
          1 4 -18 callsubr
          -13 32 -7 30 32 vvcurveto
          24 4 26 7 28 vhcurveto
          2 14 callgsubr
          1 -2 -29 30 -52 hhcurveto
          -26 -20 -7 -7 -16 hvcurveto
          -30 1 -29 9 -35 16 -4 2 rcurveline
          -107 callsubr
          rlineto
          23 44 60 11 52 -72 callgsubr
          rlineto
          -347 370 rmoveto
          -3 17 -2 15 14 -59 callgsubr
          9 1 10 vhcurveto
          16 -4 15 -5 19 -3 7 -49 callsubr
          21 18 3 18 6 callgsubr
          -1 -12 callgsubr
          -1 -24 -5 -24 -7 -25 -1 -54 callgsubr
          17 -40 9 -38 -42 vvcurveto
          -20 -2 -22 -4 -22 -42 callsubr
          7 -23 5 -43 callgsubr
          -2 -14 -15 -1 -14 -30 callsubr
          2 5 -22 -59 callsubr
          -14 -43 -6 -32 -4 rlinecurve
          2 31 10 26 19 38 2 4 rcurveline
          -1 4 rlineto
          -5 23 -3 20 21 vvcurveto
          35 8 35 19 44 vhcurveto
          1 3 rlineto
          132 348 -102 callsubr
        </CharString>
        <CharString name="Ohungarumlaut">
          105 595 84 rmoveto
          -18 38 -8 -48 callsubr
          23 4 24 7 28 vhcurveto
          2 5 -18 callsubr
          -18 39 -9 38 42 vvcurveto
          22 3 22 4 25 vhcurveto
          1 4 -18 callsubr
          -13 32 -7 30 32 vvcurveto
          24 4 26 7 28 vhcurveto
          2 14 callgsubr
          1 -2 -29 30 -52 hhcurveto
          -26 -20 -7 -7 -16 hvcurveto
          -30 1 -29 9 -35 16 -4 2 rcurveline
          -107 callsubr
          rlineto
          23 44 60 11 52 -72 callgsubr
          rlineto
          -347 370 rmoveto
          -3 17 -2 15 14 -59 callgsubr
          9 1 10 vhcurveto
          16 -4 15 -5 19 -3 7 -49 callsubr
          21 18 3 18 6 callgsubr
          -1 -12 callgsubr
          -1 -24 -5 -24 -7 -25 -1 -54 callgsubr
          17 -40 9 -38 -42 vvcurveto
          -20 -2 -22 -4 -22 -42 callsubr
          7 -23 5 -43 callgsubr
          -2 -14 -15 -1 -14 -30 callsubr
          2 5 -22 -59 callsubr
          -14 -43 -6 -32 -4 rlinecurve
          2 31 10 26 19 38 2 4 rcurveline
          -1 4 rlineto
          -5 23 -3 20 21 vvcurveto
          35 8 35 19 44 vhcurveto
          1 3 rlineto
          148 425 -106 callgsubr
          159 6 -106 callgsubr
          endchar
        </CharString>
        <CharString name="Omacron">
          105 595 84 rmoveto
          -18 38 -8 -48 callsubr
          23 4 24 7 28 vhcurveto
          2 5 -18 callsubr
          -18 39 -9 38 42 vvcurveto
          22 3 22 4 25 vhcurveto
          1 4 -18 callsubr
          -13 32 -7 30 32 vvcurveto
          24 4 26 7 28 vhcurveto
          2 14 callgsubr
          1 -2 -29 30 -52 hhcurveto
          -26 -20 -7 -7 -16 hvcurveto
          -30 1 -29 9 -35 16 -4 2 rcurveline
          -107 callsubr
          rlineto
          23 44 60 11 52 -72 callgsubr
          rlineto
          -347 370 rmoveto
          -3 17 -2 15 14 -59 callgsubr
          9 1 10 vhcurveto
          16 -4 15 -5 19 -3 7 -49 callsubr
          21 18 3 18 6 callgsubr
          -1 -12 callgsubr
          -1 -24 -5 -24 -7 -25 -1 -54 callgsubr
          17 -40 9 -38 -42 vvcurveto
          -20 -2 -22 -4 -22 -42 callsubr
          7 -23 5 -43 callgsubr
          -2 -14 -15 -1 -14 -30 callsubr
          2 5 -22 -59 callsubr
          -14 -43 -6 -32 -4 rlinecurve
          2 31 10 26 19 38 2 4 rcurveline
          -1 4 rlineto
          -5 23 -3 20 21 vvcurveto
          35 8 35 19 44 vhcurveto
          1 3 rlineto
          198 341 -101 callsubr
        </CharString>
        <CharString name="Oslash">
          105 564 593 rmoveto
          -2 -7 97 -94 vhcurveto
          -22 -16 -9 17 callsubr
          -3 -2 -7 rlineto
          -1 -1 0 -1 -1 vvcurveto
          -4 hlineto
          -34 -30 8 18 -39 -64 callsubr
          -102 callgsubr
          -24 -15 -28 -2 -3 rcurveline
          11 callgsubr
          4 -23 3 -21 -20 vvcurveto
          -35 -8 -34 -17 -41 vhcurveto
          -1 -6 rlineto
          2 -17 1 -15 -13 vvcurveto
          -45 -11 -30 -25 -45 vhcurveto
          -2 32 callgsubr
          1 -1 7 -31 39 -19 rlinecurve
          -21 21 -72 80 32 21 17 1 1 vhcurveto
          4 4 1 5 4 16 rlineto
          3 21 21 2 20 -72 callgsubr
          -69 callsubr
          -18 38 -8 -48 callsubr
          23 4 24 7 28 vhcurveto
          2 5 -18 callsubr
          -18 39 -9 38 42 vvcurveto
          22 3 22 4 25 vhcurveto
          1 4 -18 callsubr
          -13 32 -6 29 33 vvcurveto
          19 21 6 5 rlineto
          -315 -136 rmoveto
          -3 17 -2 15 14 -59 callgsubr
          9 1 10 vhcurveto
          16 -4 15 -5 19 -3 7 -1 rcurveline
          11 3 11 2 10 1 -10 -12 -12 -12 -12 -12 -4 -19 callgsubr
          -15 -54 -25 -51 -34 -48 rlinecurve
          10 vlineto
          35 9 34 18 44 vhcurveto
          1 3 rlineto
          145 -201 rmoveto
          7 -23 5 -20 3 -19 rrcurveto
          -2 -14 -15 -1 -14 hhcurveto
          -14 -14 1 2 -14 hvcurveto
          6 6 3 3 1 5 12 49 22 46 30 44 rlinecurve
          1 -7 0 -8 -7 vvcurveto
          -20 -2 -21 -4 -22 vhcurveto
          endchar
        </CharString>
        <CharString name="Oslashacute">
          105 564 593 rmoveto
          -2 -7 97 -94 vhcurveto
          -22 -16 -9 17 callsubr
          -3 -2 -7 rlineto
          -1 -1 0 -1 -1 vvcurveto
          -4 hlineto
          -34 -30 8 18 -39 -64 callsubr
          -102 callgsubr
          -24 -15 -28 -2 -3 rcurveline
          11 callgsubr
          4 -23 3 -21 -20 vvcurveto
          -35 -8 -34 -17 -41 vhcurveto
          -1 -6 rlineto
          2 -17 1 -15 -13 vvcurveto
          -45 -11 -30 -25 -45 vhcurveto
          -2 32 callgsubr
          1 -1 7 -31 39 -19 rlinecurve
          -21 21 -72 80 32 21 17 1 1 vhcurveto
          4 4 1 5 4 16 rlineto
          3 21 21 2 20 -72 callgsubr
          -69 callsubr
          -18 38 -8 -48 callsubr
          23 4 24 7 28 vhcurveto
          2 5 -18 callsubr
          -18 39 -9 38 42 vvcurveto
          22 3 22 4 25 vhcurveto
          1 4 -18 callsubr
          -13 32 -6 29 33 vvcurveto
          19 21 6 5 rlineto
          -315 -136 rmoveto
          -3 17 -2 15 14 -59 callgsubr
          9 1 10 vhcurveto
          16 -4 15 -5 19 -3 7 -1 rcurveline
          11 3 11 2 10 1 -10 -12 -12 -12 -12 -12 -4 -19 callgsubr
          -15 -54 -25 -51 -34 -48 rlinecurve
          10 vlineto
          35 9 34 18 44 vhcurveto
          1 3 rlineto
          145 -201 rmoveto
          7 -23 5 -20 3 -19 rrcurveto
          -2 -14 -15 -1 -14 hhcurveto
          -14 -14 1 2 -14 hvcurveto
          6 6 3 3 1 5 12 49 22 46 30 44 rlinecurve
          1 -7 0 -8 -7 vvcurveto
          -20 -2 -21 -4 -22 vhcurveto
          73 616 -106 callgsubr
          endchar
        </CharString>
        <CharString name="Otilde">
          105 595 84 rmoveto
          -18 38 -8 -48 callsubr
          23 4 24 7 28 vhcurveto
          2 5 -18 callsubr
          -18 39 -9 38 42 vvcurveto
          22 3 22 4 25 vhcurveto
          1 4 -18 callsubr
          -13 32 -7 30 32 vvcurveto
          24 4 26 7 28 vhcurveto
          2 14 callgsubr
          1 -2 -29 30 -52 hhcurveto
          -26 -20 -7 -7 -16 hvcurveto
          -30 1 -29 9 -35 16 -4 2 rcurveline
          -107 callsubr
          rlineto
          23 44 60 11 52 -72 callgsubr
          rlineto
          -347 370 rmoveto
          -3 17 -2 15 14 -59 callgsubr
          9 1 10 vhcurveto
          16 -4 15 -5 19 -3 7 -49 callsubr
          21 18 3 18 6 callgsubr
          -1 -12 callgsubr
          -1 -24 -5 -24 -7 -25 -1 -54 callgsubr
          17 -40 9 -38 -42 vvcurveto
          -20 -2 -22 -4 -22 -42 callsubr
          7 -23 5 -43 callgsubr
          -2 -14 -15 -1 -14 -30 callsubr
          2 5 -22 -59 callsubr
          -14 -43 -6 -32 -4 rlinecurve
          2 31 10 26 19 38 2 4 rcurveline
          -1 4 rlineto
          -5 23 -3 20 21 vvcurveto
          35 8 35 19 44 vhcurveto
          1 3 rlineto
          299 468 rmoveto
          36 -2 -35 32 -40 hhcurveto
          -12 -12 -3 -5 -9 hvcurveto
          -5 -2 -1 -5 -9 -33 -14 -31 -17 -30 rlinecurve
          -16 26 -13 29 -11 31 -5 6 rcurveline
          6 -12 -12 3 -12 hhcurveto
          -4 -3 -82 callgsubr
          4 -9 -10 2 -10 hhcurveto
          -10 -9 -2 -2 -9 hvcurveto
          -5 callsubr
          -5 -21 -53 -31 -49 -45 -46 rlinecurve
          -3 -3 rlineto
          -4 vlineto
          -40 28 -40 44 7 10 2 4 8 vhcurveto
          5 6 14 31 16 30 20 28 rlinecurve
          17 -29 -8 callsubr
          -32 1 -4 rcurveline
          4 -2 rlineto
          -5 9 10 -3 11 hhcurveto
          10 10 2 4 10 hvcurveto
          -2 6 -2 callgsubr
          hhcurveto
          12 10 2 6 9 hvcurveto
          5 6 19 59 31 55 41 47 -36 callsubr
        </CharString>
        <CharString name="P">
          5 508 401 rmoveto
          1 2 7 10 vvcurveto
          11 -2 16 -7 17 vhcurveto
          7 9 5 11 5 14 rrcurveto
          6 17 2 15 13 29 -11 17 2 vvcurveto
          -4 5 rlineto
          -6 hlineto
          -68 4 -41 34 callgsubr
          -60 11 -39 16 -42 37 -4 3 rcurveline
          -5 hlineto
          -3 -1 -42 -4 -25 -39 -39 -9 -17 -22 -1 -1 -5 callgsubr
          -103 callgsubr
          -30 -5 -32 -104 callsubr
          -2 20 -49 77 77 22 46 -41 callgsubr
          -81 callgsubr
          34 vvcurveto
          5 -1 5 1 5 vhcurveto
          36 48 60 47 48 20 5 5 rcurveline
          34 50 47 37 62 27 6 2 rcurveline
          -220 95 rmoveto
          25 -2 21 -4 21 -7 -31 -31 -37 -24 -43 -16 -4 -1 rcurveline
          -3 -4 -2 -7 -12 -13 -11 -11 rlinecurve
          2 26 5 27 8 28 -6 callgsubr
          24 -4 23 24 vvcurveto
          20 -9 21 -13 25 -14 rrcurveto
          endchar
        </CharString>
        <CharString name="Q">
          105 595 84 rmoveto
          -18 38 -8 -48 callsubr
          23 4 24 7 28 vhcurveto
          2 5 -18 callsubr
          -18 39 -9 38 42 vvcurveto
          22 3 22 4 25 vhcurveto
          1 4 -18 callsubr
          -13 32 -7 30 32 vvcurveto
          24 4 26 7 28 vhcurveto
          2 14 callgsubr
          1 -2 -29 30 -52 hhcurveto
          -26 -20 -7 -7 -16 hvcurveto
          -30 1 -29 9 -35 16 -4 2 rcurveline
          -107 callsubr
          30 16 37 9 37 5 rlinecurve
          1 -9 1 -10 -10 vvcurveto
          -23 -3 -22 -8 -24 vhcurveto
          -1 -5 -72 callsubr
          -2 1 20 -39 62 hhcurveto
          87 19 55 1 hvcurveto
          -34 callsubr
          rlineto
          -15 33 -7 -17 callgsubr
          6 vlineto
          10 3 11 1 11 2 rrcurveto
          -10 14 20 -8 29 hhcurveto
          90 21 58 1 hvcurveto
          2 5 rlineto
          -347 370 rmoveto
          -3 17 -2 15 14 -59 callgsubr
          9 1 10 vhcurveto
          16 -4 15 -5 19 -3 7 -49 callsubr
          21 18 3 18 6 callgsubr
          -1 -12 callgsubr
          -1 -24 -5 -24 -7 -25 -1 -54 callgsubr
          17 -40 9 -38 -42 vvcurveto
          -20 -2 -22 -4 -22 -42 callsubr
          7 -23 5 -43 callgsubr
          -2 -14 -15 -1 -14 -30 callsubr
          2 5 -22 -59 callsubr
          -14 -43 -6 -32 -4 rlinecurve
          2 31 10 26 19 38 2 4 rcurveline
          -1 4 rlineto
          -5 23 -3 20 21 vvcurveto
          35 8 35 19 44 vhcurveto
          1 3 rlineto
          endchar
        </CharString>
        <CharString name="R">
          -105 callsubr
          endchar
        </CharString>
        <CharString name="Racute">
          -105 callsubr
          160 372 -106 callgsubr
          endchar
        </CharString>
        <CharString name="Rcaron">
          -105 callsubr
          154 429 rmoveto
          38 -36 34 -41 -33 callsubr
          -10 vhcurveto
          -5 -2 -1 -5 -11 -33 -15 -30 -19 -29 rlinecurve
          -15 26 -11 29 -10 32 -1 5 rcurveline
          -52 callgsubr
          7 -12 -14 4 -14 hhcurveto
          -38 -32 -27 -34 1 callsubr
          -7 39 -49 28 -56 17 -60 rlinecurve
          1 -4 4 -3 rlineto
          -6 10 12 -3 12 6 callgsubr
          1 3 9 hvcurveto
          -3 8 6 callsubr
          hhcurveto
          10 9 2 5 9 hvcurveto
          3 2 1 4 23 58 33 53 44 45 -36 callsubr
        </CharString>
        <CharString name="Rcommaaccent">
          -105 callsubr
          52 -597 -106 callgsubr
          endchar
        </CharString>
        <CharString name="S">
          -65 -94 callgsubr
          12 17 -2 17 hhcurveto
          29 callsubr
          17 36 21 7 29 hhcurveto
          14 17 -2 -3 23 hvcurveto
          -88 callsubr
          endchar
        </CharString>
        <CharString name="Sacute">
          -65 -94 callgsubr
          12 17 -2 17 hhcurveto
          29 callsubr
          17 36 21 7 29 hhcurveto
          14 17 -2 -3 23 hvcurveto
          -88 callsubr
          -85 732 -106 callgsubr
          endchar
        </CharString>
        <CharString name="Scaron">
          -65 -94 callgsubr
          12 17 -2 17 hhcurveto
          29 callsubr
          17 36 21 7 29 hhcurveto
          14 17 -2 -3 23 hvcurveto
          -88 callsubr
          -66 772 rmoveto
          38 -36 34 -41 -33 callsubr
          -10 vhcurveto
          -5 -2 -1 -5 -11 -33 -15 -30 -19 -29 rlinecurve
          -15 26 -11 29 -10 32 -1 5 rcurveline
          -52 callgsubr
          7 -12 -14 4 -14 hhcurveto
          -38 -32 -27 -34 1 callsubr
          -7 39 -49 28 -56 17 -60 rlinecurve
          1 -4 4 -3 rlineto
          -6 10 12 -3 12 6 callgsubr
          1 3 9 hvcurveto
          -3 8 6 callsubr
          hhcurveto
          10 9 2 5 9 hvcurveto
          3 2 1 4 23 58 33 53 44 45 -36 callsubr
        </CharString>
        <CharString name="Scedilla">
          -65 -94 callgsubr
          10 15 -2 15 hhcurveto
          -14 vlineto
          -90 callgsubr
          -66 callsubr
          -7 28 -4 29 27 vvcurveto
          11 0 13 2 12 vhcurveto
          44 -5 -88 callsubr
          endchar
        </CharString>
        <CharString name="Scircumflex">
          -65 -94 callgsubr
          12 17 -2 17 hhcurveto
          29 callsubr
          17 36 21 7 29 hhcurveto
          14 17 -2 -3 23 hvcurveto
          -88 callsubr
          -69 675 -105 callgsubr
        </CharString>
        <CharString name="T">
          -55 323 247 rmoveto
          -11 31 -5 28 30 vvcurveto
          29 5 30 10 36 vhcurveto
          6 vlineto
          -7 26 -4 -55 callgsubr
          6 callsubr
          1 9 vhcurveto
          14 hlineto
          27 27 4 callgsubr
          7 -2 -85 callsubr
          2 3 34 27 59 vvcurveto
          -1 57 -34 24 -2 -27 callgsubr
          -6 -2 rlineto
          -10 -32 -28 -5 -27 hhcurveto
          -29 -29 5 11 -33 -22 callgsubr
          -28 -34 -1 -27 hhcurveto
          -30 -29 4 10 -28 hvcurveto
          -5 -77 callsubr
          -47 -18 -70 vvcurveto
          -75 49 -20 2 vhcurveto
          5 -33 callgsubr
          12 33 33 6 33 hhcurveto
          5 hlineto
          -1 -35 -6 2 callsubr
          -2 -4 rcurveline
          -72 callsubr
          10 -31 5 -29 -30 vvcurveto
          -28 -4 -29 -32 callsubr
          -26 -24 -68 callgsubr
          -33 -73 callgsubr
          -4 -4 callgsubr
          rlineto
          -11 33 -6 29 29 vvcurveto
          31 6 30 -31 callgsubr
          rlineto
          endchar
        </CharString>
        <CharString name="Tbar">
          -53 400 300 rmoveto
          54 -33 23 -1 24 callsubr
          -13 -3 -14 -2 -16 -1 rlinecurve
          11 47 1 3 -1 3 -9 34 -5 34 4 36 rlinecurve
          31 1 31 -4 38 -11 7 -2 rcurveline
          5 4 1 2 37 29 -2 58 rlinecurve
          -1 57 -34 24 -2 -27 callgsubr
          -6 -2 -65 -21 -48 1 -65 21 rlinecurve
          -4 2 -4 -2 -9 -3 -60 -10 -54 -2 -53 18 rlinecurve
          -5 2 -5 callsubr
          -1 -49 -19 2 -73 rlinecurve
          -72 2 47 -19 2 hhcurveto
          5 -2 4 1 35 13 34 5 35 -1 rlinecurve
          -35 -7 -35 -14 -35 -87 callsubr
          2 -4 3 -11 3 -10 2 -10 rlinecurve
          -15 3 -13 3 -10 4 -5 18 callgsubr
          -1 rlineto
          -3 -1 -49 -16 -68 vvcurveto
          -1 -68 46 -19 2 -1 5 -2 rcurveline
          4 2 10 3 13 2 14 2 rlinecurve
          17 -71 -4 -50 -25 -61 -2 -4 rcurveline
          -4 callgsubr
          -23 65 1 52 21 63 rlinecurve
          26 -6 7 -2 -69 callgsubr
          2 2 38 26 54 vvcurveto
          endchar
        </CharString>
        <CharString name="Tcaron">
          -55 323 247 rmoveto
          -11 31 -5 28 30 vvcurveto
          29 5 30 10 36 vhcurveto
          6 vlineto
          -7 26 -4 -55 callgsubr
          6 callsubr
          1 9 vhcurveto
          14 hlineto
          27 27 4 callgsubr
          7 -2 -85 callsubr
          2 3 34 27 59 vvcurveto
          -1 57 -34 24 -2 -27 callgsubr
          -6 -2 rlineto
          -10 -32 -28 -5 -27 hhcurveto
          -29 -29 5 11 -33 -22 callgsubr
          -28 -34 -1 -27 hhcurveto
          -30 -29 4 10 -28 hvcurveto
          -5 -77 callsubr
          -47 -18 -70 vvcurveto
          -75 49 -20 2 vhcurveto
          5 -33 callgsubr
          12 33 33 6 33 hhcurveto
          5 hlineto
          -1 -35 -6 2 callsubr
          -2 -4 rcurveline
          -72 callsubr
          10 -31 5 -29 -30 vvcurveto
          -28 -4 -29 -32 callsubr
          -26 -24 -68 callgsubr
          -33 -73 callgsubr
          -4 -4 callgsubr
          rlineto
          -11 33 -6 29 29 vvcurveto
          31 6 30 -31 callgsubr
          rlineto
          70 672 rmoveto
          38 -36 34 -41 -33 callsubr
          -10 vhcurveto
          -5 -2 -1 -5 -11 -33 -15 -30 -19 -29 rlinecurve
          -15 26 -11 29 -10 32 -1 5 rcurveline
          -52 callgsubr
          7 -12 -14 4 -14 hhcurveto
          -38 -32 -27 -34 1 callsubr
          -7 39 -49 28 -56 17 -60 rlinecurve
          1 -4 4 -3 rlineto
          -6 10 12 -3 12 6 callgsubr
          1 3 9 hvcurveto
          -3 8 6 callsubr
          hhcurveto
          10 9 2 5 9 hvcurveto
          3 2 1 4 23 58 33 53 44 45 -36 callsubr
        </CharString>
        <CharString name="Tcommaaccent">
          -55 323 247 rmoveto
          -11 31 -5 28 30 vvcurveto
          29 5 30 10 36 vhcurveto
          6 vlineto
          -7 26 -4 -55 callgsubr
          6 callsubr
          1 9 vhcurveto
          14 hlineto
          27 27 4 callgsubr
          7 -2 -85 callsubr
          2 3 34 27 59 vvcurveto
          -1 57 -34 24 -2 -27 callgsubr
          -6 -2 rlineto
          -10 -32 -28 -5 -27 hhcurveto
          -29 -29 5 11 -33 -22 callgsubr
          -28 -34 -1 -27 hhcurveto
          -30 -29 4 10 -28 hvcurveto
          -5 -77 callsubr
          -47 -18 -70 vvcurveto
          -75 49 -20 2 vhcurveto
          5 -33 callgsubr
          12 33 33 6 33 hhcurveto
          5 hlineto
          -1 -35 -6 2 callsubr
          -2 -4 rcurveline
          -72 callsubr
          10 -31 5 -29 -30 vvcurveto
          -28 -4 -29 -32 callsubr
          -26 -24 -68 callgsubr
          -33 -73 callgsubr
          -4 -4 callgsubr
          rlineto
          -11 33 -6 29 29 vvcurveto
          31 6 30 -31 callgsubr
          rlineto
          -55 -352 -106 callgsubr
          endchar
        </CharString>
        <CharString name="Thorn">
          -95 callsubr
        </CharString>
        <CharString name="U">
          -107 callgsubr
          endchar
        </CharString>
        <CharString name="Uacute">
          -107 callgsubr
          177 226 -106 callgsubr
          endchar
        </CharString>
        <CharString name="Ubreve">
          -107 callgsubr
          197 276 rmoveto
          24 -12 -33 19 -34 hhcurveto
          -13 -13 -3 -7 -11 hvcurveto
          -5 33 callgsubr
          -1 -34 -6 -33 -11 -30 rlinecurve
          -1 -8 -9 0 -9 hhcurveto
          -11 -10 0 1 -10 hvcurveto
          -5 25 -2 26 28 vvcurveto
          23 vlineto
          31 callgsubr
          9 -12 -16 5 -19 hhcurveto
          -24 -32 -9 -26 -17 hvcurveto
          -3 -5 2 -6 rlineto
          22 -49 8 -48 -49 vvcurveto
          -1 -6 6 -4 10 -6 12 -4 13 -1 rlinecurve
          5 -6 6 -5 8 -4 7 -2 rcurveline
          2 15 16 2 15 hhcurveto
          30 30 -4 -8 32 hvcurveto
          5 -1 5 3 8 7 6 9 4 11 rlinecurve
          8 4 7 5 6 6 3 3 rcurveline
          3 vlineto
          5 45 14 43 24 44 3 18 callsubr
        </CharString>
        <CharString name="Ucircumflex">
          -107 callgsubr
          179 162 -105 callgsubr
        </CharString>
        <CharString name="Udieresis">
          -107 callgsubr
          197 229 rmoveto
          17 -21 -27 10 -29 hhcurveto
          -25 -26 -8 -15 -19 hvcurveto
          -6 -4 1 -7 rlineto
          5 -20 2 -21 -20 vvcurveto
          16 callgsubr
          -1 -9 vhcurveto
          -1 -6 5 -4 rlineto
          -14 19 24 -8 24 hhcurveto
          19 18 5 9 15 hvcurveto
          -44 callgsubr
          3 0 3 3 vvcurveto
          25 7 26 14 28 vhcurveto
          3 8 rlineto
          -190 14 rmoveto
          13 -13 -25 7 -29 hhcurveto
          -35 -33 -11 -18 -20 hvcurveto
          -6 -6 4 -7 rlineto
          14 -24 6 -24 -24 vvcurveto
          -6 0 -5 -1 -6 -26 callgsubr
          6 -3 rlineto
          -9 13 20 -5 21 hhcurveto
          28 25 9 15 15 hvcurveto
          4 -67 callsubr
          8 0 8 9 vvcurveto
          21 4 22 9 23 vhcurveto
          3 -23 callsubr
        </CharString>
        <CharString name="Ugrave">
          -107 callgsubr
          89 136 -102 callsubr
        </CharString>
        <CharString name="Uhungarumlaut">
          -107 callgsubr
          104 224 -106 callgsubr
          159 6 -106 callgsubr
          endchar
        </CharString>
        <CharString name="Umacron">
          -107 callgsubr
          173 146 -101 callsubr
        </CharString>
        <CharString name="Uogonek">
          75 256 654 rmoveto
          1 -1 -32 45 -68 hhcurveto
          -54 -25 -27 -84 callgsubr
          -5 -4 2 -7 rlineto
          5 -22 3 -22 -22 vvcurveto
          -43 -10 -41 -20 10 callsubr
          -4 rlineto
          6 -26 4 -23 -23 -68 callgsubr
          -34 -14 -39 -62 callsubr
          3 -21 2 -18 -17 vvcurveto
          -42 -10 -32 -21 -42 -93 callsubr
          -2 10 -29 36 -17 vhcurveto
          22 -67 36 -5 8 -4 5 -1 rcurveline
          4 3 rlineto
          34 56 52 1 67 -56 callsubr
          20 11 19 8 20 6 rlinecurve
          3 -5 6 -7 8 -6 -90 callsubr
          10 28 14 26 18 26 40 16 11 29 1 1 2 5 rcurveline
          -69 callsubr
          -17 39 -8 39 40 -15 callsubr
          28 8 28 vhcurveto
          1 4 -69 callsubr
          -16 37 -8 40 41 vvcurveto
          25 3 26 6 28 -71 callsubr
          -12 32 -6 32 34 -15 callsubr
          29 8 29 -46 callgsubr
          -5 5 -43 callsubr
          -29 31 -54 hhcurveto
          -70 -27 -39 -32 callgsubr
          -4 -6 30 callsubr
          13 -35 6 -34 -34 vvcurveto
          -30 -4 -29 -10 -30 2 callgsubr
          15 -39 8 -41 -42 vvcurveto
          -24 -2 -24 -5 -24 -42 callsubr
          6 -20 4 -43 callgsubr
          -6 -20 -21 -3 -22 hhcurveto
          -14 -15 2 2 -16 hvcurveto
          -8 -2 -25 -9 -18 -8 -21 -5 rlinecurve
          33 8 30 18 39 0 callgsubr
          -7 25 -3 22 23 vvcurveto
          35 8 35 15 43 -71 callsubr
          -4 20 -2 19 20 vvcurveto
          40 8 41 18 42 vhcurveto
          3 6 rlineto
          endchar
        </CharString>
        <CharString name="Uring">
          -107 callgsubr
          164 144 rmoveto
          8 0 8 -2 7 vhcurveto
          15 13 9 18 23 vvcurveto
          3 vlineto
          -2 3 -28 35 -21 40 -15 48 rlinecurve
          -2 5 -5 2 rlineto
          2 -6 -7 1 -6 -7 callgsubr
          -6 -11 -15 hvcurveto
          12 -16 -20 8 -19 hhcurveto
          -4 -4 -82 callgsubr
          -6 -1 -3 -6 -20 -48 -28 -42 -36 -32 rlinecurve
          -5 -5 1 -6 4 -16 10 -18 15 -12 rlinecurve
          -4 -10 -2 -9 -10 vvcurveto
          -26 9 -21 20 -11 vhcurveto
          -14 callsubr
          5 29 30 3 29 hhcurveto
          33 32 -3 -7 32 hvcurveto
          4 7 callsubr
          19 11 13 22 1 24 rlinecurve
          -125 108 rmoveto
          11 -15 10 -16 8 -16 rrcurveto
          -1 -12 -13 0 -12 hhcurveto
          -29 hlineto
          11 17 12 16 14 15 rrcurveto
          endchar
        </CharString>
        <CharString name="Utilde">
          -107 callgsubr
          281 260 rmoveto
          36 -2 -35 32 -40 hhcurveto
          -12 -12 -3 -5 -9 hvcurveto
          -5 -2 -1 -5 -9 -33 -14 -31 -17 -30 rlinecurve
          -16 26 -13 29 -11 31 -5 6 rcurveline
          6 -12 -12 3 -12 hhcurveto
          -4 -3 -82 callgsubr
          4 -9 -10 2 -10 hhcurveto
          -10 -9 -2 -2 -9 hvcurveto
          -5 callsubr
          -5 -21 -53 -31 -49 -45 -46 rlinecurve
          -3 -3 rlineto
          -4 vlineto
          -40 28 -40 44 7 10 2 4 8 vhcurveto
          5 6 14 31 16 30 20 28 rlinecurve
          17 -29 -8 callsubr
          -32 1 -4 rcurveline
          4 -2 rlineto
          -5 9 10 -3 11 hhcurveto
          10 10 2 4 10 hvcurveto
          -2 6 -2 callgsubr
          hhcurveto
          12 10 2 6 9 hvcurveto
          5 6 19 59 31 55 41 47 -36 callsubr
        </CharString>
        <CharString name="V">
          -1 505 604 rmoveto
          1 -1 -28 60 -76 hhcurveto
          -39 -21 -18 -1 -2 hvcurveto
          -4 -4 7 callgsubr
          -10 1 -9 -9 vvcurveto
          -53 -11 -38 -32 -49 vhcurveto
          -2 -8 rlineto
          1 -11 0 -10 -10 vvcurveto
          -47 -10 -39 -22 -46 vhcurveto
          -25 48 -11 52 64 vvcurveto
          -1 7 rlineto
          -28 45 -13 50 56 -59 callgsubr
          9 -67 callgsubr
          -24 18 -39 hhcurveto
          -86 -26 -62 1 hvcurveto
          -3 -6 3 -5 rlineto
          29 -47 14 -50 -53 vvcurveto
          -13 -1 -12 -1 -13 vhcurveto
          2 -8 rlineto
          35 -56 17 -62 -70 vvcurveto
          2 -6 rlineto
          28 -52 13 -52 -52 vvcurveto
          -13 -1 -12 -1 -13 vhcurveto
          -1 -5 3 -25 callgsubr
          1 21 -29 48 hhcurveto
          35 30 14 13 20 hvcurveto
          14 hlineto
          48 21 29 2 1 hvcurveto
          3 4 rlineto
          4 vlineto
          -1 11 -1 11 11 vvcurveto
          59 16 54 30 50 vhcurveto
          2 8 rlineto
          -1 12 -1 11 11 vvcurveto
          48 11 40 28 54 -46 callgsubr
          rlineto
          -1 8 0 7 7 vvcurveto
          49 10 36 30 51 vhcurveto
          3 6 rlineto
          endchar
        </CharString>
        <CharString name="W">
          228 725 625 rmoveto
          3 -1 -31 53 -79 hhcurveto
          -44 -23 -20 -1 -1 12 callsubr
          1 -6 rlineto
          2 -14 1 -14 -13 vvcurveto
          -52 -14 -49 -28 -47 vhcurveto
          -2 -24 callgsubr
          2 -16 2 -16 -16 vvcurveto
          -14 -1 -13 -2 -14 vhcurveto
          -7 23 -2 24 42 vvcurveto
          -2 7 rlineto
          -27 46 -12 26 50 vvcurveto
          7 0 8 -67 callgsubr
          -23 19 -37 hhcurveto
          -75 -24 -59 1 hvcurveto
          -2 -5 30 callsubr
          -1 vlineto
          -3 -35 -11 -30 -21 -36 -2 -4 rcurveline
          -45 callgsubr
          2 -16 1 -16 -14 vvcurveto
          -29 -4 -27 -9 -29 vhcurveto
          -16 40 -6 44 51 vvcurveto
          -1 7 rlineto
          -28 45 -13 50 56 -59 callgsubr
          9 -67 callgsubr
          -24 18 -39 hhcurveto
          -86 -26 -62 1 hvcurveto
          -3 -6 3 -5 rlineto
          29 -47 14 -50 -53 vvcurveto
          -13 -1 -12 -1 -13 vhcurveto
          2 -8 rlineto
          35 -56 17 -62 -70 vvcurveto
          2 -6 rlineto
          28 -52 13 -52 -52 vvcurveto
          -13 -1 -12 -1 -13 vhcurveto
          -1 -5 3 -25 callgsubr
          1 21 -29 48 hhcurveto
          35 28 12 13 19 hvcurveto
          50 1 21 31 1 2 3 4 rcurveline
          -66 callsubr
          -2 16 -2 16 16 vvcurveto
          44 9 43 19 40 vhcurveto
          14 -34 6 -27 -31 vvcurveto
          -13 0 -14 -2 -15 vhcurveto
          -5 vlineto
          3 -25 callgsubr
          7 -11 15 -8 vhcurveto
          -3 -5 -45 callgsubr
          0 16 -69 98 57 22 32 2 -40 callsubr
          -80 callsubr
          -7 callsubr
          18 vvcurveto
          50 13 48 25 46 vhcurveto
          2 8 rlineto
          -3 17 -1 16 17 vvcurveto
          48 11 48 23 50 16 callsubr
          rlineto
          -2 12 -1 12 12 vvcurveto
          49 13 47 26 48 vhcurveto
          3 6 rlineto
          endchar
        </CharString>
        <CharString name="Wacute">
          228 725 625 rmoveto
          3 -1 -31 53 -79 hhcurveto
          -44 -23 -20 -1 -1 12 callsubr
          1 -6 rlineto
          2 -14 1 -14 -13 vvcurveto
          -52 -14 -49 -28 -47 vhcurveto
          -2 -24 callgsubr
          2 -16 2 -16 -16 vvcurveto
          -14 -1 -13 -2 -14 vhcurveto
          -7 23 -2 24 42 vvcurveto
          -2 7 rlineto
          -27 46 -12 26 50 vvcurveto
          7 0 8 -67 callgsubr
          -23 19 -37 hhcurveto
          -75 -24 -59 1 hvcurveto
          -2 -5 30 callsubr
          -1 vlineto
          -3 -35 -11 -30 -21 -36 -2 -4 rcurveline
          -45 callgsubr
          2 -16 1 -16 -14 vvcurveto
          -29 -4 -27 -9 -29 vhcurveto
          -16 40 -6 44 51 vvcurveto
          -1 7 rlineto
          -28 45 -13 50 56 -59 callgsubr
          9 -67 callgsubr
          -24 18 -39 hhcurveto
          -86 -26 -62 1 hvcurveto
          -3 -6 3 -5 rlineto
          29 -47 14 -50 -53 vvcurveto
          -13 -1 -12 -1 -13 vhcurveto
          2 -8 rlineto
          35 -56 17 -62 -70 vvcurveto
          2 -6 rlineto
          28 -52 13 -52 -52 vvcurveto
          -13 -1 -12 -1 -13 vhcurveto
          -1 -5 3 -25 callgsubr
          1 21 -29 48 hhcurveto
          35 28 12 13 19 hvcurveto
          50 1 21 31 1 2 3 4 rcurveline
          -66 callsubr
          -2 16 -2 16 16 vvcurveto
          44 9 43 19 40 vhcurveto
          14 -34 6 -27 -31 vvcurveto
          -13 0 -14 -2 -15 vhcurveto
          -5 vlineto
          3 -25 callgsubr
          7 -11 15 -8 vhcurveto
          -3 -5 -45 callgsubr
          0 16 -69 98 57 22 32 2 -40 callsubr
          -80 callsubr
          -7 callsubr
          18 vvcurveto
          50 13 48 25 46 vhcurveto
          2 8 rlineto
          -3 17 -1 16 17 vvcurveto
          48 11 48 23 50 16 callsubr
          rlineto
          -2 12 -1 12 12 vvcurveto
          49 13 47 26 48 vhcurveto
          3 6 rlineto
          -199 202 -106 callgsubr
          endchar
        </CharString>
        <CharString name="Wcircumflex">
          228 725 625 rmoveto
          3 -1 -31 53 -79 hhcurveto
          -44 -23 -20 -1 -1 12 callsubr
          1 -6 rlineto
          2 -14 1 -14 -13 vvcurveto
          -52 -14 -49 -28 -47 vhcurveto
          -2 -24 callgsubr
          2 -16 2 -16 -16 vvcurveto
          -14 -1 -13 -2 -14 vhcurveto
          -7 23 -2 24 42 vvcurveto
          -2 7 rlineto
          -27 46 -12 26 50 vvcurveto
          7 0 8 -67 callgsubr
          -23 19 -37 hhcurveto
          -75 -24 -59 1 hvcurveto
          -2 -5 30 callsubr
          -1 vlineto
          -3 -35 -11 -30 -21 -36 -2 -4 rcurveline
          -45 callgsubr
          2 -16 1 -16 -14 vvcurveto
          -29 -4 -27 -9 -29 vhcurveto
          -16 40 -6 44 51 vvcurveto
          -1 7 rlineto
          -28 45 -13 50 56 -59 callgsubr
          9 -67 callgsubr
          -24 18 -39 hhcurveto
          -86 -26 -62 1 hvcurveto
          -3 -6 3 -5 rlineto
          29 -47 14 -50 -53 vvcurveto
          -13 -1 -12 -1 -13 vhcurveto
          2 -8 rlineto
          35 -56 17 -62 -70 vvcurveto
          2 -6 rlineto
          28 -52 13 -52 -52 vvcurveto
          -13 -1 -12 -1 -13 vhcurveto
          -1 -5 3 -25 callgsubr
          1 21 -29 48 hhcurveto
          35 28 12 13 19 hvcurveto
          50 1 21 31 1 2 3 4 rcurveline
          -66 callsubr
          -2 16 -2 16 16 vvcurveto
          44 9 43 19 40 vhcurveto
          14 -34 6 -27 -31 vvcurveto
          -13 0 -14 -2 -15 vhcurveto
          -5 vlineto
          3 -25 callgsubr
          7 -11 15 -8 vhcurveto
          -3 -5 -45 callgsubr
          0 16 -69 98 57 22 32 2 -40 callsubr
          -80 callsubr
          -7 callsubr
          18 vvcurveto
          50 13 48 25 46 vhcurveto
          2 8 rlineto
          -3 17 -1 16 17 vvcurveto
          48 11 48 23 50 16 callsubr
          rlineto
          -2 12 -1 12 12 vvcurveto
          49 13 47 26 48 vhcurveto
          3 6 rlineto
          -209 134 -105 callgsubr
        </CharString>
        <CharString name="Wdieresis">
          228 725 625 rmoveto
          3 -1 -31 53 -79 hhcurveto
          -44 -23 -20 -1 -1 12 callsubr
          1 -6 rlineto
          2 -14 1 -14 -13 vvcurveto
          -52 -14 -49 -28 -47 vhcurveto
          -2 -24 callgsubr
          2 -16 2 -16 -16 vvcurveto
          -14 -1 -13 -2 -14 vhcurveto
          -7 23 -2 24 42 vvcurveto
          -2 7 rlineto
          -27 46 -12 26 50 vvcurveto
          7 0 8 -67 callgsubr
          -23 19 -37 hhcurveto
          -75 -24 -59 1 hvcurveto
          -2 -5 30 callsubr
          -1 vlineto
          -3 -35 -11 -30 -21 -36 -2 -4 rcurveline
          -45 callgsubr
          2 -16 1 -16 -14 vvcurveto
          -29 -4 -27 -9 -29 vhcurveto
          -16 40 -6 44 51 vvcurveto
          -1 7 rlineto
          -28 45 -13 50 56 -59 callgsubr
          9 -67 callgsubr
          -24 18 -39 hhcurveto
          -86 -26 -62 1 hvcurveto
          -3 -6 3 -5 rlineto
          29 -47 14 -50 -53 vvcurveto
          -13 -1 -12 -1 -13 vhcurveto
          2 -8 rlineto
          35 -56 17 -62 -70 vvcurveto
          2 -6 rlineto
          28 -52 13 -52 -52 vvcurveto
          -13 -1 -12 -1 -13 vhcurveto
          -1 -5 3 -25 callgsubr
          1 21 -29 48 hhcurveto
          35 28 12 13 19 hvcurveto
          50 1 21 31 1 2 3 4 rcurveline
          -66 callsubr
          -2 16 -2 16 16 vvcurveto
          44 9 43 19 40 vhcurveto
          14 -34 6 -27 -31 vvcurveto
          -13 0 -14 -2 -15 vhcurveto
          -5 vlineto
          3 -25 callgsubr
          7 -11 15 -8 vhcurveto
          -3 -5 -45 callgsubr
          0 16 -69 98 57 22 32 2 -40 callsubr
          -80 callsubr
          -7 callsubr
          18 vvcurveto
          50 13 48 25 46 vhcurveto
          2 8 rlineto
          -3 17 -1 16 17 vvcurveto
          48 11 48 23 50 16 callsubr
          rlineto
          -2 12 -1 12 12 vvcurveto
          49 13 47 26 48 vhcurveto
          3 6 rlineto
          -191 189 rmoveto
          17 -21 -27 10 -29 hhcurveto
          -25 -26 -8 -15 -19 hvcurveto
          -6 -4 1 -7 rlineto
          5 -20 2 -21 -20 vvcurveto
          16 callgsubr
          -1 -9 vhcurveto
          -1 -6 5 -4 rlineto
          -14 19 24 -8 24 hhcurveto
          19 18 5 9 15 hvcurveto
          -44 callgsubr
          3 0 3 3 vvcurveto
          25 7 26 14 28 vhcurveto
          3 8 rlineto
          -190 14 rmoveto
          13 -13 -25 7 -29 hhcurveto
          -35 -33 -11 -18 -20 hvcurveto
          -6 -6 4 -7 rlineto
          14 -24 6 -24 -24 vvcurveto
          -6 0 -5 -1 -6 -26 callgsubr
          6 -3 rlineto
          -9 13 20 -5 21 hhcurveto
          28 25 9 15 15 hvcurveto
          4 -67 callsubr
          8 0 8 9 vvcurveto
          21 4 22 9 23 vhcurveto
          3 -23 callsubr
        </CharString>
        <CharString name="Wgrave">
          228 725 625 rmoveto
          3 -1 -31 53 -79 hhcurveto
          -44 -23 -20 -1 -1 12 callsubr
          1 -6 rlineto
          2 -14 1 -14 -13 vvcurveto
          -52 -14 -49 -28 -47 vhcurveto
          -2 -24 callgsubr
          2 -16 2 -16 -16 vvcurveto
          -14 -1 -13 -2 -14 vhcurveto
          -7 23 -2 24 42 vvcurveto
          -2 7 rlineto
          -27 46 -12 26 50 vvcurveto
          7 0 8 -67 callgsubr
          -23 19 -37 hhcurveto
          -75 -24 -59 1 hvcurveto
          -2 -5 30 callsubr
          -1 vlineto
          -3 -35 -11 -30 -21 -36 -2 -4 rcurveline
          -45 callgsubr
          2 -16 1 -16 -14 vvcurveto
          -29 -4 -27 -9 -29 vhcurveto
          -16 40 -6 44 51 vvcurveto
          -1 7 rlineto
          -28 45 -13 50 56 -59 callgsubr
          9 -67 callgsubr
          -24 18 -39 hhcurveto
          -86 -26 -62 1 hvcurveto
          -3 -6 3 -5 rlineto
          29 -47 14 -50 -53 vvcurveto
          -13 -1 -12 -1 -13 vhcurveto
          2 -8 rlineto
          35 -56 17 -62 -70 vvcurveto
          2 -6 rlineto
          28 -52 13 -52 -52 vvcurveto
          -13 -1 -12 -1 -13 vhcurveto
          -1 -5 3 -25 callgsubr
          1 21 -29 48 hhcurveto
          35 28 12 13 19 hvcurveto
          50 1 21 31 1 2 3 4 rcurveline
          -66 callsubr
          -2 16 -2 16 16 vvcurveto
          44 9 43 19 40 vhcurveto
          14 -34 6 -27 -31 vvcurveto
          -13 0 -14 -2 -15 vhcurveto
          -5 vlineto
          3 -25 callgsubr
          7 -11 15 -8 vhcurveto
          -3 -5 -45 callgsubr
          0 16 -69 98 57 22 32 2 -40 callsubr
          -80 callsubr
          -7 callsubr
          18 vvcurveto
          50 13 48 25 46 vhcurveto
          2 8 rlineto
          -3 17 -1 16 17 vvcurveto
          48 11 48 23 50 16 callsubr
          rlineto
          -2 12 -1 12 12 vvcurveto
          49 13 47 26 48 vhcurveto
          3 6 rlineto
          -306 115 -102 callsubr
        </CharString>
        <CharString name="X">
          -24 475 577 rmoveto
          -3 1 -24 97 -96 hhcurveto
          -20 -13 -6 0 hvcurveto
          -6 -3 -2 -6 -12 -56 -25 -47 -36 -40 rlinecurve
          -34 40 -21 47 -12 58 -2 6 rcurveline
          -6 3 rlineto
          -1 -15 7 -22 hhcurveto
          -17 -21 -4 -13 -22 hvcurveto
          -51 -29 -6 -43 -1 vvcurveto
          -1 -7 5 -4 50 -50 31 -57 11 -69 rlinecurve
          1 -5 3 -3 14 -14 14 -14 11 -16 rlinecurve
          -11 -15 -12 -16 -13 -14 -3 -5 rcurveline
          -21 -73 -35 -57 -51 -44 -4 -20 callgsubr
          -7 vlineto
          -11 16 -90 100 30 18 13 1 1 vhcurveto
          4 3 1 5 10 58 25 52 37 43 rlinecurve
          37 -47 22 -50 9 -55 1 -5 rcurveline
          4 -3 rlineto
          -1 1 17 -15 31 hhcurveto
          16 20 4 13 22 hvcurveto
          65 37 -6 53 1 vvcurveto
          -1 5 -4 3 -54 49 -34 61 -14 70 rlinecurve
          -1 5 -4 3 -14 12 -12 13 -12 15 rlinecurve
          12 16 13 16 15 16 3 7 rcurveline
          15 61 31 53 51 48 5 18 callsubr
        </CharString>
        <CharString name="Y">
          -104 callgsubr
          endchar
        </CharString>
        <CharString name="Yacute">
          -104 callgsubr
          -118 232 -106 callgsubr
          endchar
        </CharString>
        <CharString name="Ycircumflex">
          -104 callgsubr
          -119 197 -105 callgsubr
        </CharString>
        <CharString name="Ydieresis">
          -104 callgsubr
          -99 245 rmoveto
          17 -21 -27 10 -29 hhcurveto
          -25 -26 -8 -15 -19 hvcurveto
          -6 -4 1 -7 rlineto
          5 -20 2 -21 -20 vvcurveto
          16 callgsubr
          -1 -9 vhcurveto
          -1 -6 5 -4 rlineto
          -14 19 24 -8 24 hhcurveto
          19 18 5 9 15 hvcurveto
          -44 callgsubr
          3 0 3 3 vvcurveto
          25 7 26 14 28 vhcurveto
          3 8 rlineto
          -190 14 rmoveto
          13 -13 -25 7 -29 hhcurveto
          -35 -33 -11 -18 -20 hvcurveto
          -6 -6 4 -7 rlineto
          14 -24 6 -24 -24 vvcurveto
          -6 0 -5 -1 -6 -26 callgsubr
          6 -3 rlineto
          -9 13 20 -5 21 hhcurveto
          28 25 9 15 15 hvcurveto
          4 -67 callsubr
          8 0 8 9 vvcurveto
          21 4 22 9 23 vhcurveto
          3 -23 callsubr
        </CharString>
        <CharString name="Ygrave">
          -104 callgsubr
          -215 162 -102 callsubr
        </CharString>
        <CharString name="Z">
          -50 463 568 rmoveto
          -1 2 -6 33 -32 28 -9 42 -25 19 -1 -48 callgsubr
          -11 -32 -21 13 callgsubr
          -20 -21 5 10 -30 -1 callsubr
          -13 -13 -51 0 -7 hhcurveto
          -16 -16 3 9 -25 hvcurveto
          -5 -77 callsubr
          -43 -19 -66 vvcurveto
          -76 50 -20 1 vhcurveto
          -66 callgsubr
          2 rlineto
          13 33 18 6 22 hhcurveto
          15 18 -3 -5 25 hvcurveto
          -11 -13 -12 -11 -13 -11 -4 -7 rcurveline
          -12 -64 -30 -58 -49 -50 -3 -6 rcurveline
          -19 -71 -35 -55 -51 -42 -3 -20 callgsubr
          -5 vlineto
          -14 4 -41 57 -31 vhcurveto
          4 -3 4 -2 4 -2 14 -17 15 -6 1 -1 rrcurveto
          9 hlineto
          13 33 18 6 22 hhcurveto
          16 19 -3 -6 28 hvcurveto
          7 hlineto
          10 28 19 5 20 hhcurveto
          19 20 -4 -9 30 hvcurveto
          6 -1 -85 callsubr
          1 1 32 27 52 vvcurveto
          7 vlineto
          -3 57 -33 23 -1 -48 callgsubr
          -11 -32 -20 13 callgsubr
          -20 -20 5 9 -29 hvcurveto
          28 27 4 7 11 64 30 57 53 54 rlinecurve
          3 6 13 60 31 51 50 46 rlinecurve
          5 5 rlineto
          endchar
        </CharString>
        <CharString name="Zacute">
          -50 463 568 rmoveto
          -1 2 -6 33 -32 28 -9 42 -25 19 -1 -48 callgsubr
          -11 -32 -21 13 callgsubr
          -20 -21 5 10 -30 -1 callsubr
          -13 -13 -51 0 -7 hhcurveto
          -16 -16 3 9 -25 hvcurveto
          -5 -77 callsubr
          -43 -19 -66 vvcurveto
          -76 50 -20 1 vhcurveto
          -66 callgsubr
          2 rlineto
          13 33 18 6 22 hhcurveto
          15 18 -3 -5 25 hvcurveto
          -11 -13 -12 -11 -13 -11 -4 -7 rcurveline
          -12 -64 -30 -58 -49 -50 -3 -6 rcurveline
          -19 -71 -35 -55 -51 -42 -3 -20 callgsubr
          -5 vlineto
          -14 4 -41 57 -31 vhcurveto
          4 -3 4 -2 4 -2 14 -17 15 -6 1 -1 rrcurveto
          9 hlineto
          13 33 18 6 22 hhcurveto
          16 19 -3 -6 28 hvcurveto
          7 hlineto
          10 28 19 5 20 hhcurveto
          19 20 -4 -9 30 hvcurveto
          6 -1 -85 callsubr
          1 1 32 27 52 vvcurveto
          7 vlineto
          -3 57 -33 23 -1 -48 callgsubr
          -11 -32 -20 13 callgsubr
          -20 -20 5 9 -29 hvcurveto
          28 27 4 7 11 64 30 57 53 54 rlinecurve
          3 6 13 60 31 51 50 46 rlinecurve
          5 5 rlineto
          -79 300 -106 callgsubr
          endchar
        </CharString>
        <CharString name="Zcaron">
          -50 463 568 rmoveto
          -1 2 -6 33 -32 28 -9 42 -25 19 -1 -48 callgsubr
          -11 -32 -21 13 callgsubr
          -20 -21 5 10 -30 -1 callsubr
          -13 -13 -51 0 -7 hhcurveto
          -16 -16 3 9 -25 hvcurveto
          -5 -77 callsubr
          -43 -19 -66 vvcurveto
          -76 50 -20 1 vhcurveto
          -66 callgsubr
          2 rlineto
          13 33 18 6 22 hhcurveto
          15 18 -3 -5 25 hvcurveto
          -11 -13 -12 -11 -13 -11 -4 -7 rcurveline
          -12 -64 -30 -58 -49 -50 -3 -6 rcurveline
          -19 -71 -35 -55 -51 -42 -3 -20 callgsubr
          -5 vlineto
          -14 4 -41 57 -31 vhcurveto
          4 -3 4 -2 4 -2 14 -17 15 -6 1 -1 rrcurveto
          9 hlineto
          13 33 18 6 22 hhcurveto
          16 19 -3 -6 28 hvcurveto
          7 hlineto
          10 28 19 5 20 hhcurveto
          19 20 -4 -9 30 hvcurveto
          6 -1 -85 callsubr
          1 1 32 27 52 vvcurveto
          7 vlineto
          -3 57 -33 23 -1 -48 callgsubr
          -11 -32 -20 13 callgsubr
          -20 -20 5 9 -29 hvcurveto
          28 27 4 7 11 64 30 57 53 54 rlinecurve
          3 6 13 60 31 51 50 46 rlinecurve
          5 5 rlineto
          -72 344 rmoveto
          38 -36 34 -41 -33 callsubr
          -10 vhcurveto
          -5 -2 -1 -5 -11 -33 -15 -30 -19 -29 rlinecurve
          -15 26 -11 29 -10 32 -1 5 rcurveline
          -52 callgsubr
          7 -12 -14 4 -14 hhcurveto
          -38 -32 -27 -34 1 callsubr
          -7 39 -49 28 -56 17 -60 rlinecurve
          1 -4 4 -3 rlineto
          -6 10 12 -3 12 6 callgsubr
          1 3 9 hvcurveto
          -3 8 6 callsubr
          hhcurveto
          10 9 2 5 9 hvcurveto
          3 2 1 4 23 58 33 53 44 45 -36 callsubr
        </CharString>
        <CharString name="Zdotaccent">
          -50 463 568 rmoveto
          -1 2 -6 33 -32 28 -9 42 -25 19 -1 -48 callgsubr
          -11 -32 -21 13 callgsubr
          -20 -21 5 10 -30 -1 callsubr
          -13 -13 -51 0 -7 hhcurveto
          -16 -16 3 9 -25 hvcurveto
          -5 -77 callsubr
          -43 -19 -66 vvcurveto
          -76 50 -20 1 vhcurveto
          -66 callgsubr
          2 rlineto
          13 33 18 6 22 hhcurveto
          15 18 -3 -5 25 hvcurveto
          -11 -13 -12 -11 -13 -11 -4 -7 rcurveline
          -12 -64 -30 -58 -49 -50 -3 -6 rcurveline
          -19 -71 -35 -55 -51 -42 -3 -20 callgsubr
          -5 vlineto
          -14 4 -41 57 -31 vhcurveto
          4 -3 4 -2 4 -2 14 -17 15 -6 1 -1 rrcurveto
          9 hlineto
          13 33 18 6 22 hhcurveto
          16 19 -3 -6 28 hvcurveto
          7 hlineto
          10 28 19 5 20 hhcurveto
          19 20 -4 -9 30 hvcurveto
          6 -1 -85 callsubr
          1 1 32 27 52 vvcurveto
          7 vlineto
          -3 57 -33 23 -1 -48 callgsubr
          -11 -32 -20 13 callgsubr
          -20 -20 5 9 -29 hvcurveto
          28 27 4 7 11 64 30 57 53 54 rlinecurve
          3 6 13 60 31 51 50 46 rlinecurve
          5 5 rlineto
          -151 309 rmoveto
          13 -13 -25 7 -29 hhcurveto
          -35 -33 -11 -18 -20 hvcurveto
          -6 -6 4 -7 rlineto
          14 -24 6 -24 -24 vvcurveto
          -6 0 -5 -1 -6 -26 callgsubr
          6 -3 rlineto
          -9 13 20 -5 21 hhcurveto
          28 25 9 15 15 hvcurveto
          4 -67 callsubr
          8 0 8 9 vvcurveto
          21 4 22 9 23 vhcurveto
          3 -23 callsubr
        </CharString>
        <CharString name="a">
          0 522 255 rmoveto
          -13 57 -37 18 -1 1 -6 -3 callgsubr
          -3 -12 -7 -12 -6 -13 -5 rlinecurve
          -8 28 -2 31 34 vvcurveto
          13 vlineto
          -47 callsubr
          -27 48 -14 54 57 vvcurveto
          8 0 7 1 8 vhcurveto
          1 7 -6 -8 callgsubr
          -18 6 -28 hhcurveto
          -7 hlineto
          1 1 1 -51 callsubr
          6 -3 -53 callsubr
          -30 59 -81 hhcurveto
          -42 -22 -19 -1 -2 hvcurveto
          -4 -4 7 callgsubr
          1 -11 1 -11 -10 vvcurveto
          -56 -16 -51 -31 -48 vhcurveto
          -3 -4 11 callgsubr
          1 -13 1 -13 -13 vvcurveto
          -51 -12 -51 -25 -50 -39 callgsubr
          rlineto
          -17 vlineto
          -67 -16 -57 -33 -51 -74 callsubr
          0 12 -73 104 53 22 30 -51 callsubr
          -67 callsubr
          14 -1 14 14 vvcurveto
          15 vlineto
          14 42 44 4 41 hhcurveto
          7 11 callsubr
          1 1 -24 callsubr
          4 -22 2 -22 -23 -8 -1 -8 -8 vvcurveto
          -14 callgsubr
          -4 rlineto
          1 22 -13 34 -1 callgsubr
          2 3 12 hvcurveto
          53 12 23 27 1 1 6 7 rcurveline
          -5 8 -17 28 -14 30 -9 32 rlinecurve
          9 9 0 -12 callgsubr
          -15 callgsubr
          rlineto
          1 2 19 25 40 vvcurveto
          9 -1 10 -2 11 vhcurveto
          -263 125 rmoveto
          -8 callsubr
          -29 7 -28 rrcurveto
          -9 callgsubr
          1 -4 hvcurveto
          -8 -2 -13 -7 -13 -5 -14 -5 rlinecurve
          13 vlineto
          37 7 39 15 39 vhcurveto
          endchar
        </CharString>
        <CharString name="aacute">
          0 522 255 rmoveto
          -13 57 -37 18 -1 1 -6 -3 callgsubr
          -3 -12 -7 -12 -6 -13 -5 rlinecurve
          -8 28 -2 31 34 vvcurveto
          13 vlineto
          -47 callsubr
          -27 48 -14 54 57 vvcurveto
          8 0 7 1 8 vhcurveto
          1 7 -6 -8 callgsubr
          -18 6 -28 hhcurveto
          -7 hlineto
          1 1 1 -51 callsubr
          6 -3 -53 callsubr
          -30 59 -81 hhcurveto
          -42 -22 -19 -1 -2 hvcurveto
          -4 -4 7 callgsubr
          1 -11 1 -11 -10 vvcurveto
          -56 -16 -51 -31 -48 vhcurveto
          -3 -4 11 callgsubr
          1 -13 1 -13 -13 vvcurveto
          -51 -12 -51 -25 -50 -39 callgsubr
          rlineto
          -17 vlineto
          -67 -16 -57 -33 -51 -74 callsubr
          0 12 -73 104 53 22 30 -51 callsubr
          -67 callsubr
          14 -1 14 14 vvcurveto
          15 vlineto
          14 42 44 4 41 hhcurveto
          7 11 callsubr
          1 1 -24 callsubr
          4 -22 2 -22 -23 -8 -1 -8 -8 vvcurveto
          -14 callgsubr
          -4 rlineto
          1 22 -13 34 -1 callgsubr
          2 3 12 hvcurveto
          53 12 23 27 1 1 6 7 rcurveline
          -5 8 -17 28 -14 30 -9 32 rlinecurve
          9 9 0 -12 callgsubr
          -15 callgsubr
          rlineto
          1 2 19 25 40 vvcurveto
          9 -1 10 -2 11 vhcurveto
          -263 125 rmoveto
          -8 callsubr
          -29 7 -28 rrcurveto
          -9 callgsubr
          1 -4 hvcurveto
          -8 -2 -13 -7 -13 -5 -14 -5 rlinecurve
          13 vlineto
          37 7 39 15 39 vhcurveto
          180 464 -106 callgsubr
          endchar
        </CharString>
        <CharString name="abreve">
          0 522 255 rmoveto
          -13 57 -37 18 -1 1 -6 -3 callgsubr
          -3 -12 -7 -12 -6 -13 -5 rlinecurve
          -8 28 -2 31 34 vvcurveto
          13 vlineto
          -47 callsubr
          -27 48 -14 54 57 vvcurveto
          8 0 7 1 8 vhcurveto
          1 7 -6 -8 callgsubr
          -18 6 -28 hhcurveto
          -7 hlineto
          1 1 1 -51 callsubr
          6 -3 -53 callsubr
          -30 59 -81 hhcurveto
          -42 -22 -19 -1 -2 hvcurveto
          -4 -4 7 callgsubr
          1 -11 1 -11 -10 vvcurveto
          -56 -16 -51 -31 -48 vhcurveto
          -3 -4 11 callgsubr
          1 -13 1 -13 -13 vvcurveto
          -51 -12 -51 -25 -50 -39 callgsubr
          rlineto
          -17 vlineto
          -67 -16 -57 -33 -51 -74 callsubr
          0 12 -73 104 53 22 30 -51 callsubr
          -67 callsubr
          14 -1 14 14 vvcurveto
          15 vlineto
          14 42 44 4 41 hhcurveto
          7 11 callsubr
          1 1 -24 callsubr
          4 -22 2 -22 -23 -8 -1 -8 -8 vvcurveto
          -14 callgsubr
          -4 rlineto
          1 22 -13 34 -1 callgsubr
          2 3 12 hvcurveto
          53 12 23 27 1 1 6 7 rcurveline
          -5 8 -17 28 -14 30 -9 32 rlinecurve
          9 9 0 -12 callgsubr
          -15 callgsubr
          rlineto
          1 2 19 25 40 vvcurveto
          9 -1 10 -2 11 vhcurveto
          -263 125 rmoveto
          -8 callsubr
          -29 7 -28 rrcurveto
          -9 callgsubr
          1 -4 hvcurveto
          -8 -2 -13 -7 -13 -5 -14 -5 rlinecurve
          13 vlineto
          37 7 39 15 39 vhcurveto
          166 509 rmoveto
          24 -12 -33 19 -34 hhcurveto
          -13 -13 -3 -7 -11 hvcurveto
          -5 33 callgsubr
          -1 -34 -6 -33 -11 -30 rlinecurve
          -1 -8 -9 0 -9 hhcurveto
          -11 -10 0 1 -10 hvcurveto
          -5 25 -2 26 28 vvcurveto
          23 vlineto
          31 callgsubr
          9 -12 -16 5 -19 hhcurveto
          -24 -32 -9 -26 -17 hvcurveto
          -3 -5 2 -6 rlineto
          22 -49 8 -48 -49 vvcurveto
          -1 -6 6 -4 10 -6 12 -4 13 -1 rlinecurve
          5 -6 6 -5 8 -4 7 -2 rcurveline
          2 15 16 2 15 hhcurveto
          30 30 -4 -8 32 hvcurveto
          5 -1 5 3 8 7 6 9 4 11 rlinecurve
          8 4 7 5 6 6 3 3 rcurveline
          3 vlineto
          5 45 14 43 24 44 3 18 callsubr
        </CharString>
        <CharString name="acircumflex">
          0 522 255 rmoveto
          -13 57 -37 18 -1 1 -6 -3 callgsubr
          -3 -12 -7 -12 -6 -13 -5 rlinecurve
          -8 28 -2 31 34 vvcurveto
          13 vlineto
          -47 callsubr
          -27 48 -14 54 57 vvcurveto
          8 0 7 1 8 vhcurveto
          1 7 -6 -8 callgsubr
          -18 6 -28 hhcurveto
          -7 hlineto
          1 1 1 -51 callsubr
          6 -3 -53 callsubr
          -30 59 -81 hhcurveto
          -42 -22 -19 -1 -2 hvcurveto
          -4 -4 7 callgsubr
          1 -11 1 -11 -10 vvcurveto
          -56 -16 -51 -31 -48 vhcurveto
          -3 -4 11 callgsubr
          1 -13 1 -13 -13 vvcurveto
          -51 -12 -51 -25 -50 -39 callgsubr
          rlineto
          -17 vlineto
          -67 -16 -57 -33 -51 -74 callsubr
          0 12 -73 104 53 22 30 -51 callsubr
          -67 callsubr
          14 -1 14 14 vvcurveto
          15 vlineto
          14 42 44 4 41 hhcurveto
          7 11 callsubr
          1 1 -24 callsubr
          4 -22 2 -22 -23 -8 -1 -8 -8 vvcurveto
          -14 callgsubr
          -4 rlineto
          1 22 -13 34 -1 callgsubr
          2 3 12 hvcurveto
          53 12 23 27 1 1 6 7 rcurveline
          -5 8 -17 28 -14 30 -9 32 rlinecurve
          9 9 0 -12 callgsubr
          -15 callgsubr
          rlineto
          1 2 19 25 40 vvcurveto
          9 -1 10 -2 11 vhcurveto
          -263 125 rmoveto
          -8 callsubr
          -29 7 -28 rrcurveto
          -9 callgsubr
          1 -4 hvcurveto
          -8 -2 -13 -7 -13 -5 -14 -5 rlinecurve
          13 vlineto
          37 7 39 15 39 vhcurveto
          159 404 -105 callgsubr
        </CharString>
        <CharString name="acute">
          -306 201 890 -106 callgsubr
          endchar
        </CharString>
        <CharString name="adieresis">
          0 522 255 rmoveto
          -13 57 -37 18 -1 1 -6 -3 callgsubr
          -3 -12 -7 -12 -6 -13 -5 rlinecurve
          -8 28 -2 31 34 vvcurveto
          13 vlineto
          -47 callsubr
          -27 48 -14 54 57 vvcurveto
          8 0 7 1 8 vhcurveto
          1 7 -6 -8 callgsubr
          -18 6 -28 hhcurveto
          -7 hlineto
          1 1 1 -51 callsubr
          6 -3 -53 callsubr
          -30 59 -81 hhcurveto
          -42 -22 -19 -1 -2 hvcurveto
          -4 -4 7 callgsubr
          1 -11 1 -11 -10 vvcurveto
          -56 -16 -51 -31 -48 vhcurveto
          -3 -4 11 callgsubr
          1 -13 1 -13 -13 vvcurveto
          -51 -12 -51 -25 -50 -39 callgsubr
          rlineto
          -17 vlineto
          -67 -16 -57 -33 -51 -74 callsubr
          0 12 -73 104 53 22 30 -51 callsubr
          -67 callsubr
          14 -1 14 14 vvcurveto
          15 vlineto
          14 42 44 4 41 hhcurveto
          7 11 callsubr
          1 1 -24 callsubr
          4 -22 2 -22 -23 -8 -1 -8 -8 vvcurveto
          -14 callgsubr
          -4 rlineto
          1 22 -13 34 -1 callgsubr
          2 3 12 hvcurveto
          53 12 23 27 1 1 6 7 rcurveline
          -5 8 -17 28 -14 30 -9 32 rlinecurve
          9 9 0 -12 callgsubr
          -15 callgsubr
          rlineto
          1 2 19 25 40 vvcurveto
          9 -1 10 -2 11 vhcurveto
          -263 125 rmoveto
          -8 callsubr
          -29 7 -28 rrcurveto
          -9 callgsubr
          1 -4 hvcurveto
          -8 -2 -13 -7 -13 -5 -14 -5 rlinecurve
          13 vlineto
          37 7 39 15 39 vhcurveto
          178 462 rmoveto
          17 -21 -27 10 -29 hhcurveto
          -25 -26 -8 -15 -19 hvcurveto
          -6 -4 1 -7 rlineto
          5 -20 2 -21 -20 vvcurveto
          16 callgsubr
          -1 -9 vhcurveto
          -1 -6 5 -4 rlineto
          -14 19 24 -8 24 hhcurveto
          19 18 5 9 15 hvcurveto
          -44 callgsubr
          3 0 3 3 vvcurveto
          25 7 26 14 28 vhcurveto
          3 8 rlineto
          -190 14 rmoveto
          13 -13 -25 7 -29 hhcurveto
          -35 -33 -11 -18 -20 hvcurveto
          -6 -6 4 -7 rlineto
          14 -24 6 -24 -24 vvcurveto
          -6 0 -5 -1 -6 -26 callgsubr
          6 -3 rlineto
          -9 13 20 -5 21 hhcurveto
          28 25 9 15 15 hvcurveto
          4 -67 callsubr
          8 0 8 9 vvcurveto
          21 4 22 9 23 vhcurveto
          3 -23 callsubr
        </CharString>
        <CharString name="ae">
          290 703 345 rmoveto
          58 -33 26 -2 -86 callgsubr
          -9 -29 -24 -4 -24 hhcurveto
          -18 -16 2 5 -19 hvcurveto
          2 12 2 11 4 12 -35 callgsubr
          -6 18 -7 callsubr
          rrcurveto
          25 25 -3 -5 27 hvcurveto
          6 -57 callsubr
          21 5 22 -58 callgsubr
          -7 31 hvcurveto
          7 -2 -85 callsubr
          1 1 32 29 -61 callsubr
          -4 58 -35 24 -1 -48 callgsubr
          -12 -34 -22 -6 -23 -30 callsubr
          5 10 -32 hvcurveto
          -4 -63 callgsubr
          1 -3 rlineto
          7 -16 -16 4 -22 -22 -14 -7 17 callsubr
          33 callgsubr
          -10 -68 -30 -55 -50 -47 rlinecurve
          -4 -7 -8 -65 -28 -59 -46 -53 rlinecurve
          -2 -6 -16 -72 -31 -57 -49 -44 rlinecurve
          -4 -24 callgsubr
          -3 -4 -52 70 -33 vhcurveto
          -11 23 20 -4 17 hhcurveto
          32 17 14 -24 callsubr
          4 3 1 5 4 39 11 36 17 33 rlinecurve
          2 -1 25 callgsubr
          3 36 hhcurveto
          21 21 -1 -2 20 hvcurveto
          -2 -33 -7 -30 -12 -30 -2 -54 callgsubr
          -2 20 -50 77 50 27 19 15 12 vhcurveto
          9 callsubr
          6 hlineto
          6 24 18 -19 callsubr
          24 23 -6 -14 -75 callsubr
          5 3 2 2 39 28 1 58 rlinecurve
          59 -30 25 -2 -76 callgsubr
          -7 -27 -21 -4 -18 hhcurveto
          -27 -23 8 15 -37 -64 callsubr
          -4 -1 rlineto
          0 -35 -3 -22 -5 vhcurveto
          -71 callgsubr
          rrcurveto
          8 vlineto
          -38 callsubr
          26 27 -6 -12 36 -42 callgsubr
          6 4 rlineto
          -23 callgsubr
          -30 callgsubr
          -340 10 rmoveto
          -21 -2 -20 -4 -21 vhcurveto
          -11 hlineto
          -26 -26 2 4 -24 hvcurveto
          14 35 21 34 30 33 3 6 rcurveline
          2 15 4 15 4 14 rrcurveto
          10 -31 5 -33 -32 vvcurveto
          endchar
        </CharString>
        <CharString name="aeacute">
          290 703 345 rmoveto
          58 -33 26 -2 -86 callgsubr
          -9 -29 -24 -4 -24 hhcurveto
          -18 -16 2 5 -19 hvcurveto
          2 12 2 11 4 12 -35 callgsubr
          -6 18 -7 callsubr
          rrcurveto
          25 25 -3 -5 27 hvcurveto
          6 -57 callsubr
          21 5 22 -58 callgsubr
          -7 31 hvcurveto
          7 -2 -85 callsubr
          1 1 32 29 -61 callsubr
          -4 58 -35 24 -1 -48 callgsubr
          -12 -34 -22 -6 -23 -30 callsubr
          5 10 -32 hvcurveto
          -4 -63 callgsubr
          1 -3 rlineto
          7 -16 -16 4 -22 -22 -14 -7 17 callsubr
          33 callgsubr
          -10 -68 -30 -55 -50 -47 rlinecurve
          -4 -7 -8 -65 -28 -59 -46 -53 rlinecurve
          -2 -6 -16 -72 -31 -57 -49 -44 rlinecurve
          -4 -24 callgsubr
          -3 -4 -52 70 -33 vhcurveto
          -11 23 20 -4 17 hhcurveto
          32 17 14 -24 callsubr
          4 3 1 5 4 39 11 36 17 33 rlinecurve
          2 -1 25 callgsubr
          3 36 hhcurveto
          21 21 -1 -2 20 hvcurveto
          -2 -33 -7 -30 -12 -30 -2 -54 callgsubr
          -2 20 -50 77 50 27 19 15 12 vhcurveto
          9 callsubr
          6 hlineto
          6 24 18 -19 callsubr
          24 23 -6 -14 -75 callsubr
          5 3 2 2 39 28 1 58 rlinecurve
          59 -30 25 -2 -76 callgsubr
          -7 -27 -21 -4 -18 hhcurveto
          -27 -23 8 15 -37 -64 callsubr
          -4 -1 rlineto
          0 -35 -3 -22 -5 vhcurveto
          -71 callgsubr
          rrcurveto
          8 vlineto
          -38 callsubr
          26 27 -6 -12 36 -42 callgsubr
          6 4 rlineto
          -23 callgsubr
          -30 callgsubr
          -340 10 rmoveto
          -21 -2 -20 -4 -21 vhcurveto
          -11 hlineto
          -26 -26 2 4 -24 hvcurveto
          14 35 21 34 30 33 3 6 rcurveline
          2 15 4 15 4 14 rrcurveto
          10 -31 5 -33 -32 vvcurveto
          207 519 -106 callgsubr
          endchar
        </CharString>
        <CharString name="agrave">
          0 522 255 rmoveto
          -13 57 -37 18 -1 1 -6 -3 callgsubr
          -3 -12 -7 -12 -6 -13 -5 rlinecurve
          -8 28 -2 31 34 vvcurveto
          13 vlineto
          -47 callsubr
          -27 48 -14 54 57 vvcurveto
          8 0 7 1 8 vhcurveto
          1 7 -6 -8 callgsubr
          -18 6 -28 hhcurveto
          -7 hlineto
          1 1 1 -51 callsubr
          6 -3 -53 callsubr
          -30 59 -81 hhcurveto
          -42 -22 -19 -1 -2 hvcurveto
          -4 -4 7 callgsubr
          1 -11 1 -11 -10 vvcurveto
          -56 -16 -51 -31 -48 vhcurveto
          -3 -4 11 callgsubr
          1 -13 1 -13 -13 vvcurveto
          -51 -12 -51 -25 -50 -39 callgsubr
          rlineto
          -17 vlineto
          -67 -16 -57 -33 -51 -74 callsubr
          0 12 -73 104 53 22 30 -51 callsubr
          -67 callsubr
          14 -1 14 14 vvcurveto
          15 vlineto
          14 42 44 4 41 hhcurveto
          7 11 callsubr
          1 1 -24 callsubr
          4 -22 2 -22 -23 -8 -1 -8 -8 vvcurveto
          -14 callgsubr
          -4 rlineto
          1 22 -13 34 -1 callgsubr
          2 3 12 hvcurveto
          53 12 23 27 1 1 6 7 rcurveline
          -5 8 -17 28 -14 30 -9 32 rlinecurve
          9 9 0 -12 callgsubr
          -15 callgsubr
          rlineto
          1 2 19 25 40 vvcurveto
          9 -1 10 -2 11 vhcurveto
          -263 125 rmoveto
          -8 callsubr
          -29 7 -28 rrcurveto
          -9 callgsubr
          1 -4 hvcurveto
          -8 -2 -13 -7 -13 -5 -14 -5 rlinecurve
          13 vlineto
          37 7 39 15 39 vhcurveto
          52 383 -102 callsubr
        </CharString>
        <CharString name="amacron">
          0 522 255 rmoveto
          -13 57 -37 18 -1 1 -6 -3 callgsubr
          -3 -12 -7 -12 -6 -13 -5 rlinecurve
          -8 28 -2 31 34 vvcurveto
          13 vlineto
          -47 callsubr
          -27 48 -14 54 57 vvcurveto
          8 0 7 1 8 vhcurveto
          1 7 -6 -8 callgsubr
          -18 6 -28 hhcurveto
          -7 hlineto
          1 1 1 -51 callsubr
          6 -3 -53 callsubr
          -30 59 -81 hhcurveto
          -42 -22 -19 -1 -2 hvcurveto
          -4 -4 7 callgsubr
          1 -11 1 -11 -10 vvcurveto
          -56 -16 -51 -31 -48 vhcurveto
          -3 -4 11 callgsubr
          1 -13 1 -13 -13 vvcurveto
          -51 -12 -51 -25 -50 -39 callgsubr
          rlineto
          -17 vlineto
          -67 -16 -57 -33 -51 -74 callsubr
          0 12 -73 104 53 22 30 -51 callsubr
          -67 callsubr
          14 -1 14 14 vvcurveto
          15 vlineto
          14 42 44 4 41 hhcurveto
          7 11 callsubr
          1 1 -24 callsubr
          4 -22 2 -22 -23 -8 -1 -8 -8 vvcurveto
          -14 callgsubr
          -4 rlineto
          1 22 -13 34 -1 callgsubr
          2 3 12 hvcurveto
          53 12 23 27 1 1 6 7 rcurveline
          -5 8 -17 28 -14 30 -9 32 rlinecurve
          9 9 0 -12 callgsubr
          -15 callgsubr
          rlineto
          1 2 19 25 40 vvcurveto
          9 -1 10 -2 11 vhcurveto
          -263 125 rmoveto
          -8 callsubr
          -29 7 -28 rrcurveto
          -9 callgsubr
          1 -4 hvcurveto
          -8 -2 -13 -7 -13 -5 -14 -5 rlinecurve
          13 vlineto
          37 7 39 15 39 vhcurveto
          133 381 -101 callsubr
        </CharString>
        <CharString name="ampersand">
          120 532 523 rmoveto
          -1 -2 10 -3 10 vhcurveto
          11 13 11 21 3 27 rrcurveto
          12 vlineto
          48 -26 23 -1 1 vhcurveto
          -58 callsubr
          -1 rlineto
          -4 -21 -17 -2 -16 hhcurveto
          -29 -25 7 18 -39 -64 callsubr
          -5 -1 rlineto
          -16 -16 -3 -14 hhcurveto
          -35 -32 6 18 -37 hvcurveto
          -5 2 -4 -1 -2 -1 -45 -12 -11 -58 rlinecurve
          -38 -25 -7 -33 -1 vvcurveto
          -1 -7 4 -4 46 -53 25 -59 6 -69 rlinecurve
          4 -8 3 -3 rlineto
          -3 -4 1 -3 -14 -9 -3 -1 hhcurveto
          -5 -2 -3 -6 -23 -64 -66 -78 -46 -32 rlinecurve
          -4 -3 -1 -25 callgsubr
          -2 -7 -10 vvcurveto
          -10 5 -16 10 -17 vhcurveto
          -5 -10 -5 -14 -19 vvcurveto
          -12 2 -13 5 -16 vhcurveto
          -70 22 46 -8 2 hhcurveto
          8 2 rlineto
          35 45 51 18 56 7 7 -1 7 hhcurveto
          7 2 21 16 23 13 26 9 rlinecurve
          4 -16 2 -16 2 -16 rrcurveto
          -4 vlineto
          3 -4 rlineto
          -2 1 19 -18 35 hhcurveto
          14 18 3 10 20 hvcurveto
          58 27 6 44 11 vvcurveto
          8 vlineto
          -3 4 -15 16 rlineto
          8 26 28 4 30 hhcurveto
          17 hlineto
          6 -1 3 6 rlineto
          1 1 13 21 33 vvcurveto
          12 -2 13 -4 15 vhcurveto
          56 -17 -36 16 17 callsubr
          2 -5 -3 -37 -26 -41 -15 -43 -3 rlinecurve
          -2 10 -1 10 -1 10 -4 8 rcurveline
          -10 10 -9 10 -8 11 1 2 rcurveline
          19 56 54 79 53 42 5 4 rcurveline
          -262 -299 rmoveto
          -1 1 -1 0 vhcurveto
          -4 -18 -19 -1 -19 hhcurveto
          -5 -2 -19 -10 18 27 22 27 23 21 rlinecurve
          5 -16 5 -17 3 -17 rrcurveto
          90 315 rmoveto
          -9 -13 -10 -13 -11 -12 -13 17 -12 18 -9 19 17 -3 19 -6 20 -7 -38 callgsubr
          endchar
        </CharString>
        <CharString name="aogonek">
          0 522 255 rmoveto
          -13 57 -37 18 -1 1 -6 -3 callgsubr
          -3 -12 -7 -12 -6 -13 -5 rlinecurve
          -8 28 -2 31 34 vvcurveto
          13 vlineto
          -47 callsubr
          -27 48 -14 54 57 vvcurveto
          8 0 7 1 8 vhcurveto
          1 7 -6 -8 callgsubr
          -18 6 -28 hhcurveto
          -7 hlineto
          1 1 1 -51 callsubr
          6 -3 -53 callsubr
          -30 59 -81 hhcurveto
          -42 -22 -19 -1 -2 hvcurveto
          -4 -4 7 callgsubr
          1 -11 1 -11 -10 vvcurveto
          -56 -16 -51 -31 -48 vhcurveto
          -3 -4 11 callgsubr
          1 -13 1 -13 -13 vvcurveto
          -51 -12 -51 -25 -50 -39 callgsubr
          rlineto
          -17 vlineto
          -67 -16 -57 -33 -51 -74 callsubr
          0 12 -73 104 53 22 30 -51 callsubr
          -67 callsubr
          14 -1 14 14 vvcurveto
          15 vlineto
          14 42 44 4 41 hhcurveto
          7 11 callsubr
          1 1 -24 callsubr
          4 -22 2 -22 -23 -8 -1 -8 -8 vvcurveto
          -14 callgsubr
          -4 rlineto
          0 5 -3 8 -3 vhcurveto
          -10 -23 -12 -23 -14 -20 -53 callgsubr
          27 13 26 18 26 17 10 8 9 1 1 6 7 rcurveline
          -5 8 -17 28 -14 30 -9 32 rlinecurve
          9 9 0 -12 callgsubr
          -15 callgsubr
          rlineto
          1 2 19 25 40 vvcurveto
          9 -1 10 -2 11 vhcurveto
          -263 125 rmoveto
          -8 callsubr
          -29 7 -28 rrcurveto
          -9 callgsubr
          1 -4 hvcurveto
          -8 -2 -13 -7 -13 -5 -14 -5 rlinecurve
          13 vlineto
          37 7 39 15 39 vhcurveto
          endchar
        </CharString>
        <CharString name="aring">
          0 522 255 rmoveto
          -13 57 -37 18 -1 1 -6 -3 callgsubr
          -3 -12 -7 -12 -6 -13 -5 rlinecurve
          -8 28 -2 31 34 vvcurveto
          13 vlineto
          -47 callsubr
          -27 48 -14 54 57 vvcurveto
          8 0 7 1 8 vhcurveto
          1 7 -6 -8 callgsubr
          -18 6 -28 hhcurveto
          -7 hlineto
          1 1 1 -51 callsubr
          6 -3 -53 callsubr
          -30 59 -81 hhcurveto
          -42 -22 -19 -1 -2 hvcurveto
          -4 -4 7 callgsubr
          1 -11 1 -11 -10 vvcurveto
          -56 -16 -51 -31 -48 vhcurveto
          -3 -4 11 callgsubr
          1 -13 1 -13 -13 vvcurveto
          -51 -12 -51 -25 -50 -39 callgsubr
          rlineto
          -17 vlineto
          -67 -16 -57 -33 -51 -74 callsubr
          0 12 -73 104 53 22 30 -51 callsubr
          -67 callsubr
          14 -1 14 14 vvcurveto
          15 vlineto
          14 42 44 4 41 hhcurveto
          7 11 callsubr
          1 1 -24 callsubr
          4 -22 2 -22 -23 -8 -1 -8 -8 vvcurveto
          -14 callgsubr
          -4 rlineto
          1 22 -13 34 -1 callgsubr
          2 3 12 hvcurveto
          53 12 23 27 1 1 6 7 rcurveline
          -5 8 -17 28 -14 30 -9 32 rlinecurve
          9 9 0 -12 callgsubr
          -15 callgsubr
          rlineto
          1 2 19 25 40 vvcurveto
          9 -1 10 -2 11 vhcurveto
          -263 125 rmoveto
          -8 callsubr
          -29 7 -28 rrcurveto
          -9 callgsubr
          1 -4 hvcurveto
          -8 -2 -13 -7 -13 -5 -14 -5 rlinecurve
          13 vlineto
          37 7 39 15 39 vhcurveto
          141 375 rmoveto
          8 0 8 -2 7 vhcurveto
          15 13 9 18 23 vvcurveto
          3 vlineto
          -2 3 -28 35 -21 40 -15 48 rlinecurve
          -2 5 -5 2 rlineto
          2 -6 -7 1 -6 -7 callgsubr
          -6 -11 -15 hvcurveto
          12 -16 -20 8 -19 hhcurveto
          -4 -4 -82 callgsubr
          -6 -1 -3 -6 -20 -48 -28 -42 -36 -32 rlinecurve
          -5 -5 1 -6 4 -16 10 -18 15 -12 rlinecurve
          -4 -10 -2 -9 -10 vvcurveto
          -26 9 -21 20 -11 vhcurveto
          -14 callsubr
          5 29 30 3 29 hhcurveto
          33 32 -3 -7 32 hvcurveto
          4 7 callsubr
          19 11 13 22 1 24 rlinecurve
          -125 108 rmoveto
          11 -15 10 -16 8 -16 rrcurveto
          -1 -12 -13 0 -12 hhcurveto
          -29 hlineto
          11 17 12 16 14 15 rrcurveto
          endchar
        </CharString>
        <CharString name="asciicircum">
          -155 328 481 -105 callgsubr
        </CharString>
        <CharString name="asciitilde">
          -52 433 436 rmoveto
          36 -2 -35 32 -40 hhcurveto
          -12 -12 -3 -5 -9 hvcurveto
          -5 -2 -1 -5 -9 -33 -14 -31 -17 -30 rlinecurve
          -16 26 -13 29 -11 31 -5 6 rcurveline
          6 -12 -12 3 -12 hhcurveto
          -4 -3 -82 callgsubr
          4 -9 -10 2 -10 hhcurveto
          -10 -9 -2 -2 -9 hvcurveto
          -5 callsubr
          -5 -21 -53 -31 -49 -45 -46 rlinecurve
          -3 -3 rlineto
          -4 vlineto
          -40 28 -40 44 7 10 2 4 8 vhcurveto
          5 6 14 31 16 30 20 28 rlinecurve
          17 -29 -8 callsubr
          -32 1 -4 rcurveline
          4 -2 rlineto
          -5 9 10 -3 11 hhcurveto
          10 10 2 4 10 hvcurveto
          -2 6 -2 callgsubr
          hhcurveto
          12 10 2 6 9 hvcurveto
          5 6 19 59 31 55 41 47 -36 callsubr
        </CharString>
        <CharString name="asterisk">
          9 488 566 rmoveto
          -9 21 -16 15 -19 7 -6 1 rcurveline
          -5 -3 -32 -25 -37 -18 -44 -12 rlinecurve
          -6 -2 -1 -6 rlineto
          -2 -8 -1 -8 -8 vvcurveto
          -25 11 -21 22 -17 vhcurveto
          5 -3 6 2 39 17 41 10 44 4 rlinecurve
          6 hlineto
          3 6 rlineto
          6 11 2 13 13 vvcurveto
          12 -2 12 -5 12 vhcurveto
          -168 130 rmoveto
          17 -16 -24 10 -24 hhcurveto
          -25 -21 -10 -17 -14 hvcurveto
          -4 -4 -91 callsubr
          -31 -32 vvcurveto
          -11 0 -11 -1 -11 vhcurveto
          -7 vlineto
          5 -3 rlineto
          -11 15 16 -5 16 hhcurveto
          15 15 5 9 15 hvcurveto
          -69 callgsubr
          7 vlineto
          -1 8 0 8 8 vvcurveto
          34 5 35 10 34 16 callsubr
          rlineto
          108 -348 rmoveto
          -32 25 -26 33 -21 40 -3 6 rcurveline
          -6 hlineto
          -37 -26 -16 -33 -15 hvcurveto
          -3 -6 4 -5 25 -34 19 -38 13 -42 rlinecurve
          2 -6 6 12 callgsubr
          6 6 -1 7 hhcurveto
          43 38 32 38 3 hvcurveto
          1 6 rlineto
          -231 207 rmoveto
          -6 2 -40 13 -38 21 -34 26 rlinecurve
          -58 callsubr
          -2 rlineto
          -32 -13 -23 -34 -35 vvcurveto
          -12 3 -11 6 -10 vhcurveto
          3 -5 6 -1 41 -3 39 -11 41 -20 rlinecurve
          6 -3 -69 callgsubr
          24 16 13 22 28 vvcurveto
          6 -1 6 -1 7 vhcurveto
          46 -144 rmoveto
          -13 33 -26 18 -36 1 rrcurveto
          -7 hlineto
          -3 -6 -21 -36 -28 -33 -33 -28 rlinecurve
          -5 -4 1 -6 rlineto
          -40 7 37 -32 39 hhcurveto
          7 7 1 2 6 hvcurveto
          6 2 1 6 12 39 19 36 28 36 rlinecurve
          4 5 rlineto
          endchar
        </CharString>
</ttFont>
